<svg width="25" height="26" viewBox="0 0 25 26" fill="none" xmlns="http://www.w3.org/2000/svg">
<path d="M12.5 0.764648C19.4038 0.764648 25 6.36084 25 13.2646C25 20.1685 19.4038 25.7646 12.5 25.7646C5.5962 25.7646 0 20.1685 0 13.2646C0 6.36084 5.5962 0.764648 12.5 0.764648ZM16.812 18.3598C17.0418 17.6543 18.119 10.6239 18.2522 9.23856C18.2924 8.819 18.1598 8.54019 17.9 8.41574C17.5859 8.26465 17.1207 8.34019 16.581 8.53476C15.8408 8.80161 6.37772 12.8195 5.83098 13.0521C5.3125 13.2723 4.82228 13.5125 4.82228 13.8603C4.82228 14.1049 4.96739 14.2424 5.36739 14.3853C5.7837 14.5337 6.83207 14.8516 7.45109 15.0223C8.04728 15.1869 8.72609 15.044 9.10652 14.8076C9.50978 14.557 14.1636 11.4429 14.4978 11.1701C14.8315 10.8973 15.0978 11.2467 14.825 11.5201C14.5522 11.7929 11.3576 14.8935 10.9364 15.3228C10.425 15.844 10.788 16.3842 11.131 16.6005C11.5228 16.8473 14.3408 18.7375 14.7652 19.0407C15.1897 19.344 15.6201 19.4815 16.0141 19.4815C16.4082 19.4815 16.6158 18.9625 16.812 18.3598Z" fill="#00BFFF"/>
</svg>
