<svg width="25" height="26" viewBox="0 0 25 26" fill="none" xmlns="http://www.w3.org/2000/svg">
<path d="M0 13.0293C0 19.9329 5.59644 25.5293 12.5 25.5293C19.4036 25.5293 25 19.9329 25 13.0293C25 6.12574 19.4036 0.529297 12.5 0.529297C5.59644 0.529297 0 6.12574 0 13.0293Z" fill="#19D22C"/>
<path fill-rule="evenodd" clip-rule="evenodd" d="M9.28601 7.42598C9.04775 6.90262 8.79707 6.89215 8.57046 6.88294C8.38501 6.87514 8.1729 6.87565 7.96105 6.87565C7.74893 6.87565 7.40442 6.95431 7.1131 7.26878C6.82153 7.58328 6 8.34349 6 9.8896C6 11.4359 7.13966 12.9299 7.29844 13.1398C7.45749 13.3493 9.49842 16.6236 12.7304 17.8832C15.4167 18.93 15.9634 18.7218 16.5464 18.6694C17.1295 18.6171 18.4279 17.9094 18.6928 17.1756C18.9578 16.4418 18.9578 15.8129 18.8784 15.6815C18.7989 15.5506 18.5868 15.4719 18.2688 15.3149C17.9507 15.1577 16.3873 14.3973 16.0959 14.2925C15.8043 14.1877 15.5923 14.1354 15.3802 14.45C15.1682 14.7643 14.5592 15.4719 14.3736 15.6815C14.1882 15.8915 14.0026 15.9177 13.6846 15.7606C13.3665 15.6029 12.3423 15.2714 11.1273 14.2009C10.1819 13.3679 9.54375 12.3393 9.35816 12.0246C9.17271 11.7104 9.33836 11.5402 9.4978 11.3835C9.64068 11.2427 9.81591 11.0166 9.97497 10.8331C10.1336 10.6496 10.1866 10.5187 10.2926 10.309C10.3987 10.0993 10.3456 9.91575 10.2662 9.75855C10.1866 9.60137 9.56878 8.0474 9.28601 7.42598Z" fill="white"/>
</svg>
