<svg width="25" height="26" viewBox="0 0 25 26" fill="none" xmlns="http://www.w3.org/2000/svg">
<path d="M0 12.7939C0 19.6975 5.59644 25.2939 12.5 25.2939C19.4036 25.2939 25 19.6975 25 12.7939C25 5.89039 19.4036 0.293945 12.5 0.293945C5.59644 0.293945 0 5.89039 0 12.7939Z" fill="black"/>
<path d="M15.6503 10.3538C16.6748 11.0887 17.93 11.5212 19.2856 11.5212V8.90347C19.0291 8.90352 18.7732 8.87668 18.5222 8.82331V10.8838C17.1667 10.8838 15.9117 10.4514 14.8868 9.71649V15.0585C14.8868 17.7308 12.728 19.897 10.0651 19.897C9.07151 19.897 8.14801 19.5955 7.38086 19.0786C8.25644 19.977 9.4775 20.5343 10.8284 20.5343C13.4914 20.5343 15.6504 18.3681 15.6504 15.6956L15.6503 10.3538ZM16.5921 7.71285C16.0685 7.13882 15.7247 6.39698 15.6503 5.57684V5.24015H14.9268C15.1089 6.28254 15.7301 7.1731 16.5921 7.71285ZM9.06514 17.0279C8.77259 16.643 8.6145 16.1721 8.61521 15.688C8.61521 14.4658 9.60264 13.4748 10.8209 13.4748C11.0479 13.4747 11.2736 13.5096 11.4899 13.5785V10.9023C11.2371 10.8675 10.9819 10.8528 10.7268 10.8582V12.9412C10.5103 12.8723 10.2845 12.8373 10.0574 12.8375C8.83919 12.8375 7.85181 13.8284 7.85181 15.0508C7.85181 15.9151 8.34537 16.6634 9.06514 17.0279Z" fill="#FF004F"/>
<path d="M15.0601 9.73141C16.0837 10.4688 17.3371 10.9026 18.6909 10.9026V8.83524C17.9352 8.67297 17.2662 8.27486 16.7632 7.72112C15.9022 7.17951 15.2819 6.28597 15.1 5.24015H13.202V15.7305C13.1977 16.9535 12.2132 17.9437 10.9991 17.9437C10.2836 17.9437 9.64803 17.5999 9.24548 17.0673C8.52666 16.7016 8.03372 15.9508 8.03372 15.0837C8.03372 13.8573 9.01987 12.863 10.2366 12.863C10.4697 12.863 10.6944 12.8996 10.9052 12.967V10.877C8.29229 10.9314 6.19092 13.0836 6.19092 15.7306C6.19092 17.0519 6.71421 18.2497 7.56351 19.1249C8.32971 19.6435 9.25206 19.946 10.2444 19.946C12.9041 19.946 15.0601 17.7725 15.0601 15.0913L15.0601 9.73141Z" fill="black"/>
<path d="M18.0952 8.35148V7.78547C17.4224 7.78653 16.7627 7.59173 16.1918 7.22335C16.6972 7.7953 17.3627 8.18967 18.0952 8.35148ZM14.5496 4.71138C14.5325 4.61017 14.5193 4.5083 14.5102 4.40604V4.064H11.9226V14.6858C11.9185 15.9239 10.9464 16.9266 9.74749 16.9266C9.39551 16.9266 9.06319 16.8402 8.76889 16.6867C9.16635 17.2259 9.79395 17.5739 10.5004 17.5739C11.6991 17.5739 12.6713 16.5714 12.6755 15.3331V4.71138H14.5496ZM10.4077 10.4188V9.81626C10.1915 9.78571 9.97354 9.77038 9.75528 9.77049C7.12896 9.77044 5 11.9712 5 14.6858C5 16.3877 5.83672 17.8876 7.10818 18.7699C6.26958 17.8838 5.75289 16.6709 5.75289 15.3331C5.75289 12.6531 7.82771 10.4739 10.4077 10.4188Z" fill="#00F2EA"/>
</svg>
