<svg width="25" height="25" viewBox="0 0 25 25" fill="none" xmlns="http://www.w3.org/2000/svg">
<path d="M0 12.5C0 19.4036 5.59644 25 12.5 25C19.4036 25 25 19.4036 25 12.5C25 5.59644 19.4036 0 12.5 0C5.59644 0 0 5.59644 0 12.5Z" fill="#1976D2"/>
<path d="M19.9606 8.64289C19.9894 8.54962 20.0031 8.46315 19.9994 8.38594C19.99 8.16236 19.8344 7.99992 19.4681 7.99992H17.8319C17.4187 7.99992 17.2281 8.24697 17.1169 8.49465C17.1169 8.49465 16.0969 10.5693 14.9212 11.9374C14.54 12.3333 14.3462 12.3234 14.14 12.3234C14.0294 12.3234 13.75 12.1913 13.75 11.8287V8.62621C13.75 8.19756 13.6419 7.99992 13.2925 7.99992H10.3869C10.1325 7.99992 10 8.19756 10 8.39583C10 8.8078 10.5612 8.90662 10.625 10.061V12.2987C10.625 12.8423 10.5294 12.9411 10.3231 12.9411C9.76687 12.9411 8.67187 11.0882 7.93875 8.65956C7.78 8.1815 7.62125 7.99992 7.20812 7.99992H5.55625C5.07938 7.99992 5 8.23092 5 8.47797C5 8.9233 5.375 11.3309 7.42188 14.0992C8.90625 16.1065 10.8619 17.2646 12.5931 17.2646C13.6419 17.2646 13.7494 17.0009 13.7494 16.5889V14.7533C13.75 14.2585 13.8644 14.1764 14.1981 14.1764C14.4362 14.1764 14.9219 14.3308 15.8594 15.4117C16.9406 16.6581 17.1369 17.2646 17.7569 17.2646H19.3931C19.7731 17.2646 19.9912 17.1071 20 16.8014C20.0019 16.7236 19.9906 16.6365 19.965 16.5395C19.8437 16.1837 19.2875 15.3141 18.5937 14.4852C18.2094 14.0263 17.83 13.5717 17.6556 13.3247C17.5387 13.1634 17.4944 13.0498 17.5 12.9411C17.5056 12.8268 17.5656 12.7181 17.6556 12.5662C17.6394 12.5662 19.7544 9.63174 19.9606 8.64289Z" fill="white"/>
</svg>
