<svg width="77" height="82" viewBox="0 0 77 82" fill="none" xmlns="http://www.w3.org/2000/svg">
<g id="Group">
<path id="Vector" d="M11.1859 25.2645C10.9068 24.6354 11.2572 23.701 12.7599 22.8227C16.2166 21.5582 25.9808 18.4936 39.8966 20.3623C46.1923 21.2094 47.1188 22.7853 51.7099 22.505C60.3873 21.9693 65.6258 20.9042 65.8871 24.897C65.3763 26.4792 63.3748 29.5002 63.3748 29.5002L51.0091 32.3656C51.0091 32.3656 37.9129 33.1753 37.5803 33.2501C37.2477 33.3248 24.9474 33.2501 24.9474 33.2501L14.3635 29.0206L11.1859 25.277V25.2645Z" fill="#D32946"/>
<g id="Group_2">
<path id="Vector_2" d="M51.0688 5.65629C51.0688 5.65629 46.8816 -1.00875 43.5675 0.131162C40.2533 1.27107 42.0945 6.6467 42.0945 6.6467L51.1223 8.04823L51.0688 5.65006V5.65629Z" fill="#DD4B57"/>
<path id="Vector_3" d="M52.5177 5.88055C52.5177 5.88055 58.3799 0.778997 61.2783 2.8844C64.1826 4.98981 60.9397 9.58059 60.9397 9.58059L51.8169 8.16037L52.5177 5.88055Z" fill="#DD4B57"/>
<path id="Vector_4" d="M48.7579 7.68673C48.7579 7.68673 48.9361 5.13906 51.585 5.48789C54.2339 5.83671 54.1864 8.53387 54.1864 8.53387L48.752 7.68673H48.7579Z" fill="#DD4B57"/>
<path id="Vector_5" d="M63.0422 15.2134L37.708 11.3657L33.3906 42.6331L58.7248 46.4808L63.0422 15.2134Z" fill="#C2C460"/>
<path id="Vector_6" d="M65.7466 10.2081L36.4741 5.76221L35.7421 11.0638L65.0145 15.5097L65.7466 10.2081Z" fill="#C2C460"/>
<path id="Vector_7" d="M43.8099 6.87382L36.4683 5.75879L35.7362 11.0604L43.0778 12.1755L43.8099 6.87382Z" fill="#ADAD40"/>
<path id="Vector_8" d="M37.7168 11.3555L37.3129 14.2956L33.3989 42.6189L40.3182 43.6716L44.2857 14.9185L44.6361 12.4082L37.7168 11.3555Z" fill="#ADAD40"/>
<path id="Vector_9" d="M53.1001 8.18184L49.8613 7.68994L44.7974 44.3637L48.0362 44.8556L53.1001 8.18184Z" fill="#DD4B57"/>
<path id="Vector_10" d="M48.7345 7.59333L48.4375 7.54974C48.7345 5.33221 50.9083 5.23877 50.932 5.23877L50.9439 5.55022C50.8667 5.55022 48.9958 5.63743 48.7345 7.59333Z" fill="#561922"/>
<path id="Vector_11" d="M54.4428 8.4409H54.1459C54.1815 6.70924 52.5779 5.88078 52.5601 5.87455L52.6907 5.59424C52.762 5.63161 54.4844 6.51613 54.4428 8.44713V8.4409Z" fill="#561922"/>
<path id="Vector_12" d="M63.0241 15.3545L37.6929 11.5112L37.7404 11.1997L63.0716 15.0492L63.0241 15.3545Z" fill="#561922"/>
<path id="Vector_13" d="M53.0695 8.43441L49.8325 7.94231L49.8741 7.63086L53.117 8.12296L53.0695 8.43441Z" fill="#561922"/>
</g>
<g id="Group_3">
<path id="Vector_14" d="M26.9724 13.58C26.9724 13.58 22.6724 9.67441 20.6055 11.2815C18.5445 12.8886 20.9499 16.3955 20.9499 16.3955L27.5129 15.3179L26.9724 13.5738V13.58Z" fill="#DD4B57"/>
<path id="Vector_15" d="M28.1662 13.3803C28.1662 13.3803 31.1299 8.28499 33.5591 9.15705C35.9883 10.0291 34.7173 14.1403 34.7173 14.1403L28.1543 15.2179V13.3865L28.1662 13.3803Z" fill="#DD4B57"/>
<path id="Vector_16" d="M25.2975 15.6789C25.2975 15.6789 24.8521 13.7791 27.3169 13.3244C29.7817 12.8696 30.3816 14.8442 30.3816 14.8442L25.2975 15.6789Z" fill="#DD4B57"/>
<path id="Vector_17" d="M25.1485 15.6909C25.0297 13.8347 26.7521 13.2865 26.7699 13.2803L26.853 13.5793C26.7936 13.598 25.3444 14.0651 25.4454 15.666L25.1485 15.6847V15.6909Z" fill="#561922"/>
<path id="Vector_18" d="M30.7549 14.8191C30.2204 13.3428 28.2782 13.3927 28.2604 13.3927L28.2485 13.0812C28.3376 13.0812 30.4223 13.0314 31.0281 14.7132L30.749 14.8253L30.7549 14.8191Z" fill="#561922"/>
<path id="Vector_19" d="M20.5697 48.9416L14.8857 21.372L34.1826 18.2139L35.4239 46.506L20.5697 48.9416Z" fill="#DD9547"/>
<path id="Vector_20" d="M24.953 48.2257L19.8867 20.5565L38.2155 17.5479L41.0426 45.5909L24.953 48.2257Z" fill="#EDAC5F"/>
<path id="Vector_21" d="M39.0533 19.1663L14.2447 23.2339L13.0391 17.6527L38.5781 13.4668L39.0533 19.1663Z" fill="#DD9547"/>
<path id="Vector_22" d="M18.0811 16.8242L19.2333 22.4179L39.0528 19.1663L38.5777 13.4668L18.0811 16.8242Z" fill="#EDAC5F"/>
<path id="Vector_23" d="M30.6424 20.5375L26.8633 21.1567L30.791 47.522L34.57 46.9027L30.6424 20.5375Z" fill="#DD4B57"/>
<path id="Vector_24" d="M29.9872 14.8666L25.8325 15.5474L26.6732 21.1909L30.8279 20.5101L29.9872 14.8666Z" fill="#DD4B57"/>
<path id="Vector_25" d="M38.3706 19.1206L15.2144 22.9106L15.2601 23.2184L38.4164 19.4284L38.3706 19.1206Z" fill="#561922"/>
</g>
<path id="Vector_26" d="M71.7194 70.8429C71.7194 70.8429 69.9614 53.7567 62.5788 37.4055C62.074 36.2906 63.0955 35.5991 63.2678 34.5278C63.44 33.4501 61.7355 33.4564 62.6145 32.4161C63.8558 30.9523 66.5938 26.9844 66.5938 24.4492C59.2944 30.6782 16.9292 32.7836 10.6276 25.1157C10.6276 27.6447 12.4806 30.9523 13.722 32.4161C14.601 33.4564 12.8964 33.4564 13.0686 34.5278C13.2409 35.6054 14.2624 36.2906 13.7576 37.4055C6.36907 53.7567 4.61697 70.8429 4.61697 70.8429C4.61697 70.8429 -1.31641 79.9248 0.269385 80.965C2.37784 82.2731 73.9526 82.2731 76.0611 80.965C77.6469 79.9248 71.7135 70.8429 71.7135 70.8429H71.7194Z" fill="#EA475B"/>
<path id="Vector_27" d="M10.99 26.1187C10.99 26.1187 9.42201 23.8576 12.7599 22.8236C10.7821 24.2064 12.3323 25.7699 16.6323 27.4206C20.5761 28.9342 31.5341 30.7344 41.1261 30.2361C58.8431 29.009 64.2123 25.5706 64.2123 25.5706C67.3542 24.0196 64.1469 22.4312 64.1469 22.4312C66.9147 23.4091 67.5145 24.6736 65.02 26.3617C50.926 34.1853 17.6896 32.5595 10.9959 26.125L10.99 26.1187Z" fill="#EA475B"/>
<path id="Vector_28" d="M37.3843 31.7617C37.1942 31.7617 37.0042 31.7617 36.8141 31.7617C25.9867 31.7057 16.2759 29.893 12.0649 27.1523L12.2194 26.8906C16.3888 29.6065 26.0402 31.3942 36.8141 31.4565C37.0042 31.4565 37.1942 31.4565 37.3843 31.4565C48.9184 31.4565 58.9381 29.5566 64.9427 26.2241L65.0793 26.4982C59.0331 29.8556 48.96 31.768 37.3783 31.768L37.3843 31.7617Z" fill="#561922"/>
<path id="Vector_29" d="M32.6919 26.9346C34.1411 26.592 35.6496 26.7913 37.1167 27.0218C37.4671 27.0778 37.8175 27.1339 38.1679 27.0841C38.5421 27.028 38.8925 26.8598 39.237 26.6854C40.7218 25.9504 42.2066 25.2091 43.6855 24.4741C45.3486 23.6457 47.3917 22.8421 48.9181 23.9197C50.0882 24.7482 50.5276 26.3864 50.7236 27.7755C50.8068 28.3548 50.7949 29.1147 50.3792 29.5508C49.9575 29.9868 49.316 30.0304 48.7696 30.1488C47.6887 30.3917 46.5661 30.4851 45.4673 30.6035C44.321 30.728 43.1748 30.809 42.0225 30.8526C41.5058 30.8713 40.9891 30.89 40.4724 30.9025H40.3774C38.2986 30.9648 36.2258 30.9461 34.147 30.89C33.2086 30.8651 32.2464 30.89 31.3199 30.7405C30.7378 30.6533 29.8826 30.5536 29.6331 29.8996C29.3421 29.1459 30.0667 28.3673 30.5834 27.9499C31.1951 27.4516 31.9316 27.1152 32.68 26.9346H32.6919Z" fill="white"/>
<path id="Vector_30" d="M21.2887 36.359C15.8305 35.6178 13.8527 32.8645 13.7695 32.7524L14.0071 32.5718C14.0071 32.5718 16.0027 35.3312 21.3244 36.0538L21.2887 36.3652V36.359Z" fill="#561922"/>
<path id="Vector_31" d="M54.6437 36.3652L54.6318 36.0537C54.6794 36.0537 59.5674 35.8606 62.2639 32.9019L62.4777 33.1199C59.6981 36.1659 54.6912 36.3652 54.6437 36.3652Z" fill="#561922"/>
<path id="Vector_32" d="M22.7973 42.1641C19.0496 41.3917 15.6641 39.3112 13.9536 36.7324L14.1971 36.5518C15.8661 39.0683 19.1862 41.0989 22.8567 41.8527L22.7973 42.1579V42.1641Z" fill="#561922"/>
<path id="Vector_33" d="M51.4485 40.7509L51.4248 40.4394C51.4901 40.4394 57.7561 39.8227 62.365 36.5151L62.5313 36.7705C57.8571 40.1217 51.5139 40.7384 51.4485 40.7446V40.7509Z" fill="#561922"/>
<path id="Vector_34" d="M25.8805 15.7034L25.833 15.3982L29.9549 14.7192L30.0024 15.0307L25.8805 15.7034Z" fill="#561922"/>
<path id="Vector_35" d="M38.9283 79.1211C30.2985 79.1211 21.6033 77.3084 12.9141 73.6894L13.0269 73.4028C30.3341 80.616 47.6472 80.616 64.4733 73.4028L64.5862 73.6894C56.1345 77.3146 47.5641 79.1211 38.9283 79.1211Z" fill="#561922"/>
</g>
</svg>
