<svg width="146" height="177" viewBox="0 0 146 177" fill="none" xmlns="http://www.w3.org/2000/svg">
<g id="Group 57">
<g id="Group">
<path id="Vector" d="M64.2979 145.574L62.7797 174.776C62.8225 175.708 62.1895 176.495 61.3947 176.495H37.4174C36.6464 176.495 36.1276 175.602 36.3703 174.747C37.2127 171.803 39.4686 169.689 43.2951 168.511L46.9122 145.164C50.9386 144.015 57.2827 144.551 64.2979 145.574Z" fill="#5B1E27"/>
<path id="Vector_2" d="M74.9258 145.459L73.5313 174.777C73.4885 175.708 74.1215 176.495 74.9163 176.495H98.8937C99.6647 176.495 100.183 175.602 99.9407 174.748C99.0983 171.804 96.8424 169.689 93.0159 168.512L92.3068 145.049C88.1472 145.749 81.7983 146.342 74.9211 145.459H74.9258Z" fill="#5B1E27"/>
<path id="Vector_3" d="M48.6729 171.368C46.8501 168.496 43.3378 168.689 43.2997 168.689L43.2759 168.327C43.314 168.327 47.031 168.115 48.968 171.17L48.6682 171.368H48.6729Z" fill="#8C4956"/>
<path id="Vector_4" d="M88.7558 170.007L88.4893 169.765C89.8647 168.216 92.9011 168.322 93.0296 168.327L93.0154 168.689C92.9868 168.689 90.0218 168.583 88.7558 170.007Z" fill="#8C4956"/>
</g>
<g id="Group_2">
<path id="Vector_5" d="M81.5459 30.3774C87.5807 33.4714 100.65 49.2115 105.595 50.785C111.601 52.4792 122.124 48.753 122.747 48.3572L126.379 73.2971C126.379 73.2971 111.51 75.6091 99.9882 69.5419C88.4659 63.4746 85.4866 48.502 85.4866 48.502L81.5507 30.3774H81.5459Z" fill="#EA475B"/>
<path id="Vector_6" d="M121.867 48.1073C123.047 46.5193 124.794 45.5105 127.031 45.5105C127.659 45.4043 129.458 45.6649 130.591 47.2578C133.113 49.6326 138.091 64.5569 136.254 71.271C135.417 74.3311 131.876 75.0552 129.153 74.9731C127.602 74.9297 125.874 74.6014 124.723 73.4623C123.438 72.1832 122.643 70.4504 121.967 68.7852C121.953 68.7514 121.938 68.7176 121.924 68.6838C120.311 64.6728 119.592 60.1887 119.778 55.8687C119.849 54.2035 120.068 52.5383 120.515 50.931C120.806 49.8739 121.258 48.9134 121.862 48.1025L121.867 48.1073Z" fill="white"/>
<path id="Vector_7" d="M133.689 72.1055C128.173 73.5487 123.58 48.7487 128.406 47.6965C132.937 47.238 137.32 70.9857 133.689 72.1055Z" fill="#5B1E27"/>
<path id="Vector_8" d="M104.081 55.0768L103.848 55.0382C104.129 53.344 104.672 51.9298 105.5 50.7183L105.695 50.8582C104.886 52.036 104.357 53.4213 104.081 55.0817V55.0768Z" fill="#561922"/>
<path id="Vector_9" d="M140.19 46.602C138.02 46.7178 135.764 47.9824 133.97 49.194C133.97 49.194 135.317 45.4966 134.018 44.5072C131.119 42.8371 128.368 48.5761 127.045 51.95C126.76 52.6692 126.379 52.9685 126.379 52.9685C126.422 57.4719 127.107 61.787 128.521 65.8849C130.291 65.4264 136.754 62.8151 138.401 62.0187C141.161 60.6913 144.141 58.7896 145.43 55.8549C147.149 51.95 144.859 46.3558 140.186 46.602H140.19Z" fill="#EA475B"/>
</g>
<path id="Vector_10" d="M54.9408 31.5803C46.0884 38.7481 43.5375 50.926 36.9078 50.9309C30.6778 50.6316 21.8398 43.7535 21.3686 43.1791C21.4591 54.7681 19.7457 66.9702 12.4307 68.0369C12.4307 68.0369 23.6293 72.6272 36.4461 70.5227C49.2629 68.4183 56.7112 55.1446 56.7112 55.1446C56.7112 55.1446 59.1289 27.5693 54.936 31.5755L54.9408 31.5803Z" fill="#EA475B"/>
<path id="Vector_11" d="M27.0666 46.6879C26.2718 44.8682 24.7869 43.4877 22.6071 42.9809C22.0217 42.7347 20.2084 42.5803 18.7473 43.8739C15.7632 45.6163 7.61056 59.0203 7.9104 65.9853C8.04842 69.1565 11.3419 70.6721 14.0071 71.2127C15.53 71.5216 17.2862 71.5988 18.6569 70.7493C20.1942 69.7985 21.3507 68.2877 22.3739 66.8203C22.393 66.7914 22.4168 66.7624 22.4358 66.7335C24.8963 63.1954 26.5907 58.9865 27.3664 54.7341C27.6663 53.093 27.8186 51.4229 27.7424 49.7529C27.6901 48.6572 27.4616 47.6194 27.0571 46.6927L27.0666 46.6879Z" fill="white"/>
<path id="Vector_12" d="M39.1632 56.3276L38.9252 56.3083C39.2013 53.1033 37.4879 50.9892 37.4736 50.9699L37.6545 50.8154C37.6545 50.8154 39.4487 53.0261 39.1632 56.3324V56.3276Z" fill="#561922"/>
<path id="Vector_13" d="M10.2315 67.3861C15.2859 70.0457 25.2519 46.9254 20.7829 44.8016C16.471 43.3246 6.9381 65.4651 10.2315 67.3861Z" fill="#5B1E27"/>
<g id="Group_3">
<path id="Vector_14" d="M18.3562 76.2034L18.3276 75.9428C18.1087 74.0893 17.1473 72.4482 15.7623 71.227C14.7296 70.3148 14.0204 69.026 13.8586 67.5394C13.6016 65.1936 14.7819 63.0167 16.6809 61.9162L12.1548 23.3792C12.031 22.3463 12.5926 21.4196 13.4065 21.3037L15.4244 21.0093C16.2668 20.8886 17.0616 21.6754 17.1711 22.7469L21.1261 61.4142C23.2202 62.061 24.8431 63.9193 25.1001 66.2699C25.2619 67.7566 24.8526 69.1708 24.0435 70.2906C22.9584 71.7966 22.373 73.6114 22.5634 75.4649L22.5919 75.7256C23.9769 76.3289 25.0097 77.6418 25.1905 79.2684C25.3714 80.9192 24.6242 82.4541 23.3725 83.347L32.7721 174.443C32.8768 175.485 32.3009 176.398 31.4823 176.489C30.659 176.581 29.9022 175.818 29.7785 174.781L19.2557 83.8152C17.8422 83.2264 16.7808 81.8942 16.6 80.2434C16.4191 78.6168 17.1473 77.1012 18.3657 76.2083L18.3562 76.2034Z" fill="#EDAC5F"/>
<path id="Vector_15" d="M16.7524 78.5058C16.6953 80.4799 18.2611 82.8209 21.188 82.4734C24.1341 82.1211 25.0907 79.3022 24.6528 77.6177C24.9289 78.1148 25.1192 78.6699 25.1859 79.2733C25.362 80.8902 24.6433 82.401 23.4344 83.2988L19.1701 83.7815C17.7947 83.1781 16.7667 81.8652 16.5906 80.2483C16.5239 79.6449 16.5906 79.0609 16.7524 78.5155V78.5058Z" fill="#DD9547"/>
<path id="Vector_16" d="M14.5828 64.0352C14.6779 64.3296 14.4114 70.421 19.8037 69.8804C25.196 69.3398 23.8586 63.2773 23.8586 63.2773C24.5249 64.1027 24.9771 65.126 25.1008 66.2699C25.2626 67.7566 24.8533 69.1708 24.0443 70.2906C22.9591 71.7966 22.3737 73.6115 22.5641 75.4649L22.5832 75.6435L18.3474 76.1214L18.3283 75.9428C18.1094 74.0893 17.148 72.4482 15.7631 71.227C14.7303 70.3148 14.0212 69.026 13.8593 67.5394C13.7213 66.2748 14.0021 65.0584 14.5875 64.0352H14.5828Z" fill="#DD9547"/>
<path id="Vector_17" d="M12.5882 33.9254L13.4592 33.8288C13.4592 33.8288 13.4877 33.7902 13.4687 33.7757C12.6548 33.0903 12.0742 32.0284 11.9362 30.7928L11.2413 24.4504C11.0129 22.3556 12.0504 20.338 13.7638 19.8312C15.9007 19.1989 18.0138 20.9944 18.2899 23.5044L19.0037 29.9964C19.1418 31.232 18.7991 32.4001 18.1566 33.2496C18.1423 33.2689 18.1566 33.3027 18.1804 33.2979L19.0513 33.2013C19.651 33.1338 20.265 33.5441 20.4506 34.2295C20.6885 35.1224 20.1841 35.9864 19.4416 36.0685L12.8357 36.8166C12.0932 36.8987 11.4127 36.1698 11.4555 35.2479C11.4888 34.5384 11.9933 34.0026 12.5977 33.935L12.5882 33.9254Z" fill="white"/>
<path id="Vector_18" d="M13.3832 33.8335C12.0316 32.8536 11.9364 30.7926 11.9364 30.7926L11.4604 26.4678C12.2172 33.3991 19.2895 32.6461 18.5233 25.6714L18.9992 29.9962C19.2324 32.1006 18.2425 33.288 18.2425 33.288L13.3784 33.8335H13.3832Z" fill="#F4E6DC"/>
<path id="Vector_19" d="M18.5409 36.1646L13.7197 36.71L13.8387 37.8008L18.6504 37.2554L18.5409 36.1646Z" fill="#DD9547"/>
<path id="Vector_20" d="M24.1489 83.0692C25.9981 81.2428 26.0373 78.242 24.2365 76.3665C22.4357 74.4911 19.4768 74.4513 17.6276 76.2776C15.7784 78.1039 15.7391 81.1048 17.5399 82.9802C19.3407 84.8557 22.2997 84.8955 24.1489 83.0692Z" fill="white"/>
<path id="Vector_21" d="M25.2761 78.0425C25.0619 80.4607 23.063 82.3576 20.6215 82.3576C18.6035 82.3576 16.8902 81.0592 16.2334 79.2443C16.2191 79.3843 16.2144 79.5243 16.2144 79.6691C16.2144 82.2852 18.3084 84.409 20.888 84.409C23.4675 84.409 25.5616 82.2852 25.5616 79.6691C25.5616 79.0947 25.4569 78.5493 25.2713 78.0425H25.2761Z" fill="#F4E6DC"/>
<path id="Vector_22" d="M20.2993 33.873C20.1471 34.5826 19.5521 35.1087 18.7859 35.1859L13.2889 35.7217C12.5226 35.7989 11.8326 35.4369 11.5422 34.7757C11.2852 35.1184 11.3804 36.856 12.7987 36.8222C12.7987 36.8222 19.2237 36.0934 19.4665 36.0644C19.8377 36.0354 21.0561 35.3983 20.2993 33.873Z" fill="#F4E6DC"/>
<path id="Vector_23" d="M16.7335 62.0223L16.624 61.8051C18.0994 61.0425 19.6224 60.8446 21.1549 61.2211L21.0978 61.4576C19.6224 61.0956 18.1565 61.2886 16.7335 62.0223Z" fill="#561922"/>
<g id="Group_4">
<path id="Vector_24" d="M26.9227 10.0189C27.4653 9.5314 27.0703 8.62397 26.3516 8.69637L17.6278 9.5845C17.3042 9.61829 16.9996 9.43487 16.8663 9.13561L13.3349 0.992845C13.0446 0.317097 12.0737 0.418459 11.9166 1.13765L10.051 9.82584C9.98437 10.1492 9.71785 10.3857 9.39422 10.4195L0.675176 11.3077C-0.0482377 11.3801 -0.252888 12.3502 0.370581 12.7171L7.94263 17.2011C8.22343 17.3653 8.36621 17.6983 8.29482 18.0169L6.42917 26.7051C6.27688 27.4242 7.11927 27.9214 7.65707 27.4339L14.2011 21.5163C14.4438 21.2991 14.796 21.2605 15.0768 21.4294L22.6489 25.9135C23.2771 26.2851 24.0053 25.6239 23.7102 24.9529L20.1836 16.8102C20.0551 16.5109 20.1264 16.1586 20.3692 15.9365L26.9132 10.0189H26.9227ZM18.613 12.3454L15.9287 14.7733C15.9287 14.7733 15.9097 14.8022 15.9192 14.8215L17.3661 18.1617C17.3803 18.2003 17.3423 18.2341 17.3089 18.2148L14.2011 16.3758C14.2011 16.3758 14.1678 16.3709 14.1535 16.3806L11.4693 18.8085C11.4407 18.8374 11.3931 18.8085 11.4026 18.7698L12.1689 15.2029C12.1689 15.2029 12.1689 15.1691 12.1499 15.1594L9.04203 13.3204C9.00871 13.3011 9.01823 13.248 9.05631 13.2432L12.6353 12.8812C12.6353 12.8812 12.6686 12.8667 12.6734 12.8474L13.4396 9.28041C13.4491 9.2418 13.5015 9.23697 13.5158 9.27076L14.9626 12.6109C14.9626 12.6109 14.9864 12.635 15.0054 12.635L18.5844 12.273C18.6225 12.273 18.6463 12.3165 18.6177 12.3454H18.613Z" fill="#EDAC5F"/>
<path id="Vector_25" d="M9.16232 23.4414C9.12901 23.4414 9.09569 23.4317 9.06238 23.4124C8.99099 23.369 8.95291 23.2821 8.97195 23.2L10.4188 16.4474L4.53152 12.9625C4.45537 12.919 4.42206 12.8321 4.43633 12.7501C4.45537 12.6632 4.522 12.6053 4.60767 12.5956L11.3897 11.9054L12.8365 5.15275C12.8555 5.06587 12.9222 5.00312 13.0078 4.99829C13.0935 4.98864 13.1744 5.03691 13.2077 5.11414L15.9491 11.442L22.7311 10.7518C22.8168 10.7422 22.8977 10.7904 22.931 10.8676C22.9643 10.9449 22.9453 11.0366 22.8834 11.0945L17.7957 15.6944L20.5371 22.0223C20.5704 22.0995 20.5513 22.1913 20.4895 22.2492C20.4276 22.3071 20.3324 22.3167 20.261 22.2733L14.3738 18.7884L9.28606 23.3883C9.24799 23.4221 9.2004 23.4366 9.15756 23.4366L9.16232 23.4414ZM4.76473 12.8128L10.5663 16.2495C10.6425 16.2929 10.6758 16.3798 10.6615 16.4619L9.23371 23.118L14.25 18.5857C14.3119 18.5277 14.4071 18.5181 14.4785 18.5615L20.2801 21.9982L17.5768 15.762C17.5435 15.6848 17.5625 15.5931 17.6244 15.5351L22.6407 10.998L15.9538 11.6785C15.8729 11.6882 15.7873 11.6399 15.754 11.5627L13.0507 5.32651L11.6229 11.9826C11.6038 12.0647 11.5372 12.1274 11.4515 12.1371L4.76473 12.8177V12.8128Z" fill="#561922"/>
</g>
</g>
<g id="Group_5">
<path id="Vector_26" d="M13.7774 41.5706C13.7774 41.5706 18.7508 40.7404 20.2786 43.733C21.8063 46.7256 23.0009 53.8885 22.4393 55.2303C21.8777 56.5722 16.3283 59.0049 16.3283 59.0049L16.4711 60.2357C16.4711 60.2357 11.5833 59.8978 10.6505 51.8757C10.1698 47.0538 10.4887 42.9848 13.7821 41.5706H13.7774Z" fill="#DD4B57"/>
<path id="Vector_27" d="M22.8813 43.3961C21.8723 41.8756 20.5826 41.4992 19.1167 41.7936L19.1786 42.5273C19.1786 42.5273 19.7782 49.6274 21.7581 48.7345C24.6137 47.7933 22.8813 43.3912 22.8813 43.3912V43.3961Z" fill="#DD4B57"/>
<path id="Vector_28" d="M21.3078 48.8839C20.3797 48.8839 19.7372 48.3337 19.3374 47.822C18.3903 46.6057 18.1048 44.6557 18.4951 43.8496L18.7092 43.9558C18.3475 44.6991 18.6331 46.5236 19.5278 47.6724C19.9609 48.2275 20.7129 48.8405 21.8361 48.5798L21.8884 48.8164C21.6838 48.8646 21.4934 48.8839 21.3078 48.8839Z" fill="#561922"/>
</g>
<g id="Group_6">
<path id="Vector_29" d="M86.747 35.5567C84.2912 31.536 80.8169 29.0889 76.524 29.0889H61.7844C57.4916 29.0889 54.022 31.536 51.5615 35.5567C48.0872 41.2716 30.3397 126.677 28.7358 148.267C30.1827 148.373 60.3614 158.089 108.968 147.876C107.155 117.665 90.2213 41.2716 86.747 35.5567Z" fill="#EA475B"/>
<path id="Vector_30" d="M29.0404 147.9C55.6258 153.195 81.959 150.497 108.673 145.675C109.135 145.593 109.568 145.95 109.634 146.471L110.819 155.546C110.881 156.019 110.629 156.506 110.21 156.598C82.692 162.733 55.3069 162.636 28.0695 156.588C27.6649 156.496 27.4174 156.038 27.4555 155.579L28.0552 148.735C28.1028 148.19 28.5549 147.803 29.0356 147.9H29.0404Z" fill="white"/>
<path id="Vector_31" d="M87.9512 33.8728C86.6377 32.3137 78.7515 29.0557 78.7515 29.0557L56.478 29.63C56.478 29.63 50.4003 33.2791 49.3105 35.3449C48.2777 37.2853 53.5748 59.5222 64.3165 62.1287C66.2964 62.6066 72.9166 62.3411 74.5205 61.9501C84.3056 59.9567 89.2648 35.4318 87.9512 33.8728Z" fill="white"/>
<path id="Vector_32" d="M58.014 149.033C47.6244 149.033 37.7869 148.03 28.7109 146.051L28.7633 145.814C38.7673 148.001 49.7137 148.99 61.2836 148.763L62.502 61.833H62.74L61.5168 149H61.4026C60.2699 149.024 59.1372 149.038 58.0187 149.038L58.014 149.033Z" fill="#561922"/>
<path id="Vector_33" d="M79.7358 148.248V148.122L75.3145 61.8387L75.5524 61.8242L79.9595 147.987C89.1307 147.166 98.2305 145.878 108.582 143.937L108.625 144.174C98.221 146.124 89.0784 147.417 79.8548 148.238L79.7311 148.248H79.7358Z" fill="#561922"/>
<path id="Vector_34" d="M64.2968 58.0054L63.7114 154.512L78.4938 153.793L73.5299 58.0054H64.2968Z" fill="white"/>
<path id="Vector_35" d="M69.1163 56.0327L68.8784 56.0376L70.9774 161.167L71.2153 161.162L69.1163 56.0327Z" fill="#561922"/>
<path id="Vector_36" d="M45.6305 54.6234L43.0684 68.2451L43.3021 68.2903L45.8643 54.6687L45.6305 54.6234Z" fill="#561922"/>
<path id="Vector_37" d="M93.4162 57.0968L93.1821 57.1401L94.7512 65.8531L94.9853 65.8098L93.4162 57.0968Z" fill="#561922"/>
</g>
<g id="Group_7">
<path id="Vector_38" d="M68.5198 45.6305C73.9835 45.6305 83.2736 43.2557 83.2736 37.7145C85.7818 35.8804 83.3355 25.1649 79.7089 19.7107C79.0855 18.2192 78.5048 17.167 78.2288 15.5693C77.4102 10.8487 73.3981 6.73633 68.5198 6.73633C63.6891 6.73633 59.9007 10.1006 59.0345 14.7536C58.7156 16.4671 57.9256 18.3254 57.2736 19.9375C53.4328 25.7248 51.1864 33.7518 53.0806 36.7926C53.0806 42.3338 63.0609 45.6256 68.5198 45.6256V45.6305Z" fill="white"/>
<path id="Vector_39" d="M68.52 33.9351H68.5248C73.1877 33.9351 76.9678 30.1014 76.9678 25.3724V15.9746C76.9678 11.2456 73.1877 7.41195 68.5248 7.41195H68.52C63.8571 7.41195 60.077 11.2456 60.077 15.9746V25.3724C60.077 30.1014 63.8571 33.9351 68.52 33.9351Z" fill="#FFBA9C"/>
<g id="Group_8">
<path id="Vector_40" d="M75.5264 17.6111C76.4164 16.8726 77.6824 16.4044 78.7247 17.1188C79.6956 17.7849 80.3286 19.1026 79.9526 20.2948C79.7241 21.0188 79.1958 21.4966 78.5533 21.8249C77.5348 22.3413 75.6216 22.7033 74.784 21.6415C74.665 21.4918 74.5841 21.3132 74.546 21.125C74.0986 18.8033 75.5217 17.6208 75.5264 17.6159V17.6111Z" fill="#FFBA9C"/>
<path id="Vector_41" d="M61.5087 17.6111C60.6187 16.8726 59.3527 16.4044 58.3104 17.1188C57.3395 17.7849 56.7066 19.1026 57.0825 20.2948C57.311 21.0188 57.8393 21.4966 58.4818 21.8249C59.5003 22.3413 61.4135 22.7033 62.2511 21.6415C62.3701 21.4918 62.451 21.3132 62.4891 21.125C62.9365 18.8033 61.5135 17.6208 61.5087 17.6159V17.6111Z" fill="#FFBA9C"/>
</g>
<path id="Vector_42" d="M75.9195 11.8672L74.7725 21.9503C76.4144 23.5673 77.1616 23.3597 77.5043 22.322C77.5043 22.322 75.8766 17.6304 77.7661 16.8388C79.6555 16.0472 75.9242 11.872 75.9242 11.872L75.9195 11.8672Z" fill="white"/>
<path id="Vector_43" d="M61.1051 11.8672L62.2521 21.9503C61.2622 22.8577 60.3389 23.1956 59.5203 22.6164C59.5203 22.6164 61.148 17.6304 59.2585 16.8388C57.8926 16.0617 61.1004 11.872 61.1004 11.872L61.1051 11.8672Z" fill="white"/>
<path id="Vector_44" d="M55.847 46.7083H81.6281C81.7756 46.2304 81.9517 45.7622 82.1516 45.3037L82.3801 45.9746C83.132 43.8846 83.5937 41.6885 83.746 39.4633C83.8983 39.7722 84.0506 40.0811 84.2076 40.3901C84.8359 33.5891 82.6085 27.7584 82.6085 27.7584C82.6085 27.7584 80.5144 28.2459 79.3008 26.4214C78.8629 25.7601 78.4965 25.1375 78.011 24.6113C77.8635 24.2879 77.7017 24.0032 77.5161 23.8101C77.5161 23.8101 73.4849 17.2457 68.5353 19.7749C62.8479 17.1636 59.5545 23.8101 59.5545 23.8101C59.5402 23.8294 59.5259 23.868 59.5164 23.8921C59.5116 23.9066 59.5069 23.9211 59.4973 23.9356C59.1832 24.0997 58.8739 24.2686 58.5788 24.4617C56.3657 25.9097 54.6381 27.8163 54.6381 27.8163C54.6381 27.8163 52.9152 32.7927 53.6006 38.8165C53.8147 38.2084 54.1431 37.6436 54.5524 37.1561C54.0194 40.3756 54.5001 43.7543 55.8517 46.7035L55.847 46.7083Z" fill="white"/>
<path id="Vector_45" d="M68.4869 16.5111C68.3489 16.7669 68.2204 17.0275 68.0966 17.2882C67.9776 17.5488 67.8682 17.8191 67.8111 18.0894C67.7397 18.3694 67.8111 18.5287 68.0109 18.7024C68.2013 18.8617 68.4583 18.9824 68.6963 19.0693L68.544 19.5085C68.2489 19.383 67.9872 19.2285 67.7492 18.9872C67.635 18.8665 67.5255 18.7169 67.4827 18.5287C67.4398 18.3356 67.4922 18.1522 67.5398 18.0122C67.6492 17.7178 67.7968 17.4668 67.9538 17.2109C68.1109 16.96 68.2822 16.7234 68.4631 16.4966L68.4869 16.5111Z" fill="#E28F71"/>
<path id="Vector_46" d="M59.9014 22.9742C60.3821 23.761 61.0579 24.4705 61.9003 24.8084C62.1097 24.8808 62.3334 24.9435 62.5428 24.9532C62.7474 24.9532 62.9616 24.876 63.1662 24.7891C63.5755 24.6008 63.9563 24.345 64.3228 24.0699C65.0557 23.5148 65.741 22.8922 66.4073 22.2454C66.7405 21.922 67.0641 21.5938 67.3877 21.2559L67.8684 20.7491L68.1064 20.4933L68.2254 20.3629L68.4015 20.165L68.5776 20.3629L68.6966 20.4933L68.9345 20.7491L69.4152 21.2559C69.7388 21.5889 70.0625 21.922 70.3956 22.2454C71.0619 22.8873 71.7473 23.5148 72.4802 24.0699C72.8467 24.345 73.2322 24.6008 73.6367 24.7891C73.8414 24.876 74.0555 24.9532 74.2602 24.9532C74.4696 24.9484 74.6933 24.8808 74.9027 24.8084C75.7403 24.4705 76.4161 23.761 76.9016 22.9742L76.9301 22.9887C76.4828 23.8093 75.8403 24.5622 74.9693 24.9725C74.7456 25.0642 74.5219 25.1414 74.2697 25.1656C74.0079 25.1752 73.7747 25.1028 73.5463 25.0208C73.0989 24.8422 72.6944 24.596 72.3041 24.3305C71.5236 23.7996 70.8002 23.2011 70.091 22.5833C69.7388 22.2743 69.3914 21.9558 69.0487 21.6372L68.5395 21.1497L68.4062 21.0194L68.273 21.1497L67.7637 21.6372C67.4211 21.9606 67.0784 22.2743 66.7214 22.5833C66.0171 23.2011 65.2889 23.7996 64.5084 24.3305C64.1181 24.5912 63.7136 24.8422 63.2662 25.0208C63.0425 25.1028 62.8045 25.1801 62.5428 25.1656C62.2858 25.1414 62.0668 25.0642 61.8432 24.9725C60.9674 24.5622 60.3297 23.8093 59.8823 22.9887L59.9109 22.9742H59.9014Z" fill="#E8D6CA"/>
<path id="Vector_47" d="M71.4711 14.7734L71.3664 14.8699C72.047 14.9085 72.7419 14.9471 73.3558 15.174C73.2463 15.1692 73.1369 15.1885 73.0417 15.2319C73.0417 15.2319 74.1744 15.7243 74.5218 16.371C74.3648 16.3035 74.1934 16.26 74.0126 16.2407C74.1934 16.5207 74.1649 16.9696 74.1649 16.9696C74.1649 16.9696 73.6652 16.8103 73.1464 16.8537C73.1464 16.9454 73.1559 17.042 73.1797 17.1288C72.5515 16.7958 71.7947 16.6172 71.038 16.6365L71.1998 16.5207C70.5669 16.5255 70.1766 16.6607 69.7958 16.8151C69.8387 16.6993 69.9339 16.5641 69.9005 16.3614C69.515 16.3228 69.2104 16.4628 69.2104 16.4628C69.2104 16.4628 69.477 15.0582 71.4664 14.7686L71.4711 14.7734Z" fill="white"/>
<path id="Vector_48" d="M64.9418 14.7539L65.0465 14.8504C64.366 14.889 63.6711 14.9276 63.0571 15.1545C63.1666 15.1496 63.2761 15.169 63.3713 15.2124C63.3713 15.2124 62.2385 15.7047 61.8911 16.3515C62.0482 16.2839 62.2195 16.2405 62.4004 16.2212C62.2195 16.5011 62.2481 16.95 62.2481 16.95C62.2481 16.95 62.7478 16.7907 63.2666 16.8342C63.2666 16.9259 63.257 17.0224 63.2332 17.1093C63.8615 16.7763 64.6182 16.5977 65.3749 16.617L65.2131 16.5011C65.8461 16.506 66.2364 16.6411 66.6219 16.7956C66.579 16.6797 66.4838 16.5446 66.5124 16.3419C66.8979 16.3032 67.2025 16.4432 67.2025 16.4432C67.2025 16.4432 66.936 15.0386 64.9466 14.749L64.9418 14.7539Z" fill="white"/>
<path id="Vector_49" d="M82.7838 27.6987C82.9932 30.4307 82.8076 33.2013 82.2222 35.8849C81.9414 37.2316 81.5321 38.5445 81.08 39.8381C80.6136 41.1268 80.0567 42.3818 79.438 43.6078C78.1911 46.0501 76.6634 48.3332 74.9214 50.4377C73.17 52.5325 71.2425 54.4777 69.0627 56.1332L69.0009 56.1815L68.9342 56.1429C66.526 54.6949 64.351 52.8993 62.3807 50.901C60.4199 48.8931 58.6875 46.6438 57.3215 44.1725C55.9556 41.706 54.9752 39.0127 54.485 36.2228C54.2375 34.8279 54.1328 33.4136 54.1328 31.9994C54.1471 30.5851 54.2899 29.1757 54.5421 27.7904C54.2137 30.5851 54.2137 33.4233 54.723 36.1842C55.2084 38.9451 56.1793 41.6143 57.531 44.0567C58.8826 46.5087 60.6007 48.7386 62.5473 50.7321C64.5033 52.7159 66.6736 54.5066 69.0485 55.9353H68.9247C71.0712 54.3135 72.9987 52.3732 74.7358 50.2928C76.4635 48.2029 77.9817 45.9294 79.2191 43.5064C79.8283 42.2901 80.3804 41.0448 80.8468 39.7657C81.2942 38.4817 81.6987 37.1785 81.9843 35.8415C82.5934 33.1819 82.8076 30.4452 82.7743 27.7084L82.7838 27.6987Z" fill="#E8D6CA"/>
<path id="Vector_50" d="M74.8975 20.8499C75.421 21.2892 75.954 21.8249 76.4871 22.409C76.0397 21.5691 75.5447 20.7968 74.9784 20.1211L74.8975 20.8499Z" fill="#E8D6CA"/>
<path id="Vector_51" d="M62.1047 20.6287C61.5812 21.068 61.0482 21.6038 60.5151 22.1878C60.9625 21.3479 61.4575 20.5757 62.0238 19.8999L62.1047 20.6287Z" fill="#E8D6CA"/>
<g id="Group_9">
<path id="Vector_52" d="M64.8415 17.7128C65.5506 17.7128 65.8505 18.2871 65.8505 18.2871C65.7362 17.8286 65.3269 17.4907 64.8415 17.4907C64.356 17.4907 63.9467 17.8286 63.8325 18.2871C63.8325 18.2871 64.1324 17.7128 64.8415 17.7128Z" fill="#5B1E27"/>
<path id="Vector_53" d="M65.8502 18.4123C65.8073 18.4123 65.7645 18.3881 65.7455 18.3495C65.7359 18.3302 65.4647 17.8379 64.8459 17.8379H64.8412C64.2177 17.8379 63.9464 18.3302 63.9369 18.3495C63.9084 18.4026 63.8465 18.4267 63.7894 18.4026C63.7323 18.3785 63.7037 18.3206 63.718 18.2626C63.8513 17.7413 64.3129 17.3745 64.8412 17.3745C65.3695 17.3745 65.8311 17.7413 65.9644 18.2626C65.9787 18.3206 65.9501 18.3833 65.893 18.4026C65.8787 18.4074 65.8644 18.4123 65.8502 18.4123Z" fill="#5B1E27"/>
</g>
<g id="Group_10">
<path id="Vector_54" d="M71.9431 17.7128C72.6522 17.7128 72.952 18.2871 72.952 18.2871C72.8378 17.8286 72.4285 17.4907 71.9431 17.4907C71.4576 17.4907 71.0483 17.8286 70.9341 18.2871C70.9341 18.2871 71.2339 17.7128 71.9431 17.7128Z" fill="#5B1E27"/>
<path id="Vector_55" d="M72.9512 18.4123C72.9084 18.4123 72.8656 18.3881 72.8465 18.3495C72.837 18.3302 72.5705 17.8379 71.947 17.8379H71.9423C71.3188 17.8379 71.0475 18.3302 71.038 18.3495C71.0094 18.4026 70.9428 18.4267 70.8905 18.4026C70.8333 18.3785 70.8048 18.3206 70.8191 18.2626C70.9523 17.7413 71.414 17.3745 71.9423 17.3745C72.4705 17.3745 72.9322 17.7413 73.0655 18.2626C73.0797 18.3206 73.0512 18.3833 72.9941 18.4026C72.9798 18.4074 72.9655 18.4123 72.9512 18.4123Z" fill="#5B1E27"/>
</g>
<path id="Vector_56" d="M75.3027 5.33236C72.7565 3.43061 68.911 2.47491 65.3986 3.08791C64.561 3.23272 63.7566 3.48371 63.0523 3.86502C61.9386 4.45872 61.0248 5.26479 60.4156 6.19153C59.8064 7.11344 59.183 8.3684 59.8683 9.35789C60.2062 9.84539 60.8154 10.1881 61.4389 10.4584C62.5668 10.9507 63.7995 11.2741 65.0512 11.5396C66.8787 11.9257 68.7634 12.196 70.6576 12.1864C72.5518 12.1767 74.4698 11.8871 76.1451 11.2162C76.6496 11.0135 77.1588 10.7577 77.5015 10.4053C77.8965 9.99502 78.2916 10.164 78.1345 9.69576C77.9108 7.99191 76.8495 6.49079 75.3027 5.33719V5.33236Z" fill="#DD4B57"/>
<path id="Vector_57" d="M59.6733 14.6246C59.4448 14.6874 59.1973 14.7549 58.9689 14.6825C58.6453 14.5812 58.4692 14.2385 58.3502 13.9247C57.76 12.3609 57.4697 10.4881 57.9599 8.86627C58.1693 8.17604 58.5786 7.34101 59.264 7.02727C60.0445 6.66526 60.925 6.54459 61.7816 6.51563C63.0809 6.47219 64.3897 6.48667 65.6843 6.53494C67.6165 6.60734 69.5441 6.79076 71.4573 7.09002C73.4848 7.40376 75.5027 7.80438 77.4207 8.53322C77.7967 8.67803 78.1727 8.83248 78.4916 9.07382C79.115 9.53719 79.3197 10.3191 79.491 11.0431C79.8194 12.4429 79.767 13.9296 79.3435 15.3004C78.8247 16.9704 77.6016 16.0678 76.4688 15.6093C75.1791 15.088 73.8465 14.668 72.4901 14.3591C69.7773 13.7413 66.9645 13.5482 64.1898 13.8041C62.6621 13.944 61.1487 14.2192 59.6733 14.6294V14.6246Z" fill="white"/>
<g id="Group_11">
<path id="Vector_58" d="M68.6152 13.5385C68.7009 13.5385 68.7722 13.4661 68.7722 13.3792V7.63536C68.7722 7.54848 68.7056 7.47607 68.6199 7.47607C68.5343 7.47607 68.4629 7.54848 68.4629 7.63536V13.3792C68.4629 13.4661 68.5295 13.5385 68.6152 13.5385Z" fill="#E8D6CA"/>
<g id="Group_12">
<path id="Vector_59" d="M68.5059 8.55634C68.5677 8.61909 68.6629 8.61909 68.7248 8.55634L69.3768 7.89507C69.4387 7.83232 69.4387 7.73579 69.3768 7.67304C69.315 7.61029 69.2198 7.61029 69.1579 7.67304L68.5059 8.33431C68.444 8.39705 68.444 8.49359 68.5059 8.55634Z" fill="#E8D6CA"/>
<path id="Vector_60" d="M68.7245 8.55634C68.6626 8.61909 68.5627 8.61909 68.5056 8.55634L67.8535 7.89507C67.7917 7.83232 67.7917 7.73096 67.8535 7.67304C67.9154 7.61029 68.0106 7.61029 68.0725 7.67304L68.7245 8.33431C68.7863 8.39705 68.7863 8.49842 68.7245 8.55634Z" fill="#E8D6CA"/>
</g>
<g id="Group_13">
<path id="Vector_61" d="M68.7289 12.3737C68.667 12.311 68.5718 12.311 68.5099 12.3737L67.8579 13.035C67.7961 13.0977 67.7961 13.1943 67.8579 13.257C67.9198 13.3198 68.015 13.3198 68.0769 13.257L68.7289 12.5958C68.7908 12.533 68.7908 12.4365 68.7289 12.3737Z" fill="#E8D6CA"/>
<path id="Vector_62" d="M68.5049 12.3737C68.5668 12.311 68.6667 12.311 68.7238 12.3737L69.3759 13.035C69.4377 13.0977 69.4377 13.1991 69.3759 13.257C69.314 13.3198 69.214 13.3198 69.1569 13.257L68.5049 12.5958C68.443 12.533 68.443 12.4316 68.5049 12.3737Z" fill="#E8D6CA"/>
</g>
<g id="Group_14">
<g id="Group_15">
<path id="Vector_63" d="M66.6913 10.6174C66.7532 10.5546 66.7532 10.4581 66.6913 10.3953L66.0393 9.73407C65.9774 9.67132 65.8822 9.67132 65.8203 9.73407C65.7585 9.79682 65.7585 9.89336 65.8203 9.9561L66.4724 10.6174C66.5342 10.6801 66.6294 10.6801 66.6913 10.6174Z" fill="#E8D6CA"/>
<path id="Vector_64" d="M66.6913 10.3952C66.7532 10.458 66.7532 10.5593 66.6913 10.6172L66.0393 11.2785C65.9774 11.3413 65.8774 11.3413 65.8203 11.2785C65.7585 11.2158 65.7585 11.1144 65.8203 11.0565L66.4724 10.3952C66.5342 10.3325 66.6342 10.3325 66.6913 10.3952Z" fill="#E8D6CA"/>
</g>
<g id="Group_16">
<path id="Vector_65" d="M70.5376 10.3947C70.4757 10.4575 70.4757 10.554 70.5376 10.6167L71.1896 11.278C71.2515 11.3408 71.3467 11.3408 71.4086 11.278C71.4704 11.2153 71.4704 11.1187 71.4086 11.056L70.7565 10.3947C70.6947 10.332 70.5995 10.332 70.5376 10.3947Z" fill="#E8D6CA"/>
<path id="Vector_66" d="M70.5376 10.6232C70.4757 10.5605 70.4757 10.4591 70.5376 10.4012L71.1896 9.73993C71.2515 9.67718 71.3514 9.67718 71.4086 9.73993C71.4704 9.80268 71.4704 9.90404 71.4086 9.96196L70.7565 10.6232C70.6947 10.686 70.5947 10.686 70.5376 10.6232Z" fill="#E8D6CA"/>
</g>
</g>
<g id="Group_17">
<g id="Group_18">
<path id="Vector_67" d="M67.1782 9.20809C67.2638 9.20809 67.3352 9.13568 67.3352 9.0488V8.11241C67.3352 8.02553 67.2638 7.95312 67.1829 7.95312C67.0973 7.95312 67.0259 8.02553 67.0259 8.11241V9.0488C67.0259 9.13568 67.0973 9.20809 67.1782 9.20809Z" fill="#E8D6CA"/>
<path id="Vector_68" d="M67.3351 9.04942C67.3351 9.1363 67.2637 9.2087 67.178 9.2087H66.2547C66.169 9.2087 66.0977 9.1363 66.0977 9.04942C66.0977 8.96254 66.169 8.89014 66.2547 8.89014H67.178C67.2637 8.89014 67.3351 8.96254 67.3351 9.04942Z" fill="#E8D6CA"/>
</g>
<g id="Group_19">
<path id="Vector_69" d="M70.0531 11.8105C69.9674 11.8105 69.896 11.8829 69.896 11.9698V12.9062C69.896 12.9931 69.9674 13.0655 70.0483 13.0655C70.134 13.0655 70.2053 12.9931 70.2053 12.9062V11.9698C70.2053 11.8829 70.134 11.8105 70.0531 11.8105Z" fill="#E8D6CA"/>
<path id="Vector_70" d="M69.896 11.9645C69.896 11.8776 69.9674 11.8052 70.0531 11.8052H70.9764C71.062 11.8052 71.1334 11.8776 71.1334 11.9645C71.1334 12.0513 71.062 12.1237 70.9764 12.1237H70.0531C69.9674 12.1237 69.896 12.0513 69.896 11.9645Z" fill="#E8D6CA"/>
</g>
</g>
<g id="Group_20">
<g id="Group_21">
<path id="Vector_71" d="M67.3351 11.9645C67.3351 11.8776 67.2637 11.8052 67.178 11.8052H66.2547C66.169 11.8052 66.0977 11.8776 66.0977 11.9596C66.0977 12.0465 66.169 12.1189 66.2547 12.1189H67.178C67.2637 12.1189 67.3351 12.0465 67.3351 11.9645Z" fill="#E8D6CA"/>
<path id="Vector_72" d="M67.178 11.8052C67.2637 11.8052 67.3351 11.8776 67.3351 11.9645V12.9009C67.3351 12.9877 67.2637 13.0601 67.178 13.0601C67.0924 13.0601 67.021 12.9877 67.021 12.9009V11.9645C67.021 11.8776 67.0924 11.8052 67.178 11.8052Z" fill="#E8D6CA"/>
</g>
<g id="Group_22">
<path id="Vector_73" d="M69.896 9.04948C69.896 9.13636 69.9674 9.20876 70.0531 9.20876H70.9764C71.062 9.20876 71.1334 9.13636 71.1334 9.0543C71.1334 8.96742 71.062 8.89502 70.9764 8.89502H70.0531C69.9674 8.89502 69.896 8.96742 69.896 9.04948Z" fill="#E8D6CA"/>
<path id="Vector_74" d="M70.0531 9.20809C69.9674 9.20809 69.896 9.13568 69.896 9.0488V8.11241C69.896 8.02553 69.9674 7.95312 70.0531 7.95312C70.1387 7.95312 70.2101 8.02553 70.2101 8.11241V9.0488C70.2101 9.13568 70.1387 9.20809 70.0531 9.20809Z" fill="#E8D6CA"/>
</g>
</g>
<path id="Vector_75" d="M71.6046 10.5108C71.6046 10.424 71.5332 10.3516 71.4476 10.3516H65.784C65.6983 10.3516 65.627 10.4191 65.627 10.506C65.627 10.5929 65.6983 10.6653 65.784 10.6653H71.4476C71.5332 10.6653 71.6046 10.5977 71.6046 10.5108Z" fill="#E8D6CA"/>
<path id="Vector_76" d="M70.7288 12.6496C70.7907 12.5869 70.7907 12.4904 70.7288 12.4276L66.7263 8.36347C66.6644 8.30072 66.5692 8.30072 66.5073 8.36347C66.4455 8.42622 66.4455 8.52275 66.5073 8.5855L70.5099 12.6496C70.5718 12.7124 70.667 12.7124 70.7288 12.6496Z" fill="#E8D6CA"/>
<path id="Vector_77" d="M70.7336 8.36835C70.6717 8.3056 70.5765 8.3056 70.5147 8.36835L66.5073 12.4277C66.4455 12.4904 66.4455 12.5869 66.5073 12.6497C66.5692 12.7124 66.6644 12.7124 66.7263 12.6497L70.7336 8.59038C70.7955 8.52763 70.7955 8.4311 70.7336 8.36835Z" fill="#E8D6CA"/>
</g>
<path id="Vector_78" d="M59.2202 18.1855C58.7395 18.2048 58.2684 18.615 58.2446 19.0543C58.2303 19.2715 58.3255 19.4839 58.4682 19.6625C58.6063 19.8459 58.8062 19.9907 59.0013 20.1355L58.7157 20.5216C58.5111 20.3334 58.3064 20.1403 58.1541 19.8845C58.0018 19.6431 57.8971 19.3246 57.959 19.0205C58.0161 18.7164 58.216 18.4702 58.4445 18.3158C58.6729 18.1613 58.9489 18.0696 59.225 18.0986L59.2155 18.1951L59.2202 18.1855Z" fill="#E28F71"/>
<path id="Vector_79" d="M77.6205 18.0897C77.8965 18.0608 78.1726 18.1525 78.401 18.3069C78.6295 18.4614 78.8293 18.7076 78.8865 19.0116C78.9483 19.3206 78.8436 19.6343 78.6913 19.8756C78.5438 20.1315 78.3344 20.3245 78.1297 20.5128L77.8442 20.1266C78.0393 19.9867 78.2392 19.8418 78.3772 19.6536C78.52 19.475 78.6199 19.2626 78.6009 19.0454C78.5771 18.6062 78.1059 18.1911 77.6252 18.1766L77.6157 18.0801L77.6205 18.0897Z" fill="#E28F71"/>
<path id="Vector_80" d="M57.298 34.0318C55.3181 29.3064 56.8458 22.7082 56.8601 22.6406L57.0933 22.6985C57.0791 22.7661 55.5656 29.2871 57.5169 33.9401L57.298 34.0366V34.0318Z" fill="#E8D6CA"/>
<path id="Vector_81" d="M76.0683 41.9523L75.897 41.7882C75.9303 41.7496 79.3475 38.0619 80.3041 33.3462L80.5373 33.3945C79.5712 38.1778 76.1064 41.9137 76.0731 41.9523H76.0683Z" fill="#E8D6CA"/>
<path id="Vector_82" d="M59.197 14.8463C59.078 14.8463 59.0066 14.8173 58.9971 14.8125L59.0923 14.5905C59.0923 14.5905 59.1874 14.6291 59.3493 14.5856C59.5634 14.5326 61.3482 14.0981 61.3482 14.0981L61.4053 14.3347C61.4053 14.3347 59.6205 14.7691 59.4064 14.8222C59.3255 14.8415 59.2541 14.8511 59.197 14.8511V14.8463Z" fill="#E8D6CA"/>
<path id="Vector_83" d="M78.3246 16.3859C78.1675 16.3859 77.9962 16.357 77.8011 16.2991L75.4976 15.3627L75.588 15.1406L77.882 16.0722C78.0628 16.1253 78.2294 16.1494 78.3722 16.1446L78.3817 16.3859C78.3817 16.3859 78.3436 16.3859 78.3246 16.3859Z" fill="#E8D6CA"/>
<path id="Vector_84" d="M68.3875 22.2894C67.9734 22.2894 67.5593 22.1301 67.231 21.8163L67.3928 21.6426C67.9544 22.1832 68.811 22.1832 69.3822 21.6426L69.544 21.8212C69.2108 22.1349 68.7968 22.2942 68.3827 22.2942L68.3875 22.2894Z" fill="#E8D6CA"/>
</g>
</g>
</svg>
