<svg width="133" height="55" viewBox="0 0 133 55" fill="none" xmlns="http://www.w3.org/2000/svg">
<mask id="path-1-outside-1_40_141" maskUnits="userSpaceOnUse" x="0" y="0" width="133" height="55" fill="black">
<rect fill="white" width="133" height="55"/>
<path d="M51.1125 48.84C51.5776 48.9253 51.9793 49.16 52.3175 49.544C52.6558 49.928 52.8249 50.3547 52.8249 50.824C52.8249 51.4213 52.6135 51.912 52.1907 52.296C51.8101 52.7227 51.3239 52.936 50.7319 52.936C50.1399 52.936 49.6537 52.7227 49.2731 52.296C48.8926 51.912 48.7023 51.4213 48.7023 50.824C48.7023 50.3547 48.8503 49.928 49.1463 49.544C49.4422 49.16 49.8228 48.9253 50.2879 48.84V46.28C49.7805 46.0667 49.5268 45.6827 49.5268 45.128C49.5268 44.9147 49.5902 44.7013 49.7171 44.488C49.8862 44.2747 50.0765 44.1253 50.2879 44.04V6.728L27.4125 28.808L4.47359 6.728V44.04C4.72729 44.1253 4.91757 44.2747 5.04442 44.488C5.17127 44.7013 5.2347 44.9147 5.2347 45.128C5.2347 45.7253 4.981 46.1093 4.47359 46.28V48.84C4.93871 48.9253 5.31927 49.16 5.61525 49.544C5.95352 49.928 6.12266 50.3547 6.12266 50.824C6.12266 51.4213 5.93238 51.912 5.55183 52.296C5.17127 52.7227 4.68501 52.936 4.09304 52.936C3.50107 52.936 2.99367 52.7227 2.57083 52.296C2.19028 51.912 2 51.4213 2 50.824C2 50.3547 2.16913 49.928 2.5074 49.544C2.84567 49.16 3.24737 48.9253 3.71249 48.84V46.28C3.1628 46.0667 2.88796 45.6827 2.88796 45.128C2.88796 44.9147 2.95138 44.7013 3.07823 44.488C3.24737 44.2747 3.45879 44.1253 3.71249 44.04V5L27.4125 27.72L51.1125 5V44.04C51.3662 44.1253 51.5564 44.2747 51.6833 44.488C51.8524 44.7013 51.937 44.9147 51.937 45.128C51.937 45.6827 51.6621 46.0667 51.1125 46.28V48.84ZM59.6421 48.968C60.1072 49.0533 60.4878 49.288 60.7838 49.672C61.122 50.0133 61.2912 50.4187 61.2912 50.888C61.2912 51.4427 61.0798 51.9333 60.6569 52.36C60.2764 52.7867 59.7901 53 59.1981 53C58.6062 53 58.1199 52.7867 57.7394 52.36C57.3588 51.9333 57.1685 51.4427 57.1685 50.888C57.1685 50.4187 57.3165 50.0133 57.6125 49.672C57.9508 49.288 58.3736 49.0533 58.881 48.968V46.472C58.3313 46.3013 58.0565 45.9387 58.0565 45.384C58.0565 45.128 58.0988 44.8933 58.1833 44.68C58.3102 44.424 58.5428 44.2533 58.881 44.168V16.328H59.6421V44.168C59.8535 44.2533 60.0227 44.424 60.1495 44.68C60.3187 44.8933 60.4032 45.128 60.4032 45.384C60.4032 45.64 60.3187 45.8747 60.1495 46.088C60.0227 46.2587 59.8535 46.3867 59.6421 46.472V48.968ZM59.1981 10.952C58.6062 10.952 58.1199 10.76 57.7394 10.376C57.3588 9.992 57.1685 9.52267 57.1685 8.968C57.1685 8.37067 57.3588 7.87999 57.7394 7.49599C58.1199 7.06933 58.6062 6.856 59.1981 6.856C59.7901 6.856 60.2764 7.06933 60.6569 7.49599C61.0798 7.87999 61.2912 8.37067 61.2912 8.968C61.2912 9.52267 61.0798 9.992 60.6569 10.376C60.2764 10.76 59.7901 10.952 59.1981 10.952ZM71.5138 16.776V44.168C72.0212 44.3813 72.2749 44.7867 72.2749 45.384C72.2749 45.896 72.0212 46.2587 71.5138 46.472V48.968C72.0212 49.0533 72.444 49.288 72.7823 49.672C73.1206 50.0133 73.2897 50.4187 73.2897 50.888C73.2897 51.4427 73.0571 51.9333 72.592 52.36C72.1692 52.7867 71.6829 53 71.1332 53C70.5835 53 70.0973 52.7867 69.6744 52.36C69.2939 51.9333 69.1036 51.4427 69.1036 50.888C69.1036 50.4187 69.2516 50.0133 69.5476 49.672C69.8859 49.288 70.2664 49.0533 70.6893 48.968V46.472C70.1818 46.2587 69.9282 45.896 69.9282 45.384C69.9282 44.7867 70.1818 44.3813 70.6893 44.168V16.776H62.9513V15.88H70.6893V6.856H71.5138V15.88H79.2517V16.776H71.5138ZM88.4452 16.776V44.168C88.9526 44.3813 89.2063 44.7867 89.2063 45.384C89.2063 45.896 88.9526 46.2587 88.4452 46.472V48.968C88.9526 49.0533 89.3755 49.288 89.7137 49.672C90.052 50.0133 90.2211 50.4187 90.2211 50.888C90.2211 51.4427 89.9886 51.9333 89.5235 52.36C89.1006 52.7867 88.6144 53 88.0647 53C87.515 53 87.0287 52.7867 86.6059 52.36C86.2253 51.9333 86.0351 51.4427 86.0351 50.888C86.0351 50.4187 86.1831 50.0133 86.479 49.672C86.8173 49.288 87.1979 49.0533 87.6207 48.968V46.472C87.1133 46.2587 86.8596 45.896 86.8596 45.384C86.8596 44.7867 87.1133 44.3813 87.6207 44.168V16.776H79.8828V15.88H87.6207V6.856H88.4452V15.88H96.1831V16.776H88.4452ZM112.797 15.176C115.334 15.176 117.702 15.6667 119.901 16.648C122.099 17.6293 124.023 18.952 125.672 20.616C127.321 22.28 128.611 24.2427 129.541 26.504C130.514 28.7227 131 31.112 131 33.672C131 36.1893 130.514 38.5573 129.541 40.776C128.611 42.9947 127.321 44.936 125.672 46.6C124.023 48.264 122.099 49.5867 119.901 50.568C117.702 51.5067 115.334 51.976 112.797 51.976C110.471 51.976 108.273 51.5707 106.201 50.76C104.129 49.9067 102.289 48.7547 100.683 47.304C99.0759 45.8107 97.7439 44.0613 96.6868 42.056C95.672 40.0507 95.0378 37.896 94.7841 35.592C94.1921 35.5067 93.727 35.2507 93.3887 34.824C93.0504 34.3547 92.9236 33.8213 93.0082 33.224C93.0927 32.7973 93.3041 32.4347 93.6424 32.136C93.9807 31.8373 94.3612 31.6667 94.7841 31.624C94.8263 31.1547 94.8898 30.7067 94.9743 30.28C95.0589 29.8533 95.1435 29.4053 95.228 28.936C94.9321 28.7653 94.7841 28.4027 94.7841 27.848C94.9532 27.2933 95.3126 27.016 95.8623 27.016C96.5388 25.3093 97.4268 23.7307 98.5262 22.28C99.6678 20.8293 100.979 19.5707 102.459 18.504C103.938 17.4373 105.545 16.6267 107.279 16.072C109.055 15.4747 110.894 15.176 112.797 15.176ZM112.797 51.144C115.207 51.144 117.448 50.696 119.52 49.8C121.634 48.8613 123.474 47.6027 125.038 46.024C126.645 44.4453 127.892 42.5893 128.78 40.456C129.71 38.3227 130.175 36.0613 130.175 33.672C130.175 31.24 129.71 28.9573 128.78 26.824C127.892 24.6907 126.645 22.8347 125.038 21.256C123.474 19.6347 121.634 18.376 119.52 17.48C117.448 16.5413 115.207 16.072 112.797 16.072C110.979 16.072 109.224 16.3493 107.533 16.904C105.884 17.4587 104.361 18.2267 102.966 19.208C101.571 20.1893 100.344 21.3627 99.2873 22.728C98.2302 24.0933 97.3845 25.5867 96.7503 27.208C97.0462 27.5067 97.1731 27.8693 97.1308 28.296C97.0462 28.552 96.8982 28.7867 96.6868 29C96.4754 29.1707 96.264 29.256 96.0526 29.256C95.968 29.64 95.8834 30.0453 95.7989 30.472C95.7143 30.856 95.6297 31.2613 95.5452 31.688C96.0103 31.816 96.3908 32.0933 96.6868 32.52C96.9828 32.9467 97.0885 33.4373 97.004 33.992C96.9617 34.4187 96.7925 34.76 96.4966 35.016C96.2006 35.272 95.8834 35.4427 95.5452 35.528C95.7989 37.704 96.412 39.752 97.3845 41.672C98.3993 43.5493 99.6678 45.192 101.19 46.6C102.755 48.008 104.509 49.1173 106.454 49.928C108.442 50.7387 110.556 51.144 112.797 51.144Z"/>
</mask>
<path d="M51.1125 48.84C51.5776 48.9253 51.9793 49.16 52.3175 49.544C52.6558 49.928 52.8249 50.3547 52.8249 50.824C52.8249 51.4213 52.6135 51.912 52.1907 52.296C51.8101 52.7227 51.3239 52.936 50.7319 52.936C50.1399 52.936 49.6537 52.7227 49.2731 52.296C48.8926 51.912 48.7023 51.4213 48.7023 50.824C48.7023 50.3547 48.8503 49.928 49.1463 49.544C49.4422 49.16 49.8228 48.9253 50.2879 48.84V46.28C49.7805 46.0667 49.5268 45.6827 49.5268 45.128C49.5268 44.9147 49.5902 44.7013 49.7171 44.488C49.8862 44.2747 50.0765 44.1253 50.2879 44.04V6.728L27.4125 28.808L4.47359 6.728V44.04C4.72729 44.1253 4.91757 44.2747 5.04442 44.488C5.17127 44.7013 5.2347 44.9147 5.2347 45.128C5.2347 45.7253 4.981 46.1093 4.47359 46.28V48.84C4.93871 48.9253 5.31927 49.16 5.61525 49.544C5.95352 49.928 6.12266 50.3547 6.12266 50.824C6.12266 51.4213 5.93238 51.912 5.55183 52.296C5.17127 52.7227 4.68501 52.936 4.09304 52.936C3.50107 52.936 2.99367 52.7227 2.57083 52.296C2.19028 51.912 2 51.4213 2 50.824C2 50.3547 2.16913 49.928 2.5074 49.544C2.84567 49.16 3.24737 48.9253 3.71249 48.84V46.28C3.1628 46.0667 2.88796 45.6827 2.88796 45.128C2.88796 44.9147 2.95138 44.7013 3.07823 44.488C3.24737 44.2747 3.45879 44.1253 3.71249 44.04V5L27.4125 27.72L51.1125 5V44.04C51.3662 44.1253 51.5564 44.2747 51.6833 44.488C51.8524 44.7013 51.937 44.9147 51.937 45.128C51.937 45.6827 51.6621 46.0667 51.1125 46.28V48.84ZM59.6421 48.968C60.1072 49.0533 60.4878 49.288 60.7838 49.672C61.122 50.0133 61.2912 50.4187 61.2912 50.888C61.2912 51.4427 61.0798 51.9333 60.6569 52.36C60.2764 52.7867 59.7901 53 59.1981 53C58.6062 53 58.1199 52.7867 57.7394 52.36C57.3588 51.9333 57.1685 51.4427 57.1685 50.888C57.1685 50.4187 57.3165 50.0133 57.6125 49.672C57.9508 49.288 58.3736 49.0533 58.881 48.968V46.472C58.3313 46.3013 58.0565 45.9387 58.0565 45.384C58.0565 45.128 58.0988 44.8933 58.1833 44.68C58.3102 44.424 58.5428 44.2533 58.881 44.168V16.328H59.6421V44.168C59.8535 44.2533 60.0227 44.424 60.1495 44.68C60.3187 44.8933 60.4032 45.128 60.4032 45.384C60.4032 45.64 60.3187 45.8747 60.1495 46.088C60.0227 46.2587 59.8535 46.3867 59.6421 46.472V48.968ZM59.1981 10.952C58.6062 10.952 58.1199 10.76 57.7394 10.376C57.3588 9.992 57.1685 9.52267 57.1685 8.968C57.1685 8.37067 57.3588 7.87999 57.7394 7.49599C58.1199 7.06933 58.6062 6.856 59.1981 6.856C59.7901 6.856 60.2764 7.06933 60.6569 7.49599C61.0798 7.87999 61.2912 8.37067 61.2912 8.968C61.2912 9.52267 61.0798 9.992 60.6569 10.376C60.2764 10.76 59.7901 10.952 59.1981 10.952ZM71.5138 16.776V44.168C72.0212 44.3813 72.2749 44.7867 72.2749 45.384C72.2749 45.896 72.0212 46.2587 71.5138 46.472V48.968C72.0212 49.0533 72.444 49.288 72.7823 49.672C73.1206 50.0133 73.2897 50.4187 73.2897 50.888C73.2897 51.4427 73.0571 51.9333 72.592 52.36C72.1692 52.7867 71.6829 53 71.1332 53C70.5835 53 70.0973 52.7867 69.6744 52.36C69.2939 51.9333 69.1036 51.4427 69.1036 50.888C69.1036 50.4187 69.2516 50.0133 69.5476 49.672C69.8859 49.288 70.2664 49.0533 70.6893 48.968V46.472C70.1818 46.2587 69.9282 45.896 69.9282 45.384C69.9282 44.7867 70.1818 44.3813 70.6893 44.168V16.776H62.9513V15.88H70.6893V6.856H71.5138V15.88H79.2517V16.776H71.5138ZM88.4452 16.776V44.168C88.9526 44.3813 89.2063 44.7867 89.2063 45.384C89.2063 45.896 88.9526 46.2587 88.4452 46.472V48.968C88.9526 49.0533 89.3755 49.288 89.7137 49.672C90.052 50.0133 90.2211 50.4187 90.2211 50.888C90.2211 51.4427 89.9886 51.9333 89.5235 52.36C89.1006 52.7867 88.6144 53 88.0647 53C87.515 53 87.0287 52.7867 86.6059 52.36C86.2253 51.9333 86.0351 51.4427 86.0351 50.888C86.0351 50.4187 86.1831 50.0133 86.479 49.672C86.8173 49.288 87.1979 49.0533 87.6207 48.968V46.472C87.1133 46.2587 86.8596 45.896 86.8596 45.384C86.8596 44.7867 87.1133 44.3813 87.6207 44.168V16.776H79.8828V15.88H87.6207V6.856H88.4452V15.88H96.1831V16.776H88.4452ZM112.797 15.176C115.334 15.176 117.702 15.6667 119.901 16.648C122.099 17.6293 124.023 18.952 125.672 20.616C127.321 22.28 128.611 24.2427 129.541 26.504C130.514 28.7227 131 31.112 131 33.672C131 36.1893 130.514 38.5573 129.541 40.776C128.611 42.9947 127.321 44.936 125.672 46.6C124.023 48.264 122.099 49.5867 119.901 50.568C117.702 51.5067 115.334 51.976 112.797 51.976C110.471 51.976 108.273 51.5707 106.201 50.76C104.129 49.9067 102.289 48.7547 100.683 47.304C99.0759 45.8107 97.7439 44.0613 96.6868 42.056C95.672 40.0507 95.0378 37.896 94.7841 35.592C94.1921 35.5067 93.727 35.2507 93.3887 34.824C93.0504 34.3547 92.9236 33.8213 93.0082 33.224C93.0927 32.7973 93.3041 32.4347 93.6424 32.136C93.9807 31.8373 94.3612 31.6667 94.7841 31.624C94.8263 31.1547 94.8898 30.7067 94.9743 30.28C95.0589 29.8533 95.1435 29.4053 95.228 28.936C94.9321 28.7653 94.7841 28.4027 94.7841 27.848C94.9532 27.2933 95.3126 27.016 95.8623 27.016C96.5388 25.3093 97.4268 23.7307 98.5262 22.28C99.6678 20.8293 100.979 19.5707 102.459 18.504C103.938 17.4373 105.545 16.6267 107.279 16.072C109.055 15.4747 110.894 15.176 112.797 15.176ZM112.797 51.144C115.207 51.144 117.448 50.696 119.52 49.8C121.634 48.8613 123.474 47.6027 125.038 46.024C126.645 44.4453 127.892 42.5893 128.78 40.456C129.71 38.3227 130.175 36.0613 130.175 33.672C130.175 31.24 129.71 28.9573 128.78 26.824C127.892 24.6907 126.645 22.8347 125.038 21.256C123.474 19.6347 121.634 18.376 119.52 17.48C117.448 16.5413 115.207 16.072 112.797 16.072C110.979 16.072 109.224 16.3493 107.533 16.904C105.884 17.4587 104.361 18.2267 102.966 19.208C101.571 20.1893 100.344 21.3627 99.2873 22.728C98.2302 24.0933 97.3845 25.5867 96.7503 27.208C97.0462 27.5067 97.1731 27.8693 97.1308 28.296C97.0462 28.552 96.8982 28.7867 96.6868 29C96.4754 29.1707 96.264 29.256 96.0526 29.256C95.968 29.64 95.8834 30.0453 95.7989 30.472C95.7143 30.856 95.6297 31.2613 95.5452 31.688C96.0103 31.816 96.3908 32.0933 96.6868 32.52C96.9828 32.9467 97.0885 33.4373 97.004 33.992C96.9617 34.4187 96.7925 34.76 96.4966 35.016C96.2006 35.272 95.8834 35.4427 95.5452 35.528C95.7989 37.704 96.412 39.752 97.3845 41.672C98.3993 43.5493 99.6678 45.192 101.19 46.6C102.755 48.008 104.509 49.1173 106.454 49.928C108.442 50.7387 110.556 51.144 112.797 51.144Z" fill="white"/>
<path d="M51.1125 48.84C51.5776 48.9253 51.9793 49.16 52.3175 49.544C52.6558 49.928 52.8249 50.3547 52.8249 50.824C52.8249 51.4213 52.6135 51.912 52.1907 52.296C51.8101 52.7227 51.3239 52.936 50.7319 52.936C50.1399 52.936 49.6537 52.7227 49.2731 52.296C48.8926 51.912 48.7023 51.4213 48.7023 50.824C48.7023 50.3547 48.8503 49.928 49.1463 49.544C49.4422 49.16 49.8228 48.9253 50.2879 48.84V46.28C49.7805 46.0667 49.5268 45.6827 49.5268 45.128C49.5268 44.9147 49.5902 44.7013 49.7171 44.488C49.8862 44.2747 50.0765 44.1253 50.2879 44.04V6.728L27.4125 28.808L4.47359 6.728V44.04C4.72729 44.1253 4.91757 44.2747 5.04442 44.488C5.17127 44.7013 5.2347 44.9147 5.2347 45.128C5.2347 45.7253 4.981 46.1093 4.47359 46.28V48.84C4.93871 48.9253 5.31927 49.16 5.61525 49.544C5.95352 49.928 6.12266 50.3547 6.12266 50.824C6.12266 51.4213 5.93238 51.912 5.55183 52.296C5.17127 52.7227 4.68501 52.936 4.09304 52.936C3.50107 52.936 2.99367 52.7227 2.57083 52.296C2.19028 51.912 2 51.4213 2 50.824C2 50.3547 2.16913 49.928 2.5074 49.544C2.84567 49.16 3.24737 48.9253 3.71249 48.84V46.28C3.1628 46.0667 2.88796 45.6827 2.88796 45.128C2.88796 44.9147 2.95138 44.7013 3.07823 44.488C3.24737 44.2747 3.45879 44.1253 3.71249 44.04V5L27.4125 27.72L51.1125 5V44.04C51.3662 44.1253 51.5564 44.2747 51.6833 44.488C51.8524 44.7013 51.937 44.9147 51.937 45.128C51.937 45.6827 51.6621 46.0667 51.1125 46.28V48.84ZM59.6421 48.968C60.1072 49.0533 60.4878 49.288 60.7838 49.672C61.122 50.0133 61.2912 50.4187 61.2912 50.888C61.2912 51.4427 61.0798 51.9333 60.6569 52.36C60.2764 52.7867 59.7901 53 59.1981 53C58.6062 53 58.1199 52.7867 57.7394 52.36C57.3588 51.9333 57.1685 51.4427 57.1685 50.888C57.1685 50.4187 57.3165 50.0133 57.6125 49.672C57.9508 49.288 58.3736 49.0533 58.881 48.968V46.472C58.3313 46.3013 58.0565 45.9387 58.0565 45.384C58.0565 45.128 58.0988 44.8933 58.1833 44.68C58.3102 44.424 58.5428 44.2533 58.881 44.168V16.328H59.6421V44.168C59.8535 44.2533 60.0227 44.424 60.1495 44.68C60.3187 44.8933 60.4032 45.128 60.4032 45.384C60.4032 45.64 60.3187 45.8747 60.1495 46.088C60.0227 46.2587 59.8535 46.3867 59.6421 46.472V48.968ZM59.1981 10.952C58.6062 10.952 58.1199 10.76 57.7394 10.376C57.3588 9.992 57.1685 9.52267 57.1685 8.968C57.1685 8.37067 57.3588 7.87999 57.7394 7.49599C58.1199 7.06933 58.6062 6.856 59.1981 6.856C59.7901 6.856 60.2764 7.06933 60.6569 7.49599C61.0798 7.87999 61.2912 8.37067 61.2912 8.968C61.2912 9.52267 61.0798 9.992 60.6569 10.376C60.2764 10.76 59.7901 10.952 59.1981 10.952ZM71.5138 16.776V44.168C72.0212 44.3813 72.2749 44.7867 72.2749 45.384C72.2749 45.896 72.0212 46.2587 71.5138 46.472V48.968C72.0212 49.0533 72.444 49.288 72.7823 49.672C73.1206 50.0133 73.2897 50.4187 73.2897 50.888C73.2897 51.4427 73.0571 51.9333 72.592 52.36C72.1692 52.7867 71.6829 53 71.1332 53C70.5835 53 70.0973 52.7867 69.6744 52.36C69.2939 51.9333 69.1036 51.4427 69.1036 50.888C69.1036 50.4187 69.2516 50.0133 69.5476 49.672C69.8859 49.288 70.2664 49.0533 70.6893 48.968V46.472C70.1818 46.2587 69.9282 45.896 69.9282 45.384C69.9282 44.7867 70.1818 44.3813 70.6893 44.168V16.776H62.9513V15.88H70.6893V6.856H71.5138V15.88H79.2517V16.776H71.5138ZM88.4452 16.776V44.168C88.9526 44.3813 89.2063 44.7867 89.2063 45.384C89.2063 45.896 88.9526 46.2587 88.4452 46.472V48.968C88.9526 49.0533 89.3755 49.288 89.7137 49.672C90.052 50.0133 90.2211 50.4187 90.2211 50.888C90.2211 51.4427 89.9886 51.9333 89.5235 52.36C89.1006 52.7867 88.6144 53 88.0647 53C87.515 53 87.0287 52.7867 86.6059 52.36C86.2253 51.9333 86.0351 51.4427 86.0351 50.888C86.0351 50.4187 86.1831 50.0133 86.479 49.672C86.8173 49.288 87.1979 49.0533 87.6207 48.968V46.472C87.1133 46.2587 86.8596 45.896 86.8596 45.384C86.8596 44.7867 87.1133 44.3813 87.6207 44.168V16.776H79.8828V15.88H87.6207V6.856H88.4452V15.88H96.1831V16.776H88.4452ZM112.797 15.176C115.334 15.176 117.702 15.6667 119.901 16.648C122.099 17.6293 124.023 18.952 125.672 20.616C127.321 22.28 128.611 24.2427 129.541 26.504C130.514 28.7227 131 31.112 131 33.672C131 36.1893 130.514 38.5573 129.541 40.776C128.611 42.9947 127.321 44.936 125.672 46.6C124.023 48.264 122.099 49.5867 119.901 50.568C117.702 51.5067 115.334 51.976 112.797 51.976C110.471 51.976 108.273 51.5707 106.201 50.76C104.129 49.9067 102.289 48.7547 100.683 47.304C99.0759 45.8107 97.7439 44.0613 96.6868 42.056C95.672 40.0507 95.0378 37.896 94.7841 35.592C94.1921 35.5067 93.727 35.2507 93.3887 34.824C93.0504 34.3547 92.9236 33.8213 93.0082 33.224C93.0927 32.7973 93.3041 32.4347 93.6424 32.136C93.9807 31.8373 94.3612 31.6667 94.7841 31.624C94.8263 31.1547 94.8898 30.7067 94.9743 30.28C95.0589 29.8533 95.1435 29.4053 95.228 28.936C94.9321 28.7653 94.7841 28.4027 94.7841 27.848C94.9532 27.2933 95.3126 27.016 95.8623 27.016C96.5388 25.3093 97.4268 23.7307 98.5262 22.28C99.6678 20.8293 100.979 19.5707 102.459 18.504C103.938 17.4373 105.545 16.6267 107.279 16.072C109.055 15.4747 110.894 15.176 112.797 15.176ZM112.797 51.144C115.207 51.144 117.448 50.696 119.52 49.8C121.634 48.8613 123.474 47.6027 125.038 46.024C126.645 44.4453 127.892 42.5893 128.78 40.456C129.71 38.3227 130.175 36.0613 130.175 33.672C130.175 31.24 129.71 28.9573 128.78 26.824C127.892 24.6907 126.645 22.8347 125.038 21.256C123.474 19.6347 121.634 18.376 119.52 17.48C117.448 16.5413 115.207 16.072 112.797 16.072C110.979 16.072 109.224 16.3493 107.533 16.904C105.884 17.4587 104.361 18.2267 102.966 19.208C101.571 20.1893 100.344 21.3627 99.2873 22.728C98.2302 24.0933 97.3845 25.5867 96.7503 27.208C97.0462 27.5067 97.1731 27.8693 97.1308 28.296C97.0462 28.552 96.8982 28.7867 96.6868 29C96.4754 29.1707 96.264 29.256 96.0526 29.256C95.968 29.64 95.8834 30.0453 95.7989 30.472C95.7143 30.856 95.6297 31.2613 95.5452 31.688C96.0103 31.816 96.3908 32.0933 96.6868 32.52C96.9828 32.9467 97.0885 33.4373 97.004 33.992C96.9617 34.4187 96.7925 34.76 96.4966 35.016C96.2006 35.272 95.8834 35.4427 95.5452 35.528C95.7989 37.704 96.412 39.752 97.3845 41.672C98.3993 43.5493 99.6678 45.192 101.19 46.6C102.755 48.008 104.509 49.1173 106.454 49.928C108.442 50.7387 110.556 51.144 112.797 51.144Z" stroke="#007BA4" stroke-width="4" mask="url(#path-1-outside-1_40_141)"/>
</svg>
