<svg width="106" height="104" viewBox="0 0 106 104" fill="none" xmlns="http://www.w3.org/2000/svg">
<g id="Group 18">
<g id="Group">
<path id="Vector" d="M86.4239 75.2702L82.6479 80.4676C81.4188 82.1592 79.1059 82.5876 77.4044 81.4367L24.6692 46.934C22.8656 45.713 22.4499 43.2026 23.7534 41.4085L28.1081 35.4147L86.4239 75.2702Z" fill="#007CA6"/>
<path id="Vector_2" d="M51.5172 9.97958L101.007 48.9498C102.606 50.2409 102.898 52.5936 101.668 54.2871L84.9716 77.2679C83.7425 78.9596 80.992 79.9902 79.2906 78.8393L27.5716 42.9379C25.7679 41.7169 25.3522 39.2065 26.6558 37.4124L46.0207 10.7588C47.3242 8.96465 49.8219 8.6094 51.5185 9.97778L51.5172 9.97958Z" fill="#DCE8FF"/>
<path id="Vector_3" d="M32.4723 36.8085L31.5776 38.04C31.4535 38.2107 31.41 38.4135 31.4424 38.6061C31.4722 38.8022 31.572 38.9811 31.7409 39.1061C32.0771 39.3547 32.549 39.281 32.7959 38.9412L49.1868 16.3812C49.3108 16.2104 49.3543 16.0076 49.3219 15.815C49.2957 15.6215 49.1941 15.4413 49.0252 15.3163C48.689 15.0677 48.2153 15.1401 47.9684 15.4799L32.471 36.8103L32.4723 36.8085Z" fill="#007CA6"/>
<path id="Vector_4" d="M67.7031 30.4638L51.8034 52.3479C51.5003 52.765 50.9236 52.8663 50.4992 52.5772L36.0182 42.6996C35.5707 42.3934 35.4639 41.7727 35.7839 41.3322L52.4725 18.3622C52.7925 17.9218 53.4127 17.836 53.8354 18.1764L67.5275 29.1398C67.9284 29.4612 68.0061 30.0467 67.7031 30.4638Z" fill="white"/>
<g id="Group_2">
<g id="Group_3">
<g id="Group_4">
<path id="Vector_5" d="M61.6229 51.2258L59.1647 54.6092C58.7326 55.2039 58.8593 56.0389 59.4477 56.4742L60.9702 57.6004C61.5586 58.0357 62.3859 57.9064 62.818 57.3117L65.2761 53.9283C65.7082 53.3336 65.5815 52.4986 64.9931 52.0633L63.4706 50.9371C62.8822 50.5018 62.055 50.6311 61.6229 51.2258Z" fill="#007CA6"/>
<path id="Vector_6" d="M67.5838 55.634L65.1256 59.0174C64.6935 59.6121 64.8203 60.4471 65.4086 60.8824L66.9311 62.0086C67.5195 62.4439 68.3468 62.3146 68.7789 61.7199L71.2371 58.3365C71.6692 57.7418 71.5425 56.9068 70.9541 56.4715L69.4316 55.3453C68.8432 54.91 68.0159 55.0393 67.5838 55.634Z" fill="#007CA6"/>
<path id="Vector_7" d="M71.0876 63.4285L73.5457 60.0451C73.9781 59.4501 74.8048 59.3209 75.3935 59.7564L76.916 60.8827C77.5047 61.3182 77.6313 62.1526 77.199 62.7476L74.7408 66.131C74.3085 66.7261 73.4818 66.8552 72.893 66.4197L71.3706 65.2935C70.7818 64.858 70.6552 64.0236 71.0876 63.4285Z" fill="#007CA6"/>
<path id="Vector_8" d="M79.5052 64.4543L77.047 67.8377C76.6149 68.4324 76.7416 69.2674 77.33 69.7027L78.8525 70.8289C79.4409 71.2642 80.2682 71.1349 80.7003 70.5402L83.1585 67.1568C83.5906 66.5621 83.4638 65.7271 82.8755 65.2918L81.353 64.1656C80.7646 63.7303 79.9373 63.8596 79.5052 64.4543Z" fill="#007CA6"/>
</g>
<g id="Group_5">
<path id="Vector_9" d="M66.7313 44.1965L64.2731 47.5799C63.841 48.1746 63.9677 49.0096 64.5561 49.4449L66.0786 50.5711C66.667 51.0064 67.4943 50.8771 67.9264 50.2824L70.3845 46.899C70.8166 46.3043 70.6899 45.4693 70.1015 45.034L68.579 43.9078C67.9906 43.4725 67.1634 43.6018 66.7313 44.1965Z" fill="#007CA6"/>
<path id="Vector_10" d="M72.6922 48.6062L70.234 51.9896C69.8019 52.5843 69.9287 53.4193 70.517 53.8545L72.0395 54.9808C72.6279 55.416 73.4552 55.2868 73.8873 54.692L76.3455 51.3087C76.7776 50.7139 76.6509 49.879 76.0625 49.4437L74.54 48.3174C73.9516 47.8822 73.1243 48.0114 72.6922 48.6062Z" fill="#007CA6"/>
<path id="Vector_11" d="M76.1964 56.3987L78.6546 53.0153C79.087 52.4203 79.9137 52.2911 80.5024 52.7266L82.0249 53.8529C82.6136 54.2884 82.7402 55.1228 82.3079 55.7178L79.8497 59.1012C79.4174 59.6963 78.5906 59.8255 78.0019 59.39L76.4794 58.2637C75.8907 57.8282 75.7641 56.9938 76.1964 56.3987Z" fill="#007CA6"/>
<path id="Vector_12" d="M84.6141 57.426L82.1559 60.8094C81.7238 61.4041 81.8505 62.2391 82.4389 62.6744L83.9614 63.8006C84.5498 64.2359 85.3771 64.1066 85.8092 63.5119L88.2673 60.1285C88.6994 59.5338 88.5727 58.6988 87.9843 58.2635L86.4619 57.1373C85.8735 56.702 85.0462 56.8313 84.6141 57.426Z" fill="#007CA6"/>
</g>
<g id="Group_6">
<path id="Vector_13" d="M71.8382 37.1696L69.38 40.553C68.9479 41.1478 69.0746 41.9827 69.663 42.418L71.1855 43.5443C71.7739 43.9795 72.6012 43.8502 73.0333 43.2555L75.4915 39.8721C75.9236 39.2774 75.7969 38.4424 75.2085 38.0072L73.686 36.8809C73.0976 36.4456 72.2703 36.5749 71.8382 37.1696Z" fill="#007CA6"/>
<path id="Vector_14" d="M77.7972 41.5793L75.339 44.9627C74.9069 45.5574 75.0336 46.3924 75.622 46.8277L77.1445 47.9539C77.7329 48.3892 78.5602 48.2599 78.9923 47.6652L81.4504 44.2818C81.8825 43.6871 81.7558 42.8521 81.1674 42.4168L79.645 41.2906C79.0566 40.8553 78.2293 40.9846 77.7972 41.5793Z" fill="#007CA6"/>
<path id="Vector_15" d="M81.3019 49.3729L83.7601 45.9895C84.1924 45.3944 85.0191 45.2652 85.6078 45.7007L87.1303 46.827C87.7191 47.2625 87.8457 48.0969 87.4133 48.692L84.9552 52.0753C84.5228 52.6704 83.6961 52.7996 83.1074 52.3641L81.5849 51.2378C80.9962 50.8023 80.8696 49.9679 81.3019 49.3729Z" fill="#007CA6"/>
<path id="Vector_16" d="M89.721 50.3977L87.2629 53.7811C86.8308 54.3758 86.9575 55.2108 87.5459 55.646L89.0683 56.7723C89.6567 57.2076 90.484 57.0783 90.9161 56.4835L93.3743 53.1002C93.8064 52.5054 93.6797 51.6705 93.0913 51.2352L91.5688 50.1089C90.9804 49.6737 90.1531 49.8029 89.721 50.3977Z" fill="#007CA6"/>
</g>
</g>
<g id="Group_7">
<g id="Group_8">
<path id="Vector_17" d="M62.3538 50.2229L59.8957 53.6062C59.4636 54.201 59.5903 55.036 60.1787 55.4712L61.7011 56.5975C62.2895 57.0327 63.1168 56.9035 63.5489 56.3087L66.0071 52.9254C66.4392 52.3306 66.3125 51.4956 65.7241 51.0604L64.2016 49.9341C63.6132 49.4989 62.7859 49.6281 62.3538 50.2229Z" fill="#007CA6"/>
<path id="Vector_18" d="M68.3148 54.6311L65.8566 58.0144C65.4245 58.6092 65.5512 59.4442 66.1396 59.8794L67.6621 61.0057C68.2505 61.441 69.0778 61.3117 69.5099 60.7169L71.968 57.3336C72.4001 56.7388 72.2734 55.9039 71.685 55.4686L70.1625 54.3423C69.5741 53.9071 68.7469 54.0363 68.3148 54.6311Z" fill="#007CA6"/>
<path id="Vector_19" d="M71.818 62.4251L74.2762 59.0417C74.7085 58.4467 75.5352 58.3175 76.124 58.753L77.6464 59.8792C78.2352 60.3147 78.3618 61.1491 77.9294 61.7442L75.4713 65.1276C75.0389 65.7226 74.2122 65.8518 73.6235 65.4163L72.101 64.2901C71.5123 63.8546 71.3857 63.0202 71.818 62.4251Z" fill="#007CA6"/>
<path id="Vector_20" d="M80.2362 63.4509L77.778 66.8343C77.3459 67.429 77.4726 68.264 78.061 68.6993L79.5835 69.8255C80.1719 70.2608 80.9991 70.1315 81.4312 69.5368L83.8894 66.1534C84.3215 65.5587 84.1948 64.7237 83.6064 64.2884L82.0839 63.1622C81.4955 62.7269 80.6683 62.8562 80.2362 63.4509Z" fill="#007CA6"/>
</g>
<g id="Group_9">
<path id="Vector_21" d="M65.0026 46.5779L67.4608 43.1945C67.8931 42.5995 68.7198 42.4703 69.3085 42.9058L70.831 44.0321C71.4197 44.4676 71.5464 45.302 71.114 45.897L68.6558 49.2804C68.2235 49.8755 67.3968 50.0047 66.8081 49.5692L65.2856 48.4429C64.6969 48.0074 64.5703 47.173 65.0026 46.5779Z" fill="#007CA6"/>
<path id="Vector_22" d="M73.4202 47.6037L70.9621 50.9871C70.53 51.5818 70.6567 52.4168 71.2451 52.8521L72.7676 53.9783C73.356 54.4136 74.1832 54.2843 74.6153 53.6896L77.0735 50.3062C77.5056 49.7115 77.3789 48.8765 76.7905 48.4412L75.268 47.315C74.6796 46.8797 73.8523 47.009 73.4202 47.6037Z" fill="#007CA6"/>
<path id="Vector_23" d="M76.925 55.3963L79.3831 52.0129C79.8155 51.4178 80.6422 51.2887 81.2309 51.7242L82.7534 52.8504C83.3421 53.2859 83.4687 54.1203 83.0364 54.7154L80.5782 58.0988C80.1459 58.6938 79.3192 58.823 78.7304 58.3875L77.208 57.2613C76.6192 56.8258 76.4926 55.9913 76.925 55.3963Z" fill="#007CA6"/>
<path id="Vector_24" d="M85.3421 56.4221L82.8839 59.8055C82.4518 60.4002 82.5786 61.2352 83.1669 61.6704L84.6894 62.7967C85.2778 63.232 86.1051 63.1027 86.5372 62.508L88.9954 59.1246C89.4275 58.5298 89.3008 57.6949 88.7124 57.2596L87.1899 56.1333C86.6015 55.6981 85.7742 55.8274 85.3421 56.4221Z" fill="#007CA6"/>
</g>
<g id="Group_10">
<path id="Vector_25" d="M70.109 39.5491L72.5672 36.1657C72.9996 35.5707 73.8263 35.4415 74.415 35.877L75.9375 37.0032C76.5262 37.4387 76.6528 38.2732 76.2205 38.8682L73.7623 42.2516C73.33 42.8467 72.5032 42.9759 71.9145 42.5404L70.392 41.4141C69.8033 40.9786 69.6767 40.1442 70.109 39.5491Z" fill="#007CA6"/>
<path id="Vector_26" d="M76.0695 43.9578L78.5277 40.5744C78.96 39.9794 79.7867 39.8502 80.3754 40.2857L81.8979 41.4119C82.4866 41.8474 82.6133 42.6819 82.1809 43.2769L79.7228 46.6603C79.2904 47.2554 78.4637 47.3845 77.875 46.949L76.3525 45.8228C75.7638 45.3873 75.6372 44.5529 76.0695 43.9578Z" fill="#007CA6"/>
<path id="Vector_27" d="M82.0304 48.368L84.4886 44.9846C84.9209 44.3895 85.7477 44.2603 86.3364 44.6958L87.8589 45.8221C88.4476 46.2576 88.5742 47.092 88.1419 47.6871L85.6837 51.0704C85.2514 51.6655 84.4246 51.7947 83.8359 51.3592L82.3134 50.2329C81.7247 49.7974 81.5981 48.963 82.0304 48.368Z" fill="#007CA6"/>
<path id="Vector_28" d="M87.9904 52.7776L90.4486 49.3942C90.8809 48.7992 91.7076 48.67 92.2963 49.1055L93.8188 50.2318C94.4075 50.6673 94.5342 51.5017 94.1018 52.0967L91.6437 55.4801C91.2113 56.0752 90.3846 56.2044 89.7959 55.7689L88.2734 54.6426C87.6847 54.2071 87.5581 53.3727 87.9904 52.7776Z" fill="#007CA6"/>
</g>
</g>
<g id="Group_11">
<g id="Group_12">
<path id="Vector_29" d="M66.1085 52.9989L63.6504 56.3823C63.1788 57.0313 62.2719 57.173 61.6299 56.698L60.1074 55.5718C59.4653 55.0968 59.3264 54.1814 59.7979 53.5324L62.2561 50.149C62.7276 49.5001 63.6345 49.3583 64.2766 49.8333L65.7991 50.9596C66.4412 51.4345 66.5801 52.3499 66.1085 52.9989ZM59.9971 53.6798C59.6066 54.2173 59.7219 54.977 60.2537 55.3704L61.7761 56.4967C62.3079 56.8901 63.0606 56.7725 63.4512 56.2349L65.9093 52.8515C66.2999 52.314 66.1846 51.5543 65.6528 51.1609L64.1303 50.0347C63.5985 49.6413 62.8458 49.7589 62.4553 50.2964L59.9971 53.6798Z" fill="white"/>
<path id="Vector_30" d="M72.069 57.4061L69.6108 60.7895C69.1393 61.4385 68.2324 61.5802 67.5903 61.1052L66.0678 59.979C65.4257 59.504 65.2868 58.5886 65.7584 57.9397L68.2165 54.5563C68.688 53.9073 69.595 53.7656 70.237 54.2405L71.7595 55.3668C72.4016 55.8418 72.5405 56.7571 72.069 57.4061ZM65.9576 58.087C65.567 58.6245 65.6823 59.3842 66.2141 59.7776L67.7366 60.9039C68.2684 61.2973 69.0211 61.1797 69.4116 60.6422L71.8698 57.2588C72.2603 56.7212 72.145 55.9616 71.6132 55.5681L70.0908 54.4419C69.559 54.0485 68.8063 54.1661 68.4157 54.7036L65.9576 58.087Z" fill="white"/>
<path id="Vector_31" d="M78.028 61.8153L75.5698 65.1987C75.0983 65.8477 74.1914 65.9894 73.5493 65.5144L72.0268 64.3882C71.3847 63.9132 71.2458 62.9978 71.7173 62.3488L74.1755 58.9655C74.647 58.3165 75.554 58.1747 76.196 58.6497L77.7185 59.776C78.3606 60.2509 78.4995 61.1663 78.028 61.8153ZM71.9165 62.4962C71.526 63.0337 71.6413 63.7934 72.1731 64.1868L73.6956 65.3131C74.2274 65.7065 74.9801 65.5889 75.3706 65.0513L77.8288 61.6679C78.2193 61.1304 78.104 60.3707 77.5722 59.9773L76.0497 58.8511C75.5179 58.4577 74.7653 58.5753 74.3747 59.1128L71.9165 62.4962Z" fill="white"/>
<path id="Vector_32" d="M83.9884 66.224L81.5302 69.6074C81.0587 70.2564 80.1518 70.3981 79.5097 69.9231L77.9872 68.7969C77.3452 68.3219 77.2063 67.4065 77.6778 66.7575L80.136 63.3741C80.6075 62.7252 81.5144 62.5834 82.1565 63.0584L83.679 64.1847C84.321 64.6596 84.4599 65.575 83.9884 66.224ZM77.877 66.9049C77.4865 67.4424 77.6017 68.2021 78.1335 68.5955L79.656 69.7218C80.1878 70.1152 80.9405 69.9975 81.331 69.46L83.7892 66.0766C84.1798 65.5391 84.0645 64.7794 83.5327 64.386L82.0102 63.2598C81.4784 62.8664 80.7257 62.984 80.3352 63.5215L77.877 66.9049Z" fill="white"/>
</g>
<g id="Group_13">
<path id="Vector_33" d="M71.214 45.9686L68.7558 49.352C68.2843 50.001 67.3774 50.1427 66.7353 49.6677L65.2128 48.5415C64.5708 48.0665 64.4319 47.1511 64.9034 46.5022L67.3615 43.1188C67.8331 42.4698 68.74 42.3281 69.3821 42.803L70.9045 43.9293C71.5466 44.4043 71.6855 45.3196 71.214 45.9686ZM65.1026 46.6495C64.712 47.1871 64.8273 47.9467 65.3591 48.3401L66.8816 49.4664C67.4134 49.8598 68.1661 49.7422 68.5566 49.2047L71.0148 45.8213C71.4053 45.2837 71.2901 44.5241 70.7583 44.1307L69.2358 43.0044C68.704 42.611 67.9513 42.7286 67.5608 43.2661L65.1026 46.6495Z" fill="white"/>
<path id="Vector_34" d="M77.1754 50.3788L74.7173 53.7622C74.2457 54.4112 73.3388 54.5529 72.6968 54.0779L71.1743 52.9516C70.5322 52.4767 70.3933 51.5613 70.8648 50.9123L73.323 47.5289C73.7945 46.8799 74.7014 46.7382 75.3435 47.2132L76.866 48.3395C77.508 48.8144 77.647 49.7298 77.1754 50.3788ZM71.064 51.0597C70.6735 51.5972 70.7888 52.3569 71.3206 52.7503L72.843 53.8766C73.3748 54.27 74.1275 54.1523 74.5181 53.6148L76.9762 50.2314C77.3668 49.6939 77.2515 48.9342 76.7197 48.5408L75.1972 47.4145C74.6654 47.0211 73.9127 47.1388 73.5222 47.6763L71.064 51.0597Z" fill="white"/>
<path id="Vector_35" d="M83.1344 54.788L80.6762 58.1713C80.2047 58.8203 79.2978 58.9621 78.6557 58.4871L77.1332 57.3608C76.4912 56.8858 76.3523 55.9705 76.8238 55.3215L79.282 51.9381C79.7535 51.2891 80.6604 51.1474 81.3025 51.6224L82.825 52.7486C83.467 53.2236 83.6059 54.139 83.1344 54.788ZM77.023 55.4689C76.6325 56.0064 76.7477 56.7661 77.2795 57.1595L78.802 58.2857C79.3338 58.6791 80.0865 58.5615 80.477 58.024L82.9352 54.6406C83.3258 54.1031 83.2105 53.3434 82.6787 52.95L81.1562 51.8237C80.6244 51.4303 79.8717 51.5479 79.4812 52.0855L77.023 55.4689Z" fill="white"/>
<path id="Vector_36" d="M89.0958 59.1962L86.6377 62.5795C86.1661 63.2285 85.2592 63.3703 84.6172 62.8953L83.0947 61.769C82.4526 61.294 82.3137 60.3787 82.7852 59.7297L85.2434 56.3463C85.7149 55.6973 86.6218 55.5556 87.2639 56.0306L88.7864 57.1568C89.4285 57.6318 89.5674 58.5472 89.0958 59.1962ZM82.9844 59.8771C82.5939 60.4146 82.7092 61.1743 83.241 61.5677L84.7634 62.6939C85.2952 63.0873 86.0479 62.9697 86.4385 62.4322L88.8966 59.0488C89.2872 58.5113 89.1719 57.7516 88.6401 57.3582L87.1176 56.2319C86.5858 55.8385 85.8331 55.9561 85.4426 56.4937L82.9844 59.8771Z" fill="white"/>
</g>
<g id="Group_14">
<path id="Vector_37" d="M76.32 38.9432L73.8618 42.3266C73.3903 42.9756 72.4834 43.1173 71.8413 42.6424L70.3188 41.5161C69.6767 41.0411 69.5378 40.1257 70.0093 39.4768L72.4675 36.0934C72.939 35.4444 73.846 35.3027 74.488 35.7776L76.0105 36.9039C76.6526 37.3789 76.7915 38.2942 76.32 38.9432ZM70.2086 39.6241C69.818 40.1617 69.9333 40.9213 70.4651 41.3147L71.9876 42.441C72.5194 42.8344 73.2721 42.7168 73.6626 42.1792L76.1208 38.7959C76.5113 38.2583 76.396 37.4986 75.8642 37.1052L74.3417 35.979C73.8099 35.5856 73.0573 35.7032 72.6667 36.2407L70.2086 39.6241Z" fill="white"/>
<path id="Vector_38" d="M82.2804 43.3495L79.8222 46.7329C79.3507 47.3819 78.4438 47.5236 77.8017 47.0486L76.2792 45.9223C75.6372 45.4474 75.4983 44.532 75.9698 43.883L78.428 40.4996C78.8995 39.8506 79.8064 39.7089 80.4485 40.1839L81.971 41.3102C82.613 41.7851 82.7519 42.7005 82.2804 43.3495ZM76.169 44.0304C75.7785 44.5679 75.8937 45.3276 76.4255 45.721L77.948 46.8472C78.4798 47.2406 79.2325 47.123 79.623 46.5855L82.0812 43.2021C82.4718 42.6646 82.3565 41.9049 81.8247 41.5115L80.3022 40.3852C79.7704 39.9918 79.0177 40.1095 78.6272 40.647L76.169 44.0304Z" fill="white"/>
<path id="Vector_39" d="M88.2414 47.7587L85.7832 51.142C85.3117 51.791 84.4047 51.9328 83.7627 51.4578L82.2402 50.3315C81.5981 49.8565 81.4592 48.9412 81.9307 48.2922L84.3889 44.9088C84.8604 44.2598 85.7673 44.1181 86.4094 44.5931L87.9319 45.7193C88.574 46.1943 88.7129 47.1097 88.2414 47.7587ZM82.1299 48.4395C81.7394 48.9771 81.8547 49.7368 82.3865 50.1302L83.909 51.2564C84.4408 51.6498 85.1934 51.5322 85.584 50.9947L88.0422 47.6113C88.4327 47.0738 88.3174 46.3141 87.7856 45.9207L86.2631 44.7944C85.7313 44.401 84.9786 44.5186 84.5881 45.0562L82.1299 48.4395Z" fill="white"/>
<path id="Vector_40" d="M94.2008 52.1683L91.7427 55.5517C91.2711 56.2007 90.3642 56.3424 89.7221 55.8674L88.1997 54.7412C87.5576 54.2662 87.4187 53.3508 87.8902 52.7019L90.3484 49.3185C90.8199 48.6695 91.7268 48.5278 92.3689 49.0027L93.8914 50.129C94.5334 50.604 94.6723 51.5193 94.2008 52.1683ZM88.0894 52.8492C87.6989 53.3867 87.8141 54.1464 88.3459 54.5398L89.8684 55.6661C90.4002 56.0595 91.1529 55.9419 91.5435 55.4043L94.0016 52.021C94.3922 51.4834 94.2769 50.7237 93.7451 50.3303L92.2226 49.2041C91.6908 48.8107 90.9381 48.9283 90.5476 49.4658L88.0894 52.8492Z" fill="white"/>
</g>
</g>
</g>
<path id="Vector_41" d="M99.772 57.1771L85.1027 77.3677C83.8396 79.1062 80.9833 80.1884 79.1956 78.9792L27.4749 43.0765C26.5741 42.4682 25.976 41.5338 25.7878 40.4493C25.5962 39.3429 25.8552 38.2299 26.5187 37.3167L45.8837 10.6631C46.5472 9.74981 47.5194 9.16442 48.6245 9.01724C49.7074 8.87032 50.771 9.16788 51.6169 9.85165L54.3172 11.9763L54.1142 12.2407L51.4134 10.1129C50.636 9.48538 49.6601 9.21398 48.6684 9.34823C47.655 9.48587 46.7622 10.0222 46.1523 10.8617L26.7873 37.5153C26.1773 38.3549 25.939 39.3754 26.1138 40.3919C26.2853 41.3867 26.8354 42.2442 27.6606 42.8021L79.3813 78.7048C81.0197 79.8145 83.6577 78.7919 84.8346 77.1722L99.5039 56.9815L99.7707 57.1789L99.772 57.1771Z" fill="#007CA6"/>
<path id="Vector_42" d="M61.7044 18.2276L90.4839 40.8823L90.6877 40.6187L61.9082 17.964L61.7044 18.2276Z" fill="#007CA6"/>
<path id="Vector_43" d="M37.3343 9.51576L48.2852 17.6167L33.7072 37.6814L22.7564 29.5806C21.967 29.0712 21.0377 28.92 20.1664 29.088C19.2937 29.2579 18.4795 29.7501 17.9165 30.5249L32.4944 10.4601C33.0574 9.68528 33.8734 9.19441 34.7443 9.02326C35.6152 8.85212 36.5431 9.00512 37.3343 9.51576Z" fill="white"/>
<path id="Vector_44" d="M22.7583 29.5815L18.482 35.4673C17.7631 34.8609 17.3406 34.0122 17.2386 33.1213C17.1366 32.2305 17.3568 31.2989 17.9197 30.524C18.4827 29.7492 19.2987 29.2583 20.1696 29.0872C21.041 28.9191 21.9684 29.069 22.7596 29.5797L22.7583 29.5815Z" fill="#007CA6"/>
<path id="Vector_45" d="M48.4401 17.5952L33.7316 37.8398L22.6918 29.6731C21.9583 29.1996 21.0673 29.0297 20.1885 29.2005C19.3097 29.3713 18.5351 29.8652 18.0075 30.5915L17.8296 30.46L32.4075 10.3952C32.9678 9.62394 33.791 9.09688 34.7254 8.91741C35.6593 8.73482 36.6074 8.91655 37.3968 9.42588L48.4437 17.5978L48.4401 17.5952ZM33.6843 37.5284L48.1316 17.6434L37.2715 9.6096C36.5296 9.13269 35.6404 8.96408 34.7646 9.1344C33.8858 9.30519 33.11 9.80093 32.5836 10.5254L18.7554 29.5583C19.1706 29.2767 19.6426 29.0786 20.1457 28.9809C21.0813 28.7996 22.0294 28.9813 22.8171 29.4894L33.6861 37.5297L33.6843 37.5284Z" fill="#007CA6"/>
<path id="Vector_46" d="M49.2786 16.4433L32.8877 39.0034C32.6056 39.3917 32.0627 39.4766 31.6785 39.1924C31.4917 39.0542 31.371 38.8516 31.3342 38.6199C31.298 38.3913 31.353 38.1611 31.4915 37.9706L32.3862 36.7391L32.5641 36.8707L31.6694 38.1021C31.5675 38.2424 31.5255 38.4131 31.5533 38.5856C31.5797 38.76 31.6704 38.91 31.8091 39.0126C32.0955 39.2244 32.4996 39.1613 32.7098 38.8718L49.1007 16.3118C49.2026 16.1715 49.2446 16.0008 49.2168 15.8283C49.1921 15.6552 49.1015 15.5053 48.9627 15.4026C48.6746 15.1895 48.2705 15.2526 48.0602 15.5421L47.1655 16.7735L46.9876 16.642L47.8824 15.4105C48.1645 15.0222 48.7074 14.9374 49.0933 15.2229C49.2801 15.361 49.4026 15.565 49.4345 15.7959C49.4708 16.0245 49.4157 16.2546 49.2786 16.4433Z" fill="#007CA6"/>
<g id="Group_15">
<g id="Group_16">
<path id="Vector_47" d="M38.9285 80.0272C38.9071 80.644 43.3709 81.2964 48.8952 81.4832C54.4195 81.6699 58.9182 81.3205 58.9396 80.7037C58.94 80.6926 58.9382 80.6814 58.9364 80.6702L59.0414 77.651L39.0413 76.9748L38.9365 79.9873C38.9316 80.0006 38.929 80.0138 38.9285 80.0272Z" fill="#F49B51"/>
<path id="Vector_48" d="M49.003 78.456C54.5289 78.6428 59.026 78.2939 59.0474 77.6765C59.0689 77.0592 54.6067 76.4074 49.0808 76.2206C43.5548 76.0338 39.0578 76.3827 39.0363 77C39.0149 77.6174 43.4771 78.2692 49.003 78.456Z" fill="#FCC659"/>
</g>
<g id="Group_17">
<path id="Vector_49" d="M36.6897 76.3041C36.6683 76.9208 41.1321 77.5733 46.6564 77.76C52.1808 77.9468 56.6794 77.5973 56.7009 76.9806C56.7012 76.9694 56.6994 76.9582 56.6976 76.947L56.8026 73.9278L36.8025 73.2517L36.6977 76.2642C36.6929 76.2774 36.6902 76.2907 36.6897 76.3041Z" fill="#F49B51"/>
<path id="Vector_50" d="M46.7633 74.7339C52.2892 74.9207 56.7862 74.5717 56.8077 73.9544C56.8292 73.3371 52.3669 72.6852 46.841 72.4984C41.3151 72.3116 36.818 72.6606 36.7966 73.2779C36.7751 73.8952 41.2373 74.547 46.7633 74.7339Z" fill="#FCC659"/>
</g>
<g id="Group_18">
<path id="Vector_51" d="M39.1814 72.7411C39.16 73.3578 43.6238 74.0103 49.1481 74.197C54.6725 74.3838 59.1711 74.0343 59.1926 73.4176C59.1929 73.4064 59.1911 73.3952 59.1893 73.384L59.2943 70.3648L39.2942 69.6887L39.1895 72.7012C39.1846 72.7144 39.1819 72.7277 39.1814 72.7411Z" fill="#F49B51"/>
<path id="Vector_52" d="M49.2559 71.1714C54.7819 71.3582 59.2789 71.0092 59.3004 70.3919C59.3218 69.7746 54.8596 69.1227 49.3337 68.9359C43.8078 68.7491 39.3107 69.0981 39.2893 69.7154C39.2678 70.3327 43.73 70.9845 49.2559 71.1714Z" fill="#FCC659"/>
</g>
<g id="Group_19">
<path id="Vector_53" d="M48.8912 81.6017C52.9601 81.7393 59.0273 81.6145 59.0589 80.7083L58.8229 80.7003C58.8108 81.0476 55.392 81.583 48.8995 81.3635C48.6635 81.3555 48.4298 81.3476 48.1983 81.3376L48.19 81.5758C48.4194 81.5835 48.6553 81.5937 48.8912 81.6017Z" fill="#007CA6"/>
<path id="Vector_54" d="M44.9271 81.3756L44.9464 81.1378C43.936 81.0546 43.0078 80.9563 42.1927 80.8441L42.1602 81.0815C42.9797 81.1938 43.9101 81.2922 44.9271 81.3756Z" fill="#007CA6"/>
</g>
<g id="Group_20">
<path id="Vector_55" d="M52.9789 77.821C56.751 77.603 56.7676 77.1242 56.7731 76.9662L56.5371 76.9582C56.5331 77.074 55.8832 77.4131 52.9673 77.582L52.9811 77.821L52.9789 77.821Z" fill="#007CA6"/>
<path id="Vector_56" d="M46.6051 77.8627C47.7298 77.9008 48.8354 77.9181 49.891 77.9114L49.8905 77.6729C48.0068 77.6828 45.9246 77.6213 43.9883 77.4956L43.9734 77.7337C44.8303 77.7894 45.7164 77.8327 46.6073 77.8628L46.6051 77.8627Z" fill="#007CA6"/>
<path id="Vector_57" d="M41.4915 77.5316L41.5153 77.2939C40.4505 77.1866 39.5232 77.0639 38.7596 76.9289L38.7184 77.1637C39.4884 77.3012 40.4224 77.4241 41.4915 77.5316Z" fill="#007CA6"/>
</g>
<g id="Group_21">
<path id="Vector_58" d="M55.9896 71.2322C59.3355 71.0021 59.3506 70.568 59.3563 70.4055L59.1203 70.3975C59.1203 70.3975 59.0208 70.7842 55.9736 70.9954L55.9896 71.2345L55.9896 71.2322Z" fill="#007CA6"/>
<path id="Vector_59" d="M49.1902 71.299C50.3414 71.3379 51.4669 71.3537 52.5357 71.3475L52.5352 71.1089C51.4686 71.1152 50.3453 71.0995 49.1985 71.0608C47.1454 70.9914 45.1762 70.8557 43.5025 70.6676L43.4766 70.9052C45.1547 71.0935 47.1304 71.2294 49.1902 71.299Z" fill="#007CA6"/>
</g>
<g id="Group_22">
<path id="Vector_60" d="M35.764 68.9779C35.7425 69.5946 40.2063 70.2471 45.7307 70.4339C51.255 70.6206 55.7536 70.2711 55.7751 69.6544C55.7755 69.6433 55.7737 69.632 55.7718 69.6208L55.8768 66.6016L35.8767 65.9255L35.772 68.938C35.7671 68.9512 35.7644 68.9645 35.764 68.9779Z" fill="#F49B51"/>
<path id="Vector_61" d="M45.837 67.4092C51.3629 67.596 55.86 67.247 55.8814 66.6297C55.9029 66.0124 51.4407 65.3605 45.9148 65.1737C40.3888 64.9869 35.8918 65.3359 35.8703 65.9532C35.8488 66.5705 40.3111 67.2223 45.837 67.4092Z" fill="#FCC659"/>
<path id="Vector_62" d="M37.7254 66.017C37.711 66.4311 41.3491 66.8907 45.848 67.0428C50.3468 67.1949 54.0083 66.982 54.0227 66.5679C54.0371 66.1538 50.399 65.6942 45.9001 65.5421C41.4013 65.39 37.7398 65.6028 37.7254 66.017Z" fill="#F49B51"/>
</g>
</g>
<g id="Group_23">
<path id="Vector_63" d="M37.8891 13.22L34.7217 17.5796L35.2553 17.9743L38.4227 13.6147L37.8891 13.22Z" fill="#E1EAFF"/>
<path id="Vector_64" d="M33.2544 19.599L26.8843 28.3667L27.4179 28.7614L33.7879 19.9937L33.2544 19.599Z" fill="#E1EAFF"/>
<path id="Vector_65" d="M40.2019 14.9308L32.8652 25.0288L33.3988 25.4235L40.7354 15.3255L40.2019 14.9308Z" fill="#E1EAFF"/>
<path id="Vector_66" d="M31.966 26.2677L29.1982 30.0771L29.7318 30.4719L32.4996 26.6624L31.966 26.2677Z" fill="#E1EAFF"/>
<path id="Vector_67" d="M41.3257 18.6544L38.3242 22.7856L38.8578 23.1804L41.8593 19.0491L41.3257 18.6544Z" fill="#E1EAFF"/>
<path id="Vector_68" d="M37.058 24.5298L31.6885 31.9204L32.2221 32.3151L37.5916 24.9245L37.058 24.5298Z" fill="#E1EAFF"/>
</g>
<path id="Vector_69" d="M59.4368 41.5613L55.4648 47.0283L55.7316 47.2257L59.7036 41.7587L59.4368 41.5613Z" fill="#007CA6"/>
<path id="Vector_70" d="M67.8367 30.5615L61.2445 39.6348L60.9777 39.4374L67.5699 30.3642C67.822 30.0172 67.7585 29.5363 67.4243 29.2698L55.4399 19.6746L55.6465 19.4128L67.6309 29.008C68.1052 29.3865 68.1945 30.0689 67.8367 30.5615Z" fill="#007CA6"/>
</g>
<g id="Group_24">
<path id="Vector_71" d="M56.7669 39.5554C58.7131 36.6404 57.9529 32.6883 55.0687 30.7281C52.1845 28.7679 48.2687 29.5419 46.3224 32.4569C44.3761 35.3718 45.1364 39.3239 48.0206 41.2841C50.9047 43.2443 54.8206 42.4703 56.7669 39.5554Z" fill="#007CA6"/>
<path id="Vector_72" d="M53.9907 38.1081L49.8839 38.6909L49.8247 38.2492L53.3057 37.7562L49.9045 31.2932L50.2943 31.084L53.9907 38.1081Z" fill="white"/>
</g>
</g>
</svg>
