<svg width="100" height="100" viewBox="0 0 100 100" fill="none" xmlns="http://www.w3.org/2000/svg">
<g id="Group 58">
<g id="Group">
<path id="Vector" d="M45.488 26.7574L47.6277 25.5108C48.6691 26.0191 49.8019 26.3704 50.9899 26.5345L52.0084 28.7407C52.044 28.818 52.1267 28.8648 52.214 28.8577L55.1982 28.6019C55.2854 28.5944 55.3579 28.5341 55.3792 28.452L55.9816 26.1067C57.1217 25.7427 58.1729 25.2043 59.1058 24.5266L61.4389 25.3898C61.5208 25.42 61.6133 25.3966 61.6695 25.3319L63.5926 23.1079C63.6487 23.0429 63.6561 22.9505 63.611 22.8779L62.3235 20.8062C62.8485 19.7979 63.2113 18.7011 63.3809 17.5505L65.6594 16.5644C65.7393 16.5299 65.7876 16.4498 65.7803 16.3653L65.5161 13.476C65.5083 13.3915 65.4461 13.3209 65.3613 13.3007L62.939 12.7174C62.563 11.6136 62.0069 10.5957 61.307 9.69249L62.1986 7.43358C62.2297 7.35428 62.2055 7.26467 62.1388 7.21035L59.8417 5.34835C59.7746 5.29403 59.6792 5.28689 59.6042 5.33051L57.4645 6.57713C56.423 6.0688 55.2903 5.7175 54.1023 5.55335L53.0838 3.34718C53.0482 3.26986 52.9654 3.22307 52.8782 3.23021L49.894 3.48635C49.8068 3.49389 49.7343 3.55415 49.713 3.63623L49.1106 5.98157C47.9705 6.34557 46.9192 6.88402 45.9863 7.56166L43.6533 6.69846C43.5714 6.66832 43.4788 6.69172 43.4227 6.75635L41.4996 8.98036C41.4435 9.04539 41.4361 9.13777 41.4812 9.21033L42.7687 11.2821C42.2437 12.2904 41.8809 13.3871 41.7113 14.5378L39.4327 15.5239C39.3529 15.5584 39.3046 15.6385 39.3123 15.723L39.5765 18.6123C39.5843 18.6968 39.6465 18.7674 39.7313 18.7876L42.1536 19.3708C42.5296 20.4743 43.0857 21.4925 43.7856 22.3958L42.894 24.6547C42.8629 24.734 42.8867 24.8236 42.9538 24.8779L45.2508 26.7399C45.318 26.7943 45.4134 26.8014 45.4884 26.7578L45.488 26.7574Z" fill="#007CA6"/>
<path id="Vector_2" d="M51.7951 18.7188C50.9154 18.486 50.1643 17.852 49.8416 16.9575C49.3215 15.5138 50.1115 13.9297 51.6026 13.4262C52.325 13.1823 53.1018 13.2251 53.7907 13.5471C54.4795 13.8691 54.9975 14.4317 55.2494 15.1308C55.5012 15.8302 55.457 16.5824 55.1245 17.2493C54.7919 17.9162 54.2108 18.4178 53.4888 18.6617C52.9221 18.8532 52.3344 18.8611 51.7951 18.7184V18.7188ZM53.1887 13.7481C52.714 13.6224 52.2115 13.6383 51.7369 13.7985C50.458 14.2303 49.7806 15.5891 50.2266 16.8274C50.6725 18.0657 52.076 18.7215 53.3549 18.2897C54.6339 17.8579 55.3112 16.4991 54.8652 15.2608C54.649 14.6609 54.2047 14.1783 53.6137 13.9024C53.4757 13.8377 53.3336 13.7862 53.1887 13.7481Z" fill="#F0EEEE"/>
<g id="Group_2">
<g id="Group_3" opacity="0.64">
<path id="Vector_3" d="M40.0236 26.4205C39.9257 26.3948 39.8352 26.3404 39.7656 26.2592C39.5874 26.0506 39.413 25.8349 39.2471 25.6184C39.0792 25.3999 39.1263 25.0911 39.352 24.9285C39.5776 24.7659 39.8966 24.8115 40.0645 25.03C40.2201 25.233 40.384 25.4348 40.5506 25.6307C40.7296 25.8408 40.6993 26.1513 40.4822 26.325C40.3496 26.4312 40.1776 26.4614 40.0232 26.4205H40.0236Z" fill="#F0EEEE"/>
<path id="Vector_4" d="M38.0909 23.5594C37.957 23.5241 37.8382 23.4357 37.7706 23.3064C37.5118 22.8116 37.2767 22.2965 37.0716 21.7763C36.9712 21.5217 37.1027 21.237 37.3656 21.1399C37.6281 21.0427 37.9226 21.17 38.0229 21.4246C38.2158 21.9131 38.4365 22.3964 38.6794 22.8615C38.8063 23.1046 38.706 23.4012 38.4549 23.5241C38.3378 23.5816 38.2084 23.5911 38.0909 23.5598V23.5594ZM36.658 19.5451C36.4778 19.4975 36.3316 19.3552 36.2923 19.1657C36.1796 18.6197 36.0957 18.0622 36.0429 17.5091C36.0171 17.2378 36.223 16.9976 36.5032 16.9726C36.7829 16.9476 37.031 17.1474 37.0572 17.4183C37.1068 17.9369 37.1854 18.4599 37.2911 18.9726C37.346 19.2398 37.1674 19.4991 36.8914 19.5527C36.8111 19.5681 36.7317 19.5646 36.6575 19.5451H36.658ZM36.3971 15.3053C36.1661 15.2442 36.0048 15.0309 36.024 14.791C36.0691 14.2371 36.1452 13.6788 36.2501 13.1316C36.3013 12.864 36.567 12.6871 36.8439 12.7367C37.1195 12.7867 37.303 13.0436 37.2518 13.3116C37.1535 13.8251 37.0822 14.3489 37.0396 14.8687C37.0175 15.1403 36.7722 15.3429 36.4917 15.3215C36.4589 15.3191 36.4274 15.3136 36.3967 15.3057L36.3971 15.3053ZM37.3382 11.1574C37.3243 11.1538 37.3099 11.1495 37.296 11.1443C37.0319 11.0503 36.8967 10.7668 36.9938 10.5111C37.192 9.98929 37.4209 9.47145 37.674 8.97264C37.7981 8.7284 38.1036 8.62729 38.3554 8.74743C38.6077 8.86757 38.7121 9.16297 38.588 9.40722C38.3505 9.87549 38.1355 10.3612 37.9496 10.8513C37.8575 11.0932 37.59 11.2236 37.3382 11.1566V11.1574ZM39.3973 7.40803C39.3399 7.39296 39.2846 7.36758 39.2335 7.33229C39.0053 7.1729 38.9537 6.86481 39.1184 6.64396C39.4546 6.19273 39.8191 5.75419 40.2016 5.34024C40.3891 5.13723 40.711 5.11938 40.9207 5.30138C41.1304 5.48298 41.1484 5.79464 40.9608 5.99765C40.6021 6.38623 40.2601 6.7978 39.9444 7.22127C39.8166 7.39256 39.5959 7.46116 39.3969 7.40842L39.3973 7.40803ZM42.4253 4.33708C42.3245 4.31051 42.2312 4.25341 42.1611 4.16816C41.9863 3.95484 42.0231 3.64477 42.2435 3.47547C42.6935 3.12971 43.1669 2.80339 43.6514 2.50561C43.8889 2.35969 44.2034 2.4275 44.3545 2.65747C44.5053 2.88744 44.4348 3.19196 44.1977 3.33827C43.7431 3.61741 43.2988 3.92352 42.8766 4.24786C42.7447 4.34937 42.5764 4.37712 42.4253 4.33708ZM46.2023 2.17968C46.0561 2.14082 45.9292 2.04011 45.8665 1.89419C45.758 1.64281 45.8804 1.35415 46.1401 1.24908C46.4501 1.12378 46.7695 1.00522 47.0898 0.896977C47.3134 0.82164 47.541 0.749873 47.7663 0.684052C48.0358 0.604751 48.3196 0.752648 48.401 1.01355C48.4825 1.27406 48.3302 1.54923 48.0607 1.62814C47.849 1.68999 47.6348 1.7574 47.4252 1.82837C47.1242 1.92988 46.824 2.04169 46.5328 2.15946C46.4239 2.20347 46.308 2.20823 46.2027 2.18047L46.2023 2.17968ZM50.4405 1.08492C50.2472 1.03377 50.0957 0.874376 50.069 0.670175C50.0342 0.399756 50.2324 0.153525 50.5113 0.119822C51.0818 0.0508299 51.6617 0.0107827 52.2358 7.69507e-05C52.518 -0.00468114 52.7494 0.211812 52.7547 0.483816C52.76 0.756217 52.5364 0.981036 52.2551 0.986191C51.7165 0.996104 51.1723 1.03377 50.6375 1.0984C50.5695 1.10673 50.5027 1.10118 50.4405 1.08492Z" fill="#F0EEEE"/>
<path id="Vector_5" d="M54.8335 1.14465C54.5874 1.07963 54.4252 0.844497 54.465 0.594301C54.5076 0.325072 54.7676 0.1403 55.0453 0.181537C55.3192 0.22198 55.5973 0.270354 55.8721 0.325072C56.1465 0.37979 56.325 0.640692 56.2685 0.907542C56.2116 1.17439 55.9425 1.34608 55.6669 1.29136C55.4089 1.23981 55.1476 1.19461 54.8909 1.15655C54.8712 1.15377 54.852 1.14981 54.8331 1.14465H54.8335Z" fill="#F0EEEE"/>
</g>
<g id="Group_4" opacity="0.64">
<path id="Vector_6" d="M66.0652 8.32667C65.9452 8.29495 65.8371 8.2208 65.7662 8.11018C65.6295 7.89566 65.4841 7.68076 65.3346 7.4714C65.1745 7.24737 65.2326 6.94048 65.464 6.78544C65.695 6.63041 66.0124 6.68632 66.1725 6.91074C66.3318 7.13397 66.4866 7.36316 66.6328 7.59154C66.7806 7.8231 66.7065 8.12723 66.4673 8.27036C66.3424 8.3453 66.1966 8.36156 66.0652 8.32667Z" fill="#F0EEEE"/>
<path id="Vector_7" d="M51.9234 32.0657C51.7014 32.007 51.5417 31.8072 51.5491 31.5748C51.5577 31.3028 51.7927 31.0887 52.0737 31.097C52.6032 31.1129 53.1401 31.1018 53.6692 31.0645C53.9493 31.0447 54.1938 31.2489 54.2143 31.5205C54.2347 31.7921 54.0238 32.0284 53.7433 32.0482C53.1794 32.0883 52.6073 32.0998 52.0426 32.0831C52.0012 32.0819 51.9615 32.076 51.9234 32.0661V32.0657ZM56.216 31.6275C56.0436 31.5819 55.9007 31.4491 55.8552 31.2691C55.7881 31.0046 55.9551 30.7378 56.2287 30.6727C56.7111 30.5582 57.1952 30.4194 57.6674 30.26L57.7583 30.2291C58.0232 30.1379 58.3148 30.2715 58.409 30.528C58.5032 30.7846 58.3652 31.0665 58.1002 31.1581L58.0032 31.1914C57.5007 31.3611 56.9855 31.509 56.4715 31.6307C56.3843 31.6513 56.2971 31.6489 56.2164 31.6275H56.216ZM60.2338 30.1022C60.1065 30.0685 59.9922 29.9868 59.923 29.8662C59.7862 29.6283 59.8751 29.3278 60.1208 29.1958C60.584 28.9464 61.039 28.6708 61.4726 28.377C61.7032 28.2207 62.0206 28.2747 62.1819 28.4983C62.3433 28.7215 62.2872 29.0288 62.0566 29.185C61.5943 29.4983 61.1094 29.7921 60.6159 30.0578C60.4947 30.1228 60.3579 30.1351 60.2343 30.1026L60.2338 30.1022ZM63.6853 27.5978C63.6018 27.5756 63.5227 27.5324 63.4576 27.4686C63.2602 27.2747 63.2623 26.9626 63.4625 26.7711C63.8397 26.4111 64.2017 26.0273 64.5392 25.6312C64.7181 25.421 65.0388 25.3909 65.2562 25.5641C65.4733 25.7374 65.5044 26.0483 65.3254 26.2584C64.9659 26.6807 64.5801 27.0895 64.1784 27.4733C64.0445 27.6014 63.8553 27.6426 63.6857 27.5978H63.6853ZM66.3222 24.2906C66.2809 24.2799 66.2407 24.2636 66.2018 24.2418C65.9582 24.1058 65.8746 23.8044 66.0151 23.5685C66.2796 23.124 66.5241 22.6609 66.7408 22.1918C66.8554 21.9432 67.1577 21.8318 67.4136 21.9432C67.6704 22.0547 67.785 22.3461 67.6704 22.5947C67.4394 23.0943 67.1794 23.5876 66.8976 24.061C66.7793 24.2596 66.5405 24.3481 66.3222 24.2906ZM67.9583 20.4238C67.6896 20.3528 67.5295 20.0852 67.5999 19.8239C67.7334 19.3275 67.842 18.8184 67.9222 18.3108C67.9648 18.0416 68.2245 17.8568 68.5025 17.8981C68.7826 17.9397 68.9714 18.1907 68.9288 18.4599C68.8433 19.0012 68.7278 19.5436 68.5852 20.0729C68.5144 20.3362 68.2359 20.4944 67.964 20.4258L67.9583 20.4242V20.4238ZM68.4734 16.2756C68.2605 16.2193 68.1024 16.0321 68.0987 15.8077C68.0905 15.2946 68.0541 14.776 67.991 14.2661C67.9574 13.9956 68.1569 13.7502 68.4362 13.7177C68.7155 13.6852 68.969 13.8783 69.0026 14.1487C69.0697 14.6923 69.1086 15.245 69.1176 15.7922C69.1221 16.0646 68.8977 16.2886 68.6164 16.293C68.5668 16.2938 68.5189 16.2875 68.4739 16.2756H68.4734ZM67.8231 12.1443C67.6585 12.1007 67.5201 11.9778 67.4685 11.8073C67.3956 11.5666 67.3149 11.3236 67.2285 11.0845C67.1396 10.8379 67.043 10.59 66.9406 10.3478C66.8345 10.0956 66.9594 9.80773 67.2199 9.70503C67.4804 9.60234 67.7777 9.72327 67.8837 9.97545C67.9923 10.2336 68.0955 10.4977 68.1901 10.7597C68.2818 11.0139 68.3674 11.2728 68.4452 11.5294C68.5246 11.7907 68.3698 12.0646 68.1 12.1416C68.0062 12.1681 67.9104 12.1677 67.8227 12.1443H67.8231Z" fill="#F0EEEE"/>
<path id="Vector_8" d="M48.4625 31.5925C48.1951 31.5219 48.0345 31.2562 48.1033 30.9949C48.1729 30.7308 48.4498 30.5718 48.7225 30.6389C48.9752 30.7011 49.234 30.7582 49.4912 30.8086C49.7676 30.8637 49.9454 31.1222 49.8901 31.389C49.8344 31.6563 49.5661 31.8288 49.2905 31.7752C49.0161 31.7217 48.7405 31.6611 48.4711 31.5944C48.4682 31.5936 48.4653 31.5929 48.4625 31.5921V31.5925Z" fill="#F0EEEE"/>
</g>
</g>
<path id="Vector_9" d="M51.5902 23.1796C51.4939 23.1542 51.4292 23.0634 51.4419 22.965C51.4431 22.9555 51.4452 22.9464 51.4476 22.9373C51.4738 22.8441 51.5676 22.7815 51.6692 22.7937C52.1618 22.8532 52.6647 22.8615 53.1648 22.8187C56.7379 22.5122 59.4555 19.6526 59.5664 16.2645C59.5755 15.994 59.5673 15.7197 59.5423 15.4433C59.2007 11.7078 55.7837 8.93819 51.9251 9.26848C50.0561 9.42867 48.3631 10.2843 47.1587 11.6773C46.4985 12.4405 46.0288 13.3148 45.7655 14.247C45.5485 15.0166 45.4723 15.8255 45.5472 16.6435C45.6594 17.8719 46.1124 19.0452 46.8573 20.0372C46.895 20.0876 46.9048 20.1494 46.8888 20.2053C46.8769 20.247 46.8511 20.2854 46.8122 20.3128C46.7213 20.377 46.594 20.3572 46.5276 20.2692C45.7397 19.2196 45.2606 17.9778 45.1414 16.6784C45.0623 15.8128 45.1426 14.9568 45.3719 14.1427C45.65 13.1562 46.1476 12.2312 46.8458 11.4239C48.1203 9.95008 49.9111 9.04525 51.8887 8.87554C55.9708 8.52542 59.5861 11.4564 59.9477 15.4084C60.0276 16.2815 59.942 17.1328 59.7163 17.933C58.9202 20.7541 56.3804 22.9385 53.2 23.2113C52.7139 23.2529 52.2249 23.2485 51.7445 23.199C51.7298 23.1974 51.7155 23.1958 51.7007 23.1942C51.6733 23.191 51.6458 23.1879 51.618 23.1847C51.6082 23.1835 51.5983 23.1815 51.5893 23.1792L51.5902 23.1796Z" fill="#F0EEEE"/>
</g>
<g id="Group_5">
<g id="Group_6" opacity="0.64">
<path id="Vector_10" d="M0.131072 33.5753C0.0328468 33.4888 -0.0187215 33.3564 0.00624414 33.2204C0.0443064 33.0142 0.0852337 32.808 0.128617 32.6026C0.172818 32.3933 0.384412 32.2581 0.600507 32.3009C0.817012 32.3437 0.956165 32.5483 0.911963 32.7581C0.869808 32.9575 0.830109 33.1569 0.793274 33.3568C0.754394 33.5673 0.546893 33.7077 0.329569 33.67C0.252626 33.6565 0.184687 33.6228 0.131072 33.5757V33.5753Z" fill="#F0EEEE"/>
<path id="Vector_11" d="M47.4771 26.0645C47.4451 26.0363 47.4173 26.0026 47.3956 25.9638C47.2948 25.7857 47.1916 25.6085 47.0864 25.4328C46.9754 25.2481 47.0405 25.011 47.2313 24.9035C47.4222 24.7961 47.6671 24.8591 47.7781 25.0439C47.887 25.2255 47.9931 25.4079 48.0971 25.5918C48.2031 25.7794 48.1323 26.0149 47.9386 26.1176C47.785 26.1993 47.5999 26.1727 47.4771 26.0645Z" fill="#F0EEEE"/>
</g>
<g id="Group_7" opacity="0.64">
<path id="Vector_12" d="M51.1238 45.1079C51.0141 45.0112 50.9642 44.8585 51.0092 44.7114C51.0685 44.5163 51.1258 44.3209 51.1799 44.1246C51.2372 43.918 51.4565 43.7955 51.6698 43.8506C51.883 43.9061 52.0095 44.1182 51.9526 44.3252C51.8965 44.5274 51.838 44.7293 51.7762 44.9311C51.7135 45.1361 51.4913 45.2534 51.2793 45.1928C51.2196 45.1757 51.1672 45.1464 51.1238 45.1083V45.1079Z" fill="#F0EEEE"/>
<path id="Vector_13" d="M9.62922 56.3856C9.46623 56.242 9.45394 55.9974 9.60178 55.8392C9.75003 55.6806 10.0031 55.6683 10.1669 55.8118C10.4827 56.0886 10.8103 56.3614 11.1416 56.6227C11.3128 56.7571 11.3382 57.0017 11.1985 57.1675C11.0589 57.3332 10.807 57.3578 10.6358 57.2226C10.2943 56.953 9.95602 56.6711 9.63004 56.3856L9.62922 56.3848V56.3856ZM8.11808 54.9447C8.10989 54.9375 8.10211 54.93 8.09433 54.9221C7.79414 54.6104 7.49806 54.2873 7.21467 53.9609C7.07256 53.7972 7.09427 53.5529 7.2634 53.4153C7.43254 53.2777 7.6848 53.2988 7.82691 53.4625C8.10129 53.7785 8.38836 54.0918 8.67913 54.3935C8.82983 54.5497 8.82123 54.7952 8.65947 54.9411C8.50631 55.0799 8.27001 55.0791 8.11767 54.9447H8.11808ZM12.3169 58.4399C12.1715 58.3118 12.1425 58.0961 12.2567 57.9347C12.3816 57.7583 12.6306 57.7135 12.8129 57.8344C13.1642 58.068 13.5271 58.2955 13.8911 58.512C14.0791 58.6243 14.1385 58.8626 14.023 59.0445C13.9075 59.2269 13.661 59.284 13.473 59.1722C13.0975 58.9494 12.7232 58.7139 12.3607 58.4732C12.3452 58.4629 12.3308 58.4518 12.3173 58.4399H12.3169ZM5.95579 52.3725C5.9345 52.3539 5.91525 52.3329 5.89805 52.3091C5.64456 51.9617 5.39638 51.6025 5.1605 51.2417C5.04256 51.0609 5.09825 50.8218 5.28499 50.7072C5.47174 50.593 5.71827 50.6473 5.83703 50.8277C6.06514 51.1774 6.30553 51.5252 6.55124 51.8618C6.6786 52.0367 6.63601 52.2782 6.45541 52.4015C6.29938 52.5081 6.09135 52.4915 5.95579 52.3721V52.3725ZM15.2643 60.1298C15.1344 60.0156 15.0935 59.8277 15.1766 59.6687C15.2765 59.4779 15.5169 59.4014 15.7143 59.4978C16.0952 59.6845 16.4859 59.8637 16.8753 60.0307C17.0776 60.1175 17.1685 60.3463 17.0789 60.5418C16.9892 60.7372 16.7529 60.8257 16.551 60.7388C16.1492 60.5663 15.7463 60.3816 15.3531 60.1889C15.32 60.1726 15.2905 60.1528 15.2643 60.1298ZM18.4168 61.4244C18.3021 61.3233 18.2538 61.1619 18.3078 61.0108C18.3803 60.8086 18.608 60.7016 18.8169 60.7717C19.2194 60.9069 19.6314 61.0338 20.0409 61.1484C20.2535 61.2079 20.3755 61.4228 20.3141 61.6282C20.2527 61.8336 20.0307 61.9521 19.8186 61.8927C19.3955 61.7741 18.9704 61.6433 18.5548 61.5037C18.502 61.4858 18.4557 61.4585 18.4168 61.4244ZM21.7208 62.2955C21.6201 62.2071 21.5689 62.0711 21.5975 61.9327C21.641 61.723 21.8519 61.587 22.0685 61.629C22.4862 61.7103 22.9113 61.7816 23.3319 61.8415C23.5506 61.8728 23.7017 62.0695 23.6693 62.2812C23.637 62.493 23.4338 62.6393 23.2152 62.608C22.7807 62.5461 22.3421 62.4724 21.9112 62.3887C21.8375 62.3744 21.7728 62.3415 21.7208 62.2959V62.2955ZM25.1137 62.7253C25.0269 62.6488 24.9757 62.5366 24.9835 62.4145C24.9974 62.2007 25.1874 62.0386 25.4077 62.0521C25.832 62.0778 26.2632 62.0933 26.6904 62.0977C26.9115 62.1 27.0884 62.2753 27.086 62.489C27.0835 62.7027 26.9025 62.8744 26.6818 62.872C26.2411 62.8673 25.796 62.8514 25.3582 62.8249C25.2636 62.8193 25.1792 62.782 25.1141 62.7249L25.1137 62.7253ZM28.5365 62.7087C28.4632 62.644 28.4145 62.5532 28.4067 62.4502C28.3907 62.2368 28.5566 62.0513 28.7769 62.0358C29.2016 62.0061 29.6316 61.9652 30.055 61.9141C30.2745 61.8879 30.474 62.0386 30.5014 62.2507C30.5284 62.4628 30.3728 62.6563 30.1537 62.6829C29.7168 62.7356 29.2728 62.7777 28.8346 62.8082C28.7208 62.8161 28.6147 62.7773 28.5365 62.7083V62.7087ZM31.927 62.2479C31.8668 62.1948 31.8229 62.1238 31.8049 62.041C31.7595 61.8316 31.8983 61.6262 32.1145 61.5826C32.5314 61.4981 32.952 61.4018 33.3648 61.2967C33.5782 61.2424 33.7972 61.3657 33.8534 61.5727C33.9095 61.7797 33.7821 61.9914 33.5683 62.0457C33.1424 62.1544 32.7083 62.2535 32.2779 62.3407C32.1473 62.3673 32.0183 62.3288 31.9265 62.2479H31.927ZM35.2244 61.3526C35.1773 61.311 35.1397 61.2579 35.1167 61.1956C35.043 60.9942 35.152 60.7725 35.3604 60.7012C35.7626 60.5632 36.1663 60.4133 36.5607 60.2559C36.7651 60.1742 36.9985 60.2686 37.0833 60.466C37.1676 60.6639 37.0702 60.8903 36.8662 60.972C36.4592 61.1345 36.0427 61.2892 35.6278 61.4315C35.4841 61.4807 35.3301 61.4458 35.2248 61.3526H35.2244ZM38.3692 60.0386C38.3348 60.0085 38.3053 59.9716 38.2828 59.9292C38.1816 59.7388 38.2594 59.5053 38.4556 59.4078C38.8344 59.2194 39.214 59.0184 39.5838 58.8106C39.7747 58.7032 40.02 58.7662 40.1305 58.951C40.2415 59.1357 40.1764 59.3729 39.9856 59.4803C39.6039 59.6948 39.2124 59.9022 38.8213 60.0965C38.6685 60.1726 38.4892 60.1441 38.3692 60.0386ZM41.3038 58.3273C41.2821 58.3082 41.2625 58.2864 41.2448 58.2622C41.1183 58.087 41.1625 57.8455 41.3435 57.723C41.6937 57.4863 42.0418 57.2373 42.3788 56.9835C42.5529 56.8523 42.8043 56.882 42.9403 57.0513C43.0758 57.2202 43.0447 57.4633 42.8702 57.5949C42.5226 57.857 42.163 58.1139 41.8018 58.3582C41.6458 58.4637 41.439 58.4466 41.3038 58.3277V58.3273ZM43.9731 56.2476C43.9645 56.2401 43.9559 56.2321 43.9481 56.2234C43.7982 56.0664 43.8085 55.8209 43.9706 55.6762C44.2839 55.3963 44.5935 55.1045 44.8916 54.8091C45.046 54.656 45.2954 54.6516 45.4572 54.8027C45.6153 54.9522 45.6181 55.1972 45.4638 55.3503C45.1562 55.6552 44.8364 55.9566 44.5132 56.2452C44.3597 56.3824 44.1246 56.3812 43.9731 56.2476ZM46.325 53.838C46.1681 53.7 46.1493 53.4653 46.2857 53.3051C46.5564 52.9875 46.8226 52.658 47.0777 52.3253C47.2095 52.1536 47.4598 52.1176 47.6375 52.2452C47.8152 52.3733 47.8521 52.6152 47.7202 52.7873C47.4573 53.1306 47.1821 53.4708 46.9028 53.7984C46.7624 53.9633 46.5101 53.9867 46.3397 53.8507C46.3348 53.8467 46.3295 53.8424 46.325 53.8384V53.838ZM48.3218 51.1437C48.1818 51.0204 48.1482 50.8142 48.2518 50.6533C48.3607 50.4836 48.4676 50.3123 48.5724 50.1394C48.6851 49.9538 48.7952 49.7671 48.9021 49.5795C49.009 49.3924 49.2527 49.3246 49.446 49.4281C49.6388 49.5315 49.7093 49.7675 49.6024 49.9546C49.4918 50.1477 49.3788 50.3404 49.2621 50.5319C49.154 50.7104 49.0434 50.8872 48.9312 51.0621C48.8149 51.2437 48.5679 51.2996 48.3804 51.1866C48.3591 51.1739 48.3398 51.1596 48.3218 51.1437ZM49.9321 48.2167C49.8076 48.1069 49.7637 47.9281 49.8366 47.7714C50.0115 47.3944 50.1786 47.0086 50.3334 46.624C50.4137 46.4245 50.6455 46.3258 50.8514 46.4035C51.057 46.4812 51.159 46.7056 51.0791 46.9051C50.9198 47.302 50.747 47.7001 50.5664 48.0891C50.4759 48.2841 50.2392 48.371 50.0377 48.2833C49.998 48.2663 49.9628 48.2433 49.9325 48.2167H49.9321Z" fill="#F0EEEE"/>
<path id="Vector_14" d="M4.1658 49.5283C4.13181 49.4986 4.10273 49.4621 4.08021 49.4205C3.98028 49.2345 3.88282 49.047 3.78781 48.859C3.69075 48.6667 3.77306 48.4348 3.97168 48.3412C4.1703 48.2472 4.40987 48.3269 4.50652 48.5192C4.59866 48.7016 4.69326 48.8832 4.78991 49.0636C4.89188 49.2532 4.81571 49.4871 4.61955 49.5858C4.4668 49.6628 4.2862 49.635 4.1658 49.5287V49.5283Z" fill="#F0EEEE"/>
</g>
<g id="Group_8">
<path id="Vector_15" d="M4.94298 44.0629C4.97451 44.1981 5.09123 44.2988 5.23333 44.3142L9.29089 44.7476C10.1239 46.4078 11.2361 47.9514 12.6125 49.3051L11.678 53.1496C11.6452 53.2844 11.7042 53.4248 11.8254 53.4985L15.9653 56.0298C16.0865 56.1036 16.2426 56.0953 16.3539 56.0088L19.5376 53.539C21.3915 54.1599 23.3089 54.4692 25.2152 54.4839L27.3636 57.8447C27.4389 57.9624 27.5831 58.0211 27.7227 57.9906L32.4986 56.9462C32.6382 56.9156 32.7423 56.8026 32.7582 56.665L33.2058 52.7365C34.9205 51.93 36.5148 50.853 37.9129 49.5204L41.8836 50.4256C42.0229 50.4573 42.1674 50.4002 42.244 50.2829L44.8584 46.2746C44.935 46.1576 44.926 46.0061 44.8367 45.8983L42.2858 42.8158C42.9275 41.0208 43.2465 39.1644 43.2617 37.3187L46.7328 35.2386C46.8544 35.1656 46.915 35.026 46.8835 34.8908L45.8048 30.2668C45.7733 30.1316 45.6566 30.0308 45.5145 30.0154L41.4569 29.582C40.6239 27.9218 39.5117 26.3782 38.1353 25.0245L39.0702 21.18C39.103 21.0452 39.044 20.9052 38.9228 20.8311L34.7829 18.2998C34.6621 18.2256 34.5057 18.2344 34.3943 18.3208L31.2106 20.7906C29.3567 20.1693 27.4389 19.8604 25.533 19.8458L23.3846 16.485C23.3093 16.3672 23.1651 16.3085 23.0255 16.339L18.2496 17.3835C18.11 17.414 18.006 17.527 17.99 17.6646L17.5424 21.5932C15.8277 22.3997 14.2334 23.477 12.8353 24.8092L8.86457 23.904C8.72534 23.8723 8.58077 23.9294 8.50419 24.0468L5.8898 28.0551C5.81321 28.172 5.82222 28.3235 5.9115 28.4313L8.46242 31.5138C7.82111 33.3088 7.50168 35.1652 7.48653 37.011L4.01541 39.091C3.89378 39.164 3.83317 39.3036 3.8647 39.4388L4.94339 44.0629H4.94298Z" fill="#007CA6"/>
<path id="Vector_16" d="M22.2119 40.5334C21.7946 40.1658 21.4461 39.7241 21.1832 39.2225C20.6151 38.1384 20.5173 36.9057 20.9075 35.7503C21.2974 34.5953 22.1287 33.6563 23.2484 33.1064C24.368 32.5564 25.6412 32.4617 26.8346 32.8395C29.2979 33.6187 30.646 36.1932 29.8409 38.5782C29.0358 40.9628 26.3767 42.2685 23.9139 41.4889C23.273 41.2859 22.6959 40.9596 22.2119 40.5334ZM28.0586 34.2987C27.6544 33.9426 27.1683 33.6619 26.6159 33.487C25.6015 33.1659 24.5183 33.2463 23.5662 33.7142C22.6144 34.1817 21.9072 34.9803 21.5755 35.9624C21.2438 36.945 21.3269 37.9933 21.8097 38.9148C22.2926 39.8367 23.1173 40.5211 24.1317 40.8422C26.226 41.5052 28.487 40.3946 29.1717 38.3668C29.6759 36.8736 29.1869 35.2931 28.0578 34.2987H28.0586Z" fill="#F0EEEE"/>
<path id="Vector_17" d="M17.3921 45.713C17.3552 45.6804 17.3184 45.6479 17.2819 45.615C17.2815 45.6138 17.2803 45.6134 17.2795 45.6126C17.2619 45.5964 17.2438 45.5805 17.2262 45.5643C17.225 45.5635 17.225 45.5631 17.2242 45.5627C17.223 45.5615 17.2213 45.5599 17.2201 45.5587C17.1742 45.5167 17.1288 45.4743 17.0837 45.4314C17.0788 45.4267 17.0739 45.4223 17.0686 45.4172C17.001 45.3529 16.9981 45.2486 17.0616 45.1812C17.0632 45.1797 17.0645 45.1781 17.0661 45.1765C17.1341 45.1095 17.2467 45.1095 17.3147 45.1741C17.9019 45.732 18.5564 46.2324 19.2587 46.6622C24.0993 49.6217 30.3535 48.688 34.0798 44.7217C34.5306 44.2419 34.9443 43.7177 35.3141 43.1507C38.7405 37.897 37.1151 30.9236 31.6873 27.6057C26.8468 24.6461 20.5925 25.5799 16.8663 29.5462C16.4154 30.0259 16.0018 30.5501 15.632 31.1171C14.5054 32.8443 13.8841 34.8312 13.8358 36.8625C13.835 36.9049 13.8178 36.9438 13.7903 36.9727C13.7572 37.008 13.7092 37.0298 13.656 37.0286C13.5589 37.0263 13.4824 36.9486 13.4844 36.8546C13.5344 34.7618 14.1745 32.715 15.3351 30.9355C15.7159 30.3515 16.1422 29.8114 16.6066 29.3174C20.4455 25.2314 26.8885 24.269 31.8757 27.3182C37.4657 30.7361 39.1419 37.9204 35.6118 43.3331C35.2309 43.9172 34.8046 44.4572 34.3402 44.9513C30.5013 49.0369 24.0583 49.9996 19.0711 46.9505C18.474 46.5853 17.911 46.1701 17.3917 45.7134L17.3921 45.713Z" fill="#F0EEEE"/>
</g>
</g>
<g id="Group_9">
<g id="Group_10" opacity="0.64">
<path id="Vector_18" d="M28.4875 66.3645C28.1239 66.2888 27.8397 65.9891 27.8106 65.6116C27.7758 65.1596 27.7504 64.7008 27.7344 64.248C27.718 63.788 28.0903 63.4026 28.5649 63.3872C29.0396 63.3721 29.438 63.7317 29.454 64.1913C29.4691 64.6219 29.4937 65.0585 29.5265 65.4883C29.5617 65.947 29.2062 66.3463 28.7324 66.3804C28.6485 66.3864 28.5662 66.3804 28.4875 66.3642V66.3645Z" fill="#F0EEEE"/>
<path id="Vector_19" d="M88.8889 40.7321C88.7234 40.6976 88.5662 40.6156 88.4417 40.4867C88.1354 40.1695 87.8208 39.8558 87.5063 39.5553C87.1685 39.2317 87.1656 38.7044 87.4994 38.3773C87.8335 38.0501 88.3782 38.047 88.7161 38.3705C89.0461 38.6865 89.3766 39.016 89.6985 39.3491C90.0228 39.6853 90.0044 40.2123 89.6576 40.5263C89.4438 40.7198 89.1547 40.7872 88.8885 40.7321H88.8889Z" fill="#F0EEEE"/>
</g>
<g id="Group_11" opacity="0.64">
<path id="Vector_20" d="M98.9144 67.8272C98.5089 67.7427 98.2149 67.3843 98.237 66.9703C98.2595 66.5381 98.2739 66.1012 98.2788 65.6717C98.2841 65.2118 98.6736 64.843 99.149 64.8482C99.6249 64.8537 100.005 65.2304 99.9996 65.6908C99.9943 66.142 99.9795 66.6012 99.9558 67.0556C99.9316 67.5151 99.5274 67.8684 99.0528 67.845C99.0057 67.8426 98.9594 67.8367 98.9148 67.8276L98.9144 67.8272Z" fill="#F0EEEE"/>
<path id="Vector_21" d="M56.3942 99.1699L56.3873 99.1683C55.6722 99.0137 54.9531 98.8356 54.2492 98.639C54.0735 98.5898 53.8978 98.5394 53.7229 98.4879C53.2683 98.3535 53.0128 97.8876 53.1516 97.4479C53.2905 97.0077 53.7716 96.7595 54.2258 96.8947C54.3921 96.9439 54.5583 96.9919 54.7258 97.0383C55.3966 97.2258 56.0818 97.3955 56.7624 97.5426C57.2264 97.6429 57.518 98.0882 57.4144 98.5375C57.3112 98.9839 56.8554 99.2662 56.3942 99.1703V99.1699ZM60.7049 99.8336C60.2839 99.746 59.9882 99.3654 60.0304 98.9403C60.0759 98.4823 60.4956 98.1465 60.9686 98.1905C61.8343 98.2706 62.7148 98.319 63.5851 98.3341C64.0597 98.3416 64.4381 98.7218 64.4299 99.1818C64.4213 99.6417 64.0294 100.008 63.5543 99.9998C62.6395 99.9839 61.7144 99.9332 60.8048 99.8487C60.7708 99.8455 60.7376 99.8404 60.7049 99.8336ZM49.7039 97.0264C49.6465 97.0145 49.5892 96.9966 49.5331 96.9725C48.6964 96.6108 47.8647 96.2135 47.062 95.792C46.6443 95.5728 46.4895 95.0672 46.716 94.6624C46.9424 94.2584 47.4638 94.1081 47.8823 94.3274C48.6465 94.7286 49.4377 95.1069 50.2342 95.4507C50.6679 95.6382 50.8628 96.1307 50.6691 96.551C50.5004 96.9169 50.0925 97.1073 49.7034 97.0264H49.7039ZM67.7503 99.7904C67.3973 99.7171 67.1168 99.432 67.0758 99.0656C67.0247 98.608 67.3662 98.1973 67.8384 98.1477C68.7033 98.0569 69.5752 97.9324 70.4298 97.777C70.8971 97.6925 71.3463 97.9899 71.434 98.4423C71.5216 98.8943 71.2141 99.3297 70.7468 99.4145C69.8487 99.5775 68.9326 99.7087 68.0239 99.8039C67.9301 99.8138 67.838 99.8087 67.7503 99.7904ZM43.5913 93.6287C43.4791 93.6053 43.3698 93.5597 43.2706 93.4907C42.5286 92.9749 41.7972 92.4233 41.0969 91.8519C40.7337 91.5554 40.6874 91.03 40.9933 90.6783C41.2996 90.3266 41.8418 90.2818 42.2055 90.578C42.8722 91.122 43.5684 91.6466 44.2744 92.1378C44.6602 92.4063 44.7486 92.9265 44.4714 93.3004C44.2654 93.5779 43.9156 93.6965 43.5913 93.6291V93.6287ZM74.6389 98.3741C74.3477 98.3134 74.0971 98.108 73.9997 97.8138C73.8547 97.3757 74.1037 96.9066 74.5562 96.7663C75.3843 96.5093 76.2131 96.2175 77.0203 95.8991C77.4601 95.7254 77.9626 95.9304 78.1416 96.3563C78.3209 96.7821 78.1096 97.2682 77.6694 97.4419C76.8221 97.7762 75.9514 98.0827 75.082 98.3527C74.9334 98.3987 74.7814 98.4038 74.6393 98.3741H74.6389ZM81.0971 95.6501C80.8641 95.6017 80.6532 95.4606 80.5271 95.2433C80.2944 94.842 80.4419 94.3345 80.8563 94.1093C81.6164 93.6961 82.3691 93.25 83.0927 92.7833C83.4879 92.5284 84.0227 92.6323 84.2857 93.0149C84.549 93.3975 84.4421 93.915 84.0465 94.1699C83.2864 94.66 82.4965 95.1287 81.6983 95.5625C81.5079 95.666 81.2945 95.6917 81.0967 95.6505L81.0971 95.6501ZM86.8652 91.7326C86.6887 91.6957 86.5225 91.6053 86.3955 91.4626C86.0847 91.1145 86.1248 90.5883 86.4844 90.2877C87.1437 89.7366 87.7891 89.1537 88.4022 88.5554C88.7372 88.2291 89.2823 88.2271 89.6189 88.551C89.9563 88.875 89.958 89.4023 89.6234 89.7291C88.9788 90.3575 88.301 90.9697 87.6085 91.5486C87.3964 91.7263 87.1196 91.7853 86.8648 91.7326H86.8652ZM91.7079 86.7739C91.5866 86.7485 91.4691 86.6978 91.3647 86.6196C90.9883 86.3389 90.9179 85.8159 91.2078 85.4515C91.7394 84.783 92.2505 84.0864 92.7263 83.3806C92.986 82.9952 93.5192 82.8869 93.9168 83.1387C94.3149 83.3901 94.4267 83.9063 94.1666 84.2913C93.6666 85.0328 93.1297 85.7652 92.5711 86.4678C92.3619 86.7311 92.0224 86.8393 91.7079 86.7743V86.7739ZM95.4186 80.9734C95.3522 80.9595 95.2863 80.9377 95.2224 80.9079C94.7953 80.7069 94.6171 80.2081 94.8252 79.7946C95.2052 79.038 95.5603 78.2561 95.8801 77.471C96.0545 77.0432 96.5546 76.8323 96.996 77.002C97.4379 77.1709 97.655 77.6546 97.4805 78.0824C97.1443 78.9072 96.7716 79.7283 96.3723 80.5229C96.1954 80.875 95.7965 81.0519 95.4186 80.9734ZM97.8487 74.571C97.8372 74.5686 97.8253 74.5658 97.8139 74.563C97.3536 74.4481 97.0771 73.9937 97.1955 73.5484C97.3126 73.1094 97.4219 72.6618 97.5206 72.2173C97.6058 71.8343 97.6836 71.4505 97.7541 71.0674C97.8372 70.6146 98.284 70.3129 98.7517 70.3934C99.2247 70.4723 99.5314 70.9064 99.4479 71.3593C99.3737 71.7621 99.2918 72.1646 99.2025 72.5674C99.0989 73.0341 98.9843 73.504 98.8614 73.9647C98.7455 74.3989 98.2971 74.6645 97.8483 74.5714L97.8487 74.571Z" fill="#F0EEEE"/>
<path id="Vector_22" d="M38.2975 89.0902C38.1296 89.0553 37.9711 88.9717 37.8462 88.8404C37.5288 88.507 37.2143 88.1632 36.9117 87.8186C36.6037 87.4685 36.6475 86.9427 37.0092 86.6446C37.3712 86.3464 37.9142 86.3884 38.2218 86.7389C38.5101 87.0668 38.8094 87.394 39.1112 87.7116C39.4331 88.0498 39.411 88.5771 39.0613 88.8888C38.8475 89.0795 38.5608 89.1453 38.2971 89.0902H38.2975Z" fill="#F0EEEE"/>
</g>
<g id="Group_12">
<path id="Vector_23" d="M39.9161 83.6611C40.0172 83.8352 40.2212 83.928 40.4239 83.8919L46.2104 82.8705C48.0676 84.83 50.261 86.5172 52.7374 87.8367L53.0843 93.5179C53.0966 93.7173 53.2379 93.8871 53.4365 93.941L60.2305 95.7828C60.4291 95.8367 60.6408 95.7625 60.7583 95.5984L64.1017 90.9176C66.9258 91.035 69.7048 90.696 72.343 89.9549L76.7404 93.7372C76.8944 93.8696 77.1184 93.893 77.2982 93.7951L83.4472 90.4462C83.627 90.3482 83.7228 90.1508 83.6855 89.9545L82.6306 84.3518C84.6545 82.5537 86.397 80.43 87.7599 78.0323L93.6279 77.6965C93.8335 77.6846 94.0092 77.5478 94.0649 77.3555L95.9671 70.7774C96.0228 70.5851 95.9462 70.3801 95.7767 70.2663L90.9423 67.0292C91.0635 64.2949 90.7138 61.6042 89.9484 59.0499L93.8548 54.7922C93.9916 54.6431 94.0158 54.4262 93.9146 54.2522L90.4558 48.2986C90.3546 48.1245 90.1507 48.0318 89.948 48.0678L84.1614 49.0892C82.3042 47.1297 80.1108 45.4426 77.6344 44.123L77.2875 38.4414C77.2752 38.2424 77.134 38.0723 76.9353 38.0184L70.1414 36.1766C69.9427 36.1227 69.731 36.1968 69.6135 36.361L66.2701 41.0417C63.446 40.9244 60.6666 41.2634 58.0285 42.0041L53.631 38.2218C53.477 38.0889 53.2526 38.0659 53.0732 38.1639L46.9242 41.5128C46.7445 41.6107 46.6486 41.8082 46.6859 42.0044L47.7408 47.6071C45.717 49.4053 43.9744 51.529 42.6115 53.9266L36.7435 54.2625C36.5379 54.2744 36.3622 54.4112 36.3069 54.6035L34.4047 61.1815C34.349 61.3738 34.4256 61.5788 34.5951 61.6926L39.4295 64.9297C39.3083 67.664 39.6585 70.3547 40.4235 72.909L36.517 77.1667C36.3802 77.3158 36.3561 77.5327 36.4572 77.7068L39.9161 83.6603V83.6611Z" fill="#007CA6"/>
<path id="Vector_24" d="M63.9047 73.0898C60.3251 72.4875 57.6382 69.4134 57.7344 65.794C57.7856 63.867 58.6092 62.0744 60.0523 60.7469C61.4959 59.4194 63.3871 58.7156 65.3774 58.7651C69.4878 58.8674 72.7427 62.187 72.637 66.1652C72.5858 68.0922 71.7623 69.8848 70.3191 71.2123C68.8755 72.5398 66.9843 73.2436 64.9941 73.1941C64.6234 73.1849 64.2594 73.1492 63.9047 73.0898ZM66.0658 61.139C65.8201 61.0978 65.5703 61.0736 65.3164 61.0673C62.5185 60.9975 60.1838 63.1446 60.1117 65.8535C60.0769 67.1659 60.572 68.4126 61.5057 69.3642C62.4395 70.3162 63.7008 70.8586 65.0555 70.8923C66.411 70.926 67.6986 70.4467 68.6814 69.543C69.6647 68.639 70.2253 67.4185 70.2601 66.1065C70.2949 64.794 69.7998 63.5474 68.8661 62.5958C68.1073 61.8222 67.1322 61.3187 66.0658 61.1394V61.139Z" fill="#F0EEEE"/>
<path id="Vector_25" d="M62.3403 82.5194C61.7637 82.4222 61.1888 82.2965 60.6134 82.1407C59.5593 81.8548 58.5346 81.4742 57.562 81.0083C57.451 80.9552 57.3409 80.9008 57.2315 80.8453C57.2102 80.8346 57.1889 80.8239 57.1677 80.8128C57.012 80.7335 56.9334 80.5674 56.9617 80.408C56.9686 80.3691 56.9821 80.3311 57.0018 80.2946C57.1038 80.1074 57.3437 80.0353 57.537 80.134C58.576 80.6645 59.6829 81.0912 60.8272 81.4012C60.9213 81.4266 61.0155 81.4516 61.1101 81.4754C67.5073 83.0963 74.0507 80.8572 78.0619 76.2292C79.5104 74.5583 80.6284 72.5758 81.2894 70.3502C81.3005 70.3133 81.3115 70.276 81.3222 70.2388C81.4761 69.7066 81.6006 69.1729 81.6961 68.6396C83.1364 60.6072 78.073 52.6394 69.7937 50.3951C60.9643 48.0018 51.7705 53.0093 49.2982 61.5572C49.1459 62.0842 49.0214 62.6167 48.9256 63.1524C48.5095 65.4739 48.6225 67.8581 49.2655 70.1325C49.2815 70.1888 49.2835 70.2455 49.2737 70.2994C49.2483 70.4414 49.141 70.5631 48.9878 70.6039C48.7761 70.6595 48.5586 70.5397 48.5009 70.3351C47.8272 67.9517 47.7089 65.4533 48.1446 63.0211C48.2449 62.4601 48.3752 61.9022 48.5349 61.3502C51.1251 52.3939 60.7596 47.1485 70.007 49.6557C78.6812 52.0073 83.9857 60.355 82.4774 68.7705C82.3771 69.3292 82.2469 69.8882 82.0859 70.4457C79.657 78.8446 71.0329 83.9813 62.3407 82.519L62.3403 82.5194Z" fill="#F0EEEE"/>
</g>
</g>
</g>
</svg>
