<svg width="85" height="100" viewBox="0 0 85 100" fill="none" xmlns="http://www.w3.org/2000/svg">
<path d="M46.5542 0H79.1674C82.3865 0 85.0003 2.56234 85.0003 5.71816V75.994C85.0003 79.1499 82.3865 81.7122 79.1674 81.7122H46.5542C43.3351 81.7122 40.7213 79.1499 40.7213 75.994V5.71816C40.7213 2.56234 43.3351 0 46.5542 0Z" fill="#007CA6"/>
<path d="M82.8058 6.25896V74.9065C82.8058 77.2352 80.8761 79.1402 78.5181 79.1402H47.2028C44.8455 79.1402 42.9158 77.2352 42.9158 74.9065V6.25896C42.9158 3.93031 44.8448 2.02524 47.2028 2.02524H78.5189C80.8761 2.02524 82.8058 3.93031 82.8058 6.25896Z" fill="#C0D8FB"/>
<path d="M78.5189 2.02524L47.5902 79.1402H47.2028C44.8455 79.1402 42.9158 77.2352 42.9158 74.9065V6.25896C42.9158 3.93031 44.8448 2.02524 47.2028 2.02524H78.5189Z" fill="#CBE1FD"/>
<path d="M82.8058 6.25896V74.9065C82.8058 77.2352 80.8761 79.1402 78.5181 79.1402H47.2028C44.8455 79.1402 42.9158 77.2352 42.9158 74.9065V6.25896C42.9158 3.93031 44.8448 2.02524 47.2028 2.02524H78.5189C80.8761 2.02524 82.8058 3.93031 82.8058 6.25896Z" fill="#C0D8FB"/>
<path d="M78.5189 2.02524L47.5902 79.1402H47.2028C44.8455 79.1402 42.9158 77.2352 42.9158 74.9065V6.25896C42.9158 3.93031 44.8448 2.02524 47.2028 2.02524H78.5189Z" fill="#CBE1FD"/>
<path d="M56.3169 0.479233H69.4055C70.4755 0.479233 71.3442 1.33087 71.3442 2.37984V2.67881C71.3442 3.72778 70.4755 4.57942 69.4055 4.57942H56.3169C55.2469 4.57942 54.3782 3.72778 54.3782 2.67881V2.37984C54.3782 1.33087 55.2469 0.479233 56.3169 0.479233Z" fill="#007CA6"/>
<path d="M5.83294 8.94938H38.4461C41.6652 8.94938 44.279 11.5117 44.279 14.6675V84.9434C44.279 88.0993 41.6652 90.6616 38.4461 90.6616H5.83294C2.61377 90.6616 0 88.0993 0 84.9434V14.6675C0 11.5117 2.61377 8.94938 5.83294 8.94938Z" fill="#007CA6"/>
<path d="M42.0845 15.2083V83.8559C42.0845 86.1845 40.1548 88.0896 37.7968 88.0896H6.48146C4.12422 88.0896 2.19454 86.1845 2.19454 83.8559V15.2083C2.19454 12.8797 4.12347 10.9746 6.48146 10.9746H37.7976C40.1548 10.9746 42.0845 12.8797 42.0845 15.2083Z" fill="#C0D8FB"/>
<path d="M37.7976 10.9746L6.86891 88.0896H6.48146C4.12422 88.0896 2.19454 86.1845 2.19454 83.8559V15.2083C2.19454 12.8797 4.12347 10.9746 6.48146 10.9746H37.7976Z" fill="#CBE1FD"/>
<path d="M42.0845 15.2083V83.8559C42.0845 86.1845 40.1548 88.0896 37.7968 88.0896H6.48146C4.12422 88.0896 2.19454 86.1845 2.19454 83.8559V15.2083C2.19454 12.8797 4.12347 10.9746 6.48146 10.9746H37.7976C40.1548 10.9746 42.0845 12.8797 42.0845 15.2083Z" fill="#C0D8FB"/>
<path d="M37.7976 10.9746L6.86891 88.0896H6.48146C4.12422 88.0896 2.19454 86.1845 2.19454 83.8559V15.2083C2.19454 12.8797 4.12347 10.9746 6.48146 10.9746H37.7976Z" fill="#CBE1FD"/>
<path d="M15.5956 9.42861H28.6842C29.7542 9.42861 30.6229 10.2803 30.6229 11.3292V11.6282C30.6229 12.6772 29.7542 13.5288 28.6842 13.5288H15.5956C14.5256 13.5288 13.6569 12.6772 13.6569 11.6282V11.3292C13.6569 10.2803 14.5256 9.42861 15.5956 9.42861Z" fill="#007CA6"/>
<path d="M24.4141 18.2876H57.0272C60.2464 18.2876 62.8601 20.8499 62.8601 24.0058V94.2816C62.8601 97.4375 60.2464 99.9998 57.0272 99.9998H24.4141C21.1949 99.9998 18.5811 97.4375 18.5811 94.2816V24.0058C18.5811 20.8499 21.1949 18.2876 24.4141 18.2876Z" fill="#007CA6"/>
<path d="M60.6656 24.5466V93.1941C60.6656 95.5228 58.7359 97.4278 56.3779 97.4278H25.0626C22.7054 97.4278 20.7757 95.5228 20.7757 93.1941V24.5466C20.7757 22.2179 22.7046 20.3128 25.0626 20.3128H56.3787C58.7359 20.3128 60.6656 22.2179 60.6656 24.5466Z" fill="#C0D8FB"/>
<path d="M56.3787 20.3128L25.45 97.4278H25.0626C22.7054 97.4278 20.7757 95.5228 20.7757 93.1941V24.5466C20.7757 22.2179 22.7046 20.3128 25.0626 20.3128H56.3787Z" fill="#CBE1FD"/>
<path d="M60.6656 24.5466V93.1941C60.6656 95.5228 58.7359 97.4278 56.3779 97.4278H25.0626C22.7054 97.4278 20.7757 95.5228 20.7757 93.1941V24.5466C20.7757 22.2179 22.7046 20.3128 25.0626 20.3128H56.3787C58.7359 20.3128 60.6656 22.2179 60.6656 24.5466Z" fill="#C0D8FB"/>
<path d="M56.3787 20.3128L25.45 97.4278H25.0626C22.7054 97.4278 20.7757 95.5228 20.7757 93.1941V24.5466C20.7757 22.2179 22.7046 20.3128 25.0626 20.3128H56.3787Z" fill="#CBE1FD"/>
<path d="M34.1767 18.7668H47.2653C48.3353 18.7668 49.2041 19.6185 49.2041 20.6674V20.9664C49.2041 22.0154 48.3353 22.867 47.2653 22.867H34.1767C33.1067 22.867 32.238 22.0154 32.238 20.9664V20.6674C32.238 19.6185 33.1067 18.7668 34.1767 18.7668Z" fill="#007CA6"/>
</svg>
