<svg width="98" height="74" viewBox="0 0 98 74" fill="none" xmlns="http://www.w3.org/2000/svg">
<g clip-path="url(#clip0_97_1826)">
<path d="M97.2212 38.6336C96.0681 42.0441 93.5656 45.6399 89.2638 49.0971C87.7055 50.3494 86.4008 51.6921 85.2725 53.0793C83.6043 55.1294 82.3192 57.2771 81.163 59.376C75.8241 69.0651 73.2278 77.7079 48.3428 70.8675C38.4531 68.1494 36.3732 71.7284 25.6536 73.5408C25.3387 73.5935 25.0169 73.6453 24.6868 73.6955C21.7131 74.1453 19.0678 74.0814 16.7208 73.6039C13.7505 72.9989 11.258 71.7314 9.18072 70.0041C5.06087 66.5768 2.57619 61.3405 1.2433 55.8739C0.753831 53.8684 0.419847 51.8317 0.217459 49.8421C0.102368 48.712 0.0350499 47.6468 0.0111629 46.6408C-0.0752645 43.0964 0.369468 40.2892 1.11518 37.9686H1.11561C1.20768 37.6808 1.30453 37.4007 1.40573 37.128C1.51517 36.8312 1.62983 36.5434 1.74883 36.2629L1.75013 36.2603C4.62873 29.4796 10.0585 27.1508 10.1549 20.6634C10.4102 3.48276 23.4317 0.500118 33.7643 2.51563C55.657 6.78649 54.9946 -1.96655 70.714 0.419307C99.4952 4.78826 79.6247 16.1467 91.675 23.0683C96.4863 25.8319 99.5095 31.8667 97.2212 38.6332V38.6336Z" fill="#EBF3FA"/>
<path d="M97.221 38.6341C96.0679 42.0446 93.5654 45.6404 89.2636 49.0976C74.7694 60.746 82.2652 80.1924 48.3422 70.868C38.1624 68.0699 36.2567 71.9445 24.6863 73.6955C7.74824 76.2586 1.47074 62.1478 0.217327 49.8417C-0.353789 44.2351 0.255546 40.23 1.40516 37.1277L1.74826 36.2625L1.74957 36.2599C1.74957 36.2599 5.52805 35.8805 6.89873 39.0948C6.89873 39.0948 8.13217 37.1117 10.4622 37.801C12.7923 38.4907 12.2898 40.3999 12.2898 40.3999C12.2898 40.3999 15.9124 37.89 19.1428 41.1725C22.3731 44.4551 20.4222 49.1278 20.4222 49.1278C20.4222 49.1278 23.4376 48.9213 24.3514 51.2069C24.3514 51.2069 28.6836 49.3344 31.4059 51.8222C34.1286 54.3101 36.992 56.619 36.992 56.619C36.992 56.619 40.0756 57.4012 39.8432 61.22C39.8432 61.22 42.1216 59.4928 45.2977 60.4015C45.2977 60.4015 45.8441 56.4673 51.2707 55.616C56.6974 54.7647 59.1352 56.2193 59.1352 56.2193C59.1352 56.2193 59.2199 52.6247 63.3958 52.2401C63.3958 52.2401 63.2768 46.6724 69.4904 46.0812C75.7041 45.4905 77.0044 48.7324 77.0044 48.7324C77.0044 48.7324 77.8057 46.1473 82.0089 46.3189C82.0089 46.3189 82.8315 41.5429 88.3138 41.7892C88.3138 41.7892 89.5933 39.399 92.3342 40.2171C92.3342 40.2171 94.2716 36.9773 97.2202 38.6333L97.221 38.6341Z" fill="#CADAFC"/>
<path d="M85.2723 53.0798C75.9025 64.5946 78.6178 79.1898 48.3421 70.8676C38.1624 68.0695 36.2566 71.9441 24.6862 73.6951C7.7482 76.2581 1.4707 62.1474 0.217284 49.8413C-0.303452 44.7278 0.157349 40.947 1.11457 37.9678H1.115C1.115 37.9678 4.25462 39.5853 4.11781 42.1764C4.11781 42.1764 7.13321 41.1998 9.53147 43.2905C9.53147 43.2905 13.0268 40.7222 17.6869 43.2905C22.3466 45.8583 19.5366 51.2064 19.5366 51.2064C19.5366 51.2064 22.1407 51.3132 22.7575 53.9039C22.7575 53.9039 26.0947 51.897 28.2979 54.6735C30.4682 57.4081 28.5012 61.7494 24.8421 62.7904C25.6387 62.5925 29.0732 61.9417 30.9285 64.882C30.9285 64.882 33.9965 61.7455 37.1826 64.882C37.1826 64.882 40.7018 63.7537 42.1576 66.8569C42.1576 66.8569 44.2683 63.1292 48.6101 64.4931C52.9519 65.8569 53.0978 68.948 53.0978 68.948C53.0978 68.948 54.2366 66.675 57.1126 67.3115C57.1126 67.3115 56.0372 61.9473 61.7128 60.5835C61.7128 60.5835 62.2713 56.2193 67.1603 56.5832C67.1603 56.5832 69.0339 54.5711 71.2267 55.1225C71.2267 55.1225 77.7444 48.4049 85.2718 53.0794L85.2723 53.0798Z" fill="#EEF4FF"/>
<path d="M66.1938 14.1465C66.1938 14.1465 65.039 12.9763 62.8948 13.8522C60.7506 14.7282 61.3752 17.0937 59.6935 16.5414C58.0119 15.9887 56.378 16.0479 56.2329 17.4882C56.018 19.6235 54.9999 18.8158 54.335 20.7345C53.7357 22.4639 54.4232 23.2318 55.6896 22.7068C57.4942 21.9588 56.1092 23.8541 58.6638 24.205C61.2184 24.5559 64.3063 22.3784 64.7727 20.8819C65.2392 19.3853 65.9619 18.5721 66.513 17.958C67.0642 17.3439 67.7773 15.3526 66.1938 14.1469V14.1465Z" fill="#163560"/>
<path d="M53.1546 29.9301L53.1003 30.4193C53.0851 30.5554 53.152 30.6881 53.2705 30.7572L54.0267 31.1989C54.1717 31.2836 54.3437 31.3108 54.5083 31.2749L55.228 31.1181L53.155 29.9297L53.1546 29.9301Z" fill="#163560"/>
<path d="M60.0194 32.3818L57.6698 31.0353C57.4544 30.9117 57.3797 30.6355 57.5039 30.4212L62.1254 22.4387C62.5845 21.6457 64.075 20.5714 64.872 21.0281L65.103 21.1604C65.9022 21.6184 65.7167 23.4429 65.2563 24.2381L60.637 32.2167C60.5128 32.4311 60.2353 32.5054 60.0199 32.3818H60.0194Z" fill="#D86036"/>
<path d="M60.08 19.7642L65.6513 19.8333L58.4135 31.2401L55.3838 30.3767L60.08 19.7642Z" fill="#D86036"/>
<path d="M55.2279 31.1181L52.8783 29.7716C52.6629 29.648 52.5882 29.3718 52.7124 29.1575L57.3339 21.175C57.793 20.382 59.2835 19.3077 60.0805 19.7645L60.3115 19.8967C61.1107 20.3548 60.9252 22.1793 60.4648 22.9744L55.8455 30.9531C55.7213 31.1674 55.4438 31.2417 55.2284 31.1181H55.2279Z" fill="#F77D48"/>
<path d="M54.0264 31.199L53.9956 31.2452L53.686 31.7076L25.6531 73.5407C25.3382 73.5934 25.0164 73.6453 24.6863 73.6954C21.7126 74.1452 19.0672 74.0813 16.7202 73.6038C13.75 72.9988 11.2575 71.7313 9.18018 70.004L19.7955 60.5548L37.9323 44.41L41.4406 41.2873L53.2703 30.7573L53.6846 30.9993L53.6985 31.0075L54.0264 31.1994V31.199Z" fill="#F8FBFF"/>
<path d="M60.9614 43.2152C60.9614 43.2152 59.6937 43.3972 58.4155 44.4438C57.7298 45.0056 56.8451 45.5812 56.6253 45.3219C56.5193 45.197 56.4464 44.379 57.3549 43.7783C58.2266 43.2018 58.0229 41.9845 58.8742 41.8363C59.4557 41.7352 59.4392 42.319 60.829 41.79L60.961 43.2152H60.9614Z" fill="#233862"/>
<path d="M69.9097 39.7721C69.6648 41.932 60.1026 43.712 60.1026 43.712C60.1026 43.712 59.8273 42.4333 60.5986 41.8015C60.5986 41.8015 62.7858 40.203 63.7981 39.588C65.0038 38.8564 65.885 38.7341 65.885 38.7341C65.8698 38.6494 65.5232 38.5241 65.0025 38.3595H65.0016C63.3873 37.85 60.107 36.9706 59.8889 35.8055C59.869 35.6996 59.8624 35.5855 59.8672 35.4663C59.9285 33.8548 62.0644 31.1889 62.0644 31.1889L64.1465 30.4707C64.1465 30.4707 64.4553 32.7554 65.1632 33.3069C65.8711 33.8578 70.1543 37.6127 69.9093 39.7721H69.9097Z" fill="#F99746"/>
<path d="M65.0025 38.359H65.0016C63.3873 37.8495 60.107 36.9701 59.8889 35.805C59.869 35.6991 59.8624 35.585 59.8672 35.4658C60.0653 35.0133 60.4431 34.5825 60.9291 34.4351C61.8972 34.1413 61.7539 36.2933 62.8283 36.9424C63.9028 37.5919 65.0029 38.359 65.0029 38.359H65.0025Z" fill="#ED7D2B"/>
<path d="M66.4243 20.3352C66.4243 20.3352 72.0299 18.7613 72.8486 18.4039C73.6668 18.0466 76.3209 14.5938 76.3209 14.5938L77.0922 15.0423C77.0922 15.0423 76.261 18.2674 73.8627 19.9294C72.9263 20.5781 67.6582 22.635 67.6582 22.635L66.4252 20.3356L66.4243 20.3352Z" fill="#FFB27D"/>
<path d="M47.7501 47.882C47.7501 47.882 46.9275 48.7475 46.5939 49.5664C46.2604 50.3854 45.7718 51.3175 45.4534 51.1965C45.3001 51.1381 44.8389 50.4571 45.3422 49.4939C45.8252 48.5699 45.0556 47.6019 45.7288 47.0631C46.1887 46.6949 46.458 47.2139 47.4178 46.0825L47.7501 47.8824V47.882Z" fill="#233862"/>
<path d="M64.4623 31.2791C64.4623 31.2791 58.4571 38.8645 55.8273 41.2101C54.431 42.4556 47.8061 47.9658 47.8061 47.9658C47.8061 47.9658 47.3514 47.5181 47.2119 47.1296C46.9379 46.3651 47.1681 45.8976 47.1681 45.8976C47.1681 45.8976 49.9937 40.4107 52.6742 38.8316C54.5318 37.7374 55.6636 30.9187 59.651 28.586C63.6384 26.2533 64.4627 31.2791 64.4627 31.2791H64.4623Z" fill="#F99746"/>
<path d="M67.6481 26.4841C65.7724 30.306 65.2812 32.1119 64.6193 32.5043C63.9574 32.8962 57.58 31.9632 57.0462 31.0069C56.9051 30.7537 56.9507 30.4663 57.1122 30.1521H57.1127C57.5605 29.2796 58.8981 28.2036 59.5913 27.093C60.0412 26.3717 60.3709 25.7438 60.6115 25.1963C61.7884 22.5179 60.8304 21.7686 61.4023 21.4159C62.4039 20.7988 67.0766 19.4406 68.5493 19.941C69.2707 20.1865 68.3482 21.6644 68.4151 22.8826C68.4985 24.412 68.2375 25.2827 67.6481 26.4837V26.4841Z" fill="#739AF0"/>
<path d="M61.1217 21.6122C61.1217 21.6122 56.862 24.5197 55.9317 26.04C55.0019 27.5607 53.6416 31.1103 53.6416 31.1103C53.6416 31.1103 53.6902 31.3385 54.4972 31.2032C54.4972 31.2032 57.1617 27.2219 57.5816 26.8217C58.0012 26.4216 61.7132 24.3935 61.7132 24.3935L61.1221 21.6118L61.1217 21.6122Z" fill="#FFB27D"/>
<path d="M69.7977 21.3473C69.6035 21.8992 69.1909 22.55 68.4283 23.2137L66.3975 19.98C66.3975 19.98 68.5264 19.6356 69.7056 19.394C69.7056 19.394 70.2029 20.1957 69.7977 21.3473Z" fill="#739AF0"/>
<path d="M64.3964 20.3579C64.3964 20.3579 62.3691 20.647 60.8229 21.5204C60.1819 21.8825 58.5298 23.325 58.5298 23.325C58.5298 23.325 58.991 24.8254 60.8868 25.277C62.783 25.7286 62.3782 22.1081 62.3782 22.1081L64.3964 20.3583V20.3579Z" fill="#739AF0"/>
<path d="M76.2954 14.6275C76.2954 14.6275 76.5999 12.8264 76.9847 12.8488C77.3695 12.8713 77.66 13.4733 77.7117 13.8134C77.7634 14.1535 77.0667 15.0761 77.0667 15.0761L76.2954 14.6275Z" fill="#FFB27D"/>
<path d="M54.5926 31.3587C54.5926 31.3587 54.7399 32.1845 54.6091 32.5172C54.4784 32.85 54.1019 33.1132 53.8421 33.0924C53.5824 33.0717 54.022 32.4649 53.8547 32.1223C53.6875 31.7796 53.3926 31.0523 53.8799 30.8781C54.3677 30.704 54.5926 31.3582 54.5926 31.3582V31.3587Z" fill="#FFB27D"/>
<path d="M54.4979 31.0811C54.4979 31.0811 54.6886 31.6113 54.798 31.7915C54.907 31.9717 54.4862 31.7038 54.3824 31.5344C54.2786 31.365 54.4979 31.0815 54.4979 31.0815V31.0811Z" fill="#FFB27D"/>
<path d="M61.1575 25.9044C61.1158 26.7998 60.1868 28.5266 59.1366 28.8611C58.1025 29.19 57.1427 30.1225 57.1123 30.1519C57.5601 29.2799 58.8977 28.2043 59.5909 27.0932C60.0408 26.372 60.3705 25.7441 60.6111 25.1966C60.86 25.1689 61.1861 25.2869 61.1575 25.904V25.9044Z" fill="#6385DB"/>
<path d="M62.8775 23.7118C62.322 25.3807 60.7859 26.0427 60.1448 26.2519C60.0141 26.2942 59.9207 26.318 59.8803 26.3275L59.8617 26.3318L59.6914 25.5687C59.6971 25.5678 59.9073 25.5185 60.2048 25.3928H60.2052C60.8054 25.1387 61.7635 24.5743 62.1322 23.4654C62.6417 21.9335 61.3383 20.8618 61.172 20.733C61.4894 20.6448 61.8074 20.5787 62.1023 20.5308C62.7164 21.2066 63.327 22.3617 62.8779 23.7113L62.8775 23.7118Z" fill="#D86036"/>
<path d="M65.7928 20.3294C65.7928 20.3294 67.9469 20.6069 68.4277 23.2131C68.4277 23.2131 68.9024 23.0437 68.9992 22.6444C68.9992 22.6444 68.409 20.3307 66.1458 19.921C66.0147 19.8973 65.4779 19.7568 65.4779 19.7568L65.457 19.8783C65.457 19.8783 65.4675 20.1872 65.4835 20.224C65.4992 20.2611 65.7928 20.3294 65.7928 20.3294Z" fill="#D86036"/>
<path d="M63.4021 20.5356C63.5754 20.0943 63.7222 19.4396 63.7435 18.6143L63.8634 18.6415L65.8768 19.1C65.8768 19.1 65.8121 19.7326 65.793 20.3303C65.793 20.3355 65.793 20.3402 65.7926 20.345C65.7283 22.1829 63.2584 20.902 63.4026 20.5356H63.4021Z" fill="#FFB27D"/>
<path d="M65.8768 19.1001L65.8242 19.7315C64.692 19.6662 64.0922 19.2189 63.8638 18.6416L65.8772 19.1001H65.8768Z" fill="#E8945B"/>
<path d="M66.3571 19.0852C66.3571 19.0852 63.756 19.7395 63.3717 18.1215C62.9873 16.5036 62.3927 15.4984 64.037 15.0123C65.6813 14.5261 66.1521 15.0676 66.4123 15.5762C66.6724 16.0853 67.0238 18.8734 66.3571 19.0852Z" fill="#FFB27D"/>
<path d="M65.2167 14.6938C65.2167 14.6938 64.9509 16.7599 63.9199 17.2975C62.8892 17.8351 62.3438 17.654 62.3438 17.654C62.3438 17.654 63.0282 16.7919 62.9283 15.5896C62.9283 15.5896 64.4636 13.9164 65.2167 14.6938Z" fill="#163560"/>
<path d="M65.0762 14.8893C65.0762 14.8893 65.6529 14.9623 65.9622 15.2959C66.2644 15.6222 66.5641 16.0781 66.6666 16.6991C66.6666 16.6991 66.9003 15.2825 66.122 14.694C65.2972 14.0699 65.0762 14.8889 65.0762 14.8889V14.8893Z" fill="#163560"/>
<path d="M65.6201 18.2439C65.6201 18.2439 65.7105 18.4241 66.1804 18.2828C66.1804 18.2828 66.5747 18.1644 66.5131 17.9578C66.5131 17.9578 66.0896 17.8995 65.6201 18.2439Z" fill="white"/>
<path d="M25.6604 35.6719L25.5735 36.0406L25.1861 37.6844L24.0465 42.5184L21.9536 51.3989L19.7959 60.5547L16.7201 73.6041C13.7499 72.9991 11.2574 71.7316 9.1801 70.0043C5.06025 66.577 2.57557 61.3407 1.24268 55.8742L24.0599 34.8306L24.0656 34.8332L24.7805 35.2096L24.8682 35.2558L25.5375 35.6076L25.5488 35.6136L25.6599 35.6724L25.6604 35.6719Z" fill="#F8FBFF"/>
<path d="M35.0085 52.2119C35.0085 52.2119 33.4546 52.6483 32.0318 54.1673C31.2683 54.9823 30.2589 55.8479 29.941 55.5601C29.7877 55.4214 29.5606 54.4111 30.596 53.5105C31.5892 52.6462 31.1319 51.1583 32.1712 50.8329C32.8813 50.6104 32.9577 51.3433 34.6064 50.4526L35.0085 52.2123V52.2119Z" fill="#233862"/>
<path d="M43.1942 45.3454C43.1043 47.8277 34.4611 53.1724 34.4611 53.1724C34.4611 53.1724 33.5265 52.6435 33.5573 50.6305C33.5573 50.6305 36.3673 46.6829 38.1015 45.3329C38.3786 45.1177 38.3782 44.7003 37.6407 44.1713H37.6403C37.4279 44.0192 37.1547 43.8576 36.8094 43.689C36.8094 43.689 33.5226 42.0992 31.5035 40.7678C31.1209 40.5154 30.7838 40.2721 30.5237 40.0508C30.4294 39.9713 34.2626 35.573 34.2626 35.573L36.6331 34.7554C36.6331 34.7554 37.5169 36.2411 38.2001 37.2285C38.7803 38.0673 43.2897 42.6934 43.1938 45.345L43.1942 45.3454Z" fill="#2A4E96"/>
<path d="M37.6402 44.1714C37.4278 44.0193 37.1546 43.8577 36.8094 43.6891C36.8094 43.6891 33.5225 42.0993 31.5034 40.7678C31.7792 40.1525 32.2817 39.3266 33.0487 39.127C34.3069 38.7999 34.2426 41.0103 34.9332 41.8577C35.6185 42.6987 37.6094 44.1481 37.6402 44.1714Z" fill="#233862"/>
<path d="M24.1192 34.1406L24.0571 34.6977C24.0398 34.8528 24.1158 35.0036 24.2513 35.0827L25.1121 35.5857C25.2771 35.6821 25.473 35.7132 25.6602 35.6726L26.4793 35.4941L24.1192 34.1415V34.1406Z" fill="#163560"/>
<path d="M31.9348 36.9315L29.2599 35.3983C29.0145 35.2578 28.9293 34.9432 29.0709 34.6991L34.3321 25.6111C34.8551 24.7084 36.5519 23.485 37.4592 24.0053L37.7219 24.1561C38.6318 24.6777 38.4203 26.7546 37.8965 27.6599L32.6379 36.7435C32.4968 36.9877 32.1806 37.0719 31.9352 36.9315H31.9348Z" fill="#D86036"/>
<path d="M32.004 22.5674L37.8884 22.7351L30.1065 35.6319L26.6572 34.6488L32.004 22.5674Z" fill="#D86036"/>
<path d="M26.4797 35.493L23.8048 33.9598C23.5594 33.8193 23.4743 33.5047 23.6159 33.2606L28.8771 24.1726C29.4 23.2699 31.0968 22.0465 32.0041 22.5668L32.2669 22.7176C33.1767 23.2392 32.9652 25.3161 32.4414 26.2214L27.1828 35.305C27.0417 35.5492 26.7255 35.6335 26.4801 35.493H26.4797Z" fill="#F77D48"/>
<path d="M39.2266 23.2172C39.2266 23.2172 45.6083 21.4256 46.5403 21.0185C47.4719 20.6114 50.493 16.6807 50.493 16.6807L51.3711 17.1915C51.3711 17.1915 50.4248 20.8629 47.6943 22.7549C46.6285 23.4934 40.6302 25.8347 40.6302 25.8347L39.2266 23.2168V23.2172Z" fill="#FFB27D"/>
<path d="M18.1243 54.5095C18.1243 54.5095 17.0871 55.6006 16.6667 56.633C16.2463 57.6654 15.6305 58.8404 15.2292 58.6878C15.0359 58.6144 14.4544 57.7557 15.0889 56.5418C15.6978 55.3772 14.7271 54.1568 15.5762 53.4771C16.156 53.0125 16.4952 53.6672 17.7052 52.2407L18.1243 54.5095Z" fill="#233862"/>
<path d="M36.9922 35.6769C36.9922 35.6769 30.1558 44.3128 27.1617 46.983C25.5717 48.4009 18.0299 54.6739 18.0299 54.6739C18.0299 54.6739 17.5122 54.1644 17.3532 53.7219C17.041 52.8515 17.3033 52.3196 17.3033 52.3196C17.3033 52.3196 21.044 45.6119 23.5439 43.1089C25.5912 41.0592 26.9749 35.2664 31.5143 32.6109C36.0537 29.9554 36.9922 35.6769 36.9922 35.6769Z" fill="#2A4E96"/>
<path d="M40.4592 31.3894C38.7984 35.9407 38.2499 37.3205 37.3821 37.4484C30.5769 38.4532 28.5274 37.0988 27.9194 36.0103C27.7587 35.7216 28.1517 34.9571 28.6247 34.3936H28.6251C29.135 33.4001 30.6577 32.1754 31.4468 30.911C31.9593 30.0899 32.3346 29.3747 32.6086 28.7516C33.9485 25.7024 32.8579 24.8493 33.5089 24.4479C34.6494 23.7452 39.9688 22.1994 41.6457 22.769C42.4666 23.0482 41.4168 24.7314 41.4933 26.1177C41.5884 27.8588 41.0707 29.7153 40.4596 31.3889L40.4592 31.3894Z" fill="#F99746"/>
<path d="M33.1898 24.6713C33.1898 24.6713 28.3403 27.9811 27.2814 29.7123C26.2226 31.4434 24.6738 35.4844 24.6738 35.4844C24.6738 35.4844 24.7294 35.7441 25.648 35.5903C25.648 35.5903 28.6816 31.0575 29.1594 30.602C29.6371 30.1466 33.8629 27.8376 33.8629 27.8376L33.1898 24.6709V24.6713Z" fill="#FFB27D"/>
<path d="M43.0667 24.3693C42.8457 24.9976 42.3762 25.7383 41.5076 26.4942L39.1953 22.8127C39.1953 22.8127 41.6192 22.4204 42.9616 22.1455C42.9616 22.1455 43.5275 23.0582 43.0667 24.3693Z" fill="#F99746"/>
<path d="M36.9179 23.2427C36.9179 23.2427 34.61 23.572 32.8493 24.5659C32.1197 24.9782 30.2383 26.6203 30.2383 26.6203C30.2383 26.6203 30.7634 28.3286 32.9219 28.8428C35.0804 29.3566 34.62 25.2349 34.62 25.2349L36.9179 23.2427Z" fill="#F99746"/>
<path d="M50.4644 16.7191C50.4644 16.7191 50.8109 14.6686 51.2492 14.6941C51.6874 14.7196 52.0179 15.405 52.0765 15.7922C52.1351 16.1794 51.3425 17.2295 51.3425 17.2295L50.4644 16.7187V16.7191Z" fill="#FFB27D"/>
<path d="M25.7567 35.7673C25.7567 35.7673 25.9244 36.7076 25.7754 37.0866C25.6265 37.4656 25.1978 37.765 24.902 37.7413C24.6063 37.7175 25.107 37.0269 24.9164 36.6372C24.7257 36.2469 24.39 35.419 24.945 35.2206C25.5001 35.0222 25.7563 35.7673 25.7563 35.7673H25.7567Z" fill="#FFB27D"/>
<path d="M25.6492 35.4507C25.6492 35.4507 25.8663 36.054 25.9905 36.2592C26.1147 36.4645 25.6357 36.1594 25.5176 35.9662C25.3994 35.7735 25.6492 35.4507 25.6492 35.4507Z" fill="#FFB27D"/>
<path d="M33.2304 29.5576C33.1826 30.577 32.1255 32.5429 30.9294 32.9236C29.7525 33.2982 28.6593 34.36 28.625 34.3933C29.1349 33.4007 30.6576 32.176 31.4467 30.9111C31.9592 30.09 32.3344 29.3748 32.6085 28.7517C32.8921 28.7206 33.263 28.8541 33.2304 29.5572V29.5576Z" fill="#ED7D2B"/>
<path d="M35.1884 27.0609C34.5561 28.961 32.8071 29.7147 32.0775 29.9528C31.9285 30.0008 31.8221 30.028 31.7765 30.0388L31.7552 30.044L31.5615 29.1754C31.568 29.1745 31.8069 29.1183 32.1461 28.9749H32.1465C32.8297 28.6858 33.9203 28.0432 34.3402 26.7809C34.9205 25.0368 33.4364 23.8168 33.2466 23.6703C33.608 23.5701 33.9702 23.4949 34.3055 23.4404C35.0047 24.2096 35.7 25.5246 35.1884 27.0613V27.0609Z" fill="#D86036"/>
<path d="M38.5076 23.2112C38.5076 23.2112 40.9602 23.5267 41.5074 26.4942C41.5074 26.4942 42.0477 26.3015 42.158 25.8469C42.158 25.8469 41.4861 23.2125 38.9094 22.7467C38.76 22.7199 38.1489 22.5596 38.1489 22.5596L38.125 22.6979C38.125 22.6979 38.1372 23.0496 38.155 23.0915C38.1728 23.1339 38.5072 23.2117 38.5072 23.2117L38.5076 23.2112Z" fill="#D86036"/>
<path d="M35.7857 23.4448C35.9829 22.9427 36.1501 22.1972 36.1744 21.2573L36.3108 21.2884L38.6031 21.8105C38.6031 21.8105 38.5292 22.5308 38.5075 23.211V23.2279C38.4337 25.3203 35.622 23.8618 35.7857 23.4448Z" fill="#FFB27D"/>
<path d="M38.6029 21.8107L38.5429 22.5297C37.2539 22.4558 36.5712 21.9464 36.311 21.2891L38.6033 21.8111L38.6029 21.8107Z" fill="#E8945B"/>
<path d="M39.5823 21.6166C39.5823 21.6166 36.7971 22.8232 36.0709 21.1145C35.3447 19.4058 34.4965 18.411 36.2442 17.5683C37.9918 16.7256 38.6164 17.2334 39.0007 17.7446C39.3847 18.2558 40.288 21.2588 39.5823 21.6166Z" fill="#FFB27D"/>
<path d="M34.1212 17.8779C34.0874 17.8546 34.0201 17.8455 33.8828 17.8723C33.8828 17.8723 33.974 17.7776 34.1178 17.7374C34.0982 17.543 34.1139 17.186 34.4174 17.0235C34.4174 17.0235 34.2667 17.1597 34.295 17.3649C34.5725 16.8866 35.3056 16.4043 37.577 16.0171C40.5707 15.5067 40.0804 17.6208 39.7573 17.9393C39.4341 18.2582 38.3219 17.8883 37.6283 18.1229C36.9347 18.3576 37.0593 19.4094 36.8548 19.6099C36.6502 19.8104 36.6815 19.5395 36.3193 19.4751C35.9571 19.4111 36.0626 19.9543 36.2454 20.2793C36.4283 20.6038 36.0987 21.176 36.0987 21.176L35.5241 20.8065C34.9495 20.437 34.0022 18.4963 34.0961 18.008C34.1043 17.9648 34.1121 17.9211 34.1208 17.8775L34.1212 17.8779Z" fill="#2C3A64"/>
<path d="M81.1626 59.3763C75.8237 69.0654 73.2274 77.7082 48.3423 70.8679C38.4527 68.1497 36.3728 71.7287 25.6532 73.5411C25.3383 73.5938 25.0165 73.6457 24.6864 73.6958C21.7127 74.1457 19.0673 74.0817 16.7203 73.6042C13.7501 72.9992 11.2576 71.7317 9.1803 70.0044C5.06045 66.5771 2.57577 61.3409 1.24288 55.8743C0.75341 53.8687 0.419427 51.832 0.217039 49.8424C0.101947 48.7124 0.0346292 47.6471 0.0107422 46.6411C0.0107422 46.6411 4.98184 47.6549 5.75795 51.7106C5.75795 51.7106 6.89888 51.2624 7.99507 52.2417C9.0917 53.2205 8.17792 55.1776 6.62439 55.4719C6.62439 55.4719 10.6448 55.9477 10.0967 60.3119C10.0967 60.3119 12.4202 59.4481 13.4517 61.7211C13.4517 61.7211 16.8589 58.4481 21.519 60.5392C26.1791 62.6304 25.9507 66.4034 25.9507 66.4034C25.9507 66.4034 28.1492 64.6761 30.5222 66.1307C32.8953 67.5853 32.9409 69.0403 32.9409 69.0403C32.9409 69.0403 34.0831 67.7672 35.6822 68.495C35.6822 68.495 38.2408 63.8581 44.5 65.8127C44.5 65.8127 46.0175 64.6109 47.7504 65.7016C49.4837 66.7928 49.4837 68.0883 49.4837 68.0883C49.4837 68.0883 53.4585 65.7016 57.0216 69.3156C57.0216 69.3156 59.3516 68.2244 61.2704 69.3156C61.2704 69.3156 61.3195 65.7016 64.8925 64.6787C64.8925 64.6787 64.4908 61.0651 69.0141 60.5876C73.5366 60.1105 75.0445 62.8374 75.0445 62.8374C75.0445 62.8374 77.0962 59.3897 81.1626 59.3768V59.3763Z" fill="#F8FBFF"/>
</g>
<defs>
<clipPath id="clip0_97_1826">
<rect width="98" height="74" fill="white"/>
</clipPath>
</defs>
</svg>
