<svg width="601" height="450" viewBox="0 0 601 450" fill="none" xmlns="http://www.w3.org/2000/svg">
<g clip-path="url(#clip0_47_132)">
<path d="M596.222 234.936C589.15 255.675 573.803 277.542 547.422 298.565C537.865 306.18 529.864 314.345 522.944 322.781C512.714 335.248 504.833 348.308 497.743 361.072C465.001 419.992 449.079 472.55 296.467 430.953C235.818 414.423 223.062 436.187 157.323 447.209C155.392 447.529 153.418 447.845 151.394 448.15C133.157 450.885 116.934 450.496 102.541 447.592C84.3251 443.913 69.0395 436.206 56.3002 425.702C31.0345 404.86 15.7969 373.018 7.62269 339.775C4.62096 327.579 2.57276 315.194 1.33159 303.095C0.625768 296.223 0.212931 289.746 0.0664402 283.628C-0.463589 262.074 2.2638 245.003 6.83697 230.891H6.83963C7.40428 229.141 7.99824 227.438 8.61882 225.78C9.29002 223.975 9.99317 222.225 10.723 220.519L10.731 220.503C28.3844 179.269 61.683 165.107 62.2743 125.658C63.8404 21.1805 143.696 3.04276 207.063 15.2992C341.323 41.2707 337.261 -11.9572 433.662 2.55134C610.168 29.1193 488.309 98.1908 562.209 140.282C591.715 157.087 610.255 193.786 596.222 234.933V234.936Z" fill="#EBF3FA"/>
<path d="M596.222 234.936C589.15 255.675 573.803 277.542 547.422 298.565C458.534 369.4 504.503 487.655 296.465 430.953C234.036 413.937 222.349 437.499 151.391 448.147C47.5163 463.733 9.01857 377.925 1.33181 303.09C-2.17064 268.996 1.5662 244.641 8.61639 225.775L10.7205 220.514L10.7285 220.498C10.7285 220.498 33.9007 218.191 42.3065 237.737C42.3065 237.737 49.8708 225.678 64.1603 229.869C78.4497 234.063 75.3681 245.673 75.3681 245.673C75.3681 245.673 97.5841 230.411 117.395 250.372C137.206 270.334 125.241 298.749 125.241 298.749C125.241 298.749 143.734 297.493 149.338 311.392C149.338 311.392 175.906 300.005 192.6 315.134C209.298 330.263 226.858 344.303 226.858 344.303C226.858 344.303 245.769 349.06 244.344 372.283C244.344 372.283 258.316 361.779 277.794 367.305C277.794 367.305 281.145 343.381 314.425 338.204C347.705 333.027 362.655 341.873 362.655 341.873C362.655 341.873 363.174 320.014 388.783 317.675C388.783 317.675 388.053 283.817 426.16 280.222C464.266 276.63 472.24 296.344 472.24 296.344C472.24 296.344 477.154 280.624 502.931 281.668C502.931 281.668 507.976 252.624 541.597 254.122C541.597 254.122 549.443 239.587 566.253 244.562C566.253 244.562 578.134 224.861 596.216 234.931L596.222 234.936Z" fill="#CADAFC"/>
<path d="M522.944 322.784C465.483 392.806 482.135 481.561 296.465 430.953C234.036 413.937 222.348 437.499 151.391 448.147C47.516 463.733 9.01831 377.925 1.33155 303.09C-1.86194 271.994 0.963991 249.003 6.83427 230.886H6.83693C6.83693 230.886 26.0911 240.722 25.2521 256.479C25.2521 256.479 43.7445 250.54 58.4522 263.254C58.4522 263.254 79.8878 247.636 108.467 263.254C137.043 278.869 119.81 311.392 119.81 311.392C119.81 311.392 135.781 312.041 139.563 327.795C139.563 327.795 160.029 315.591 173.54 332.475C186.85 349.105 174.787 375.504 152.347 381.835C157.232 380.631 178.295 376.674 189.673 394.554C189.673 394.554 208.488 375.481 228.027 394.554C228.027 394.554 249.609 387.692 258.537 406.563C258.537 406.563 271.481 383.895 298.108 392.189C324.735 400.482 325.63 419.28 325.63 419.28C325.63 419.28 332.613 405.457 350.251 409.328C350.251 409.328 343.656 376.708 378.462 368.414C378.462 368.414 381.887 341.875 411.87 344.088C411.87 344.088 423.36 331.852 436.808 335.206C436.808 335.206 476.779 294.355 522.942 322.781L522.944 322.784Z" fill="#EEF4FF"/>
<path d="M405.944 86.0268C405.944 86.0268 398.862 78.9105 385.712 84.2373C372.563 89.564 376.393 103.949 366.08 100.591C355.767 97.2295 345.747 97.5896 344.857 106.348C343.539 119.333 337.296 114.421 333.218 126.089C329.542 136.606 333.759 141.276 341.525 138.083C352.592 133.534 344.098 145.06 359.765 147.194C375.431 149.327 394.368 136.086 397.229 126.985C400.089 117.885 404.521 112.939 407.901 109.205C411.281 105.471 415.655 93.3613 405.944 86.0295V86.0268Z" fill="#163560"/>
<path d="M325.981 182.007L325.648 184.982C325.555 185.81 325.965 186.617 326.692 187.037L331.33 189.723C332.219 190.238 333.274 190.404 334.283 190.185L338.697 189.232L325.984 182.005L325.981 182.007Z" fill="#163560"/>
<path d="M368.077 196.916L353.668 188.728C352.347 187.976 351.889 186.297 352.651 184.993L380.993 136.451C383.808 131.629 392.949 125.096 397.836 127.873L399.253 128.678C404.154 131.463 403.017 142.558 400.194 147.393L371.865 195.912C371.103 197.216 369.401 197.668 368.08 196.916H368.077Z" fill="#D86036"/>
<path d="M368.45 120.187L402.617 120.607L358.231 189.973L339.65 184.723L368.45 120.187Z" fill="#D86036"/>
<path d="M338.694 189.232L324.285 181.043C322.964 180.292 322.506 178.613 323.267 177.309L351.609 128.767C354.425 123.945 363.566 117.412 368.453 120.189L369.87 120.994C374.771 123.779 373.633 134.874 370.81 139.709L342.482 188.228C341.72 189.532 340.018 189.984 338.697 189.232H338.694Z" fill="#F77D48"/>
<path d="M331.327 189.723L331.138 190.004L329.239 192.816L157.323 447.207C155.392 447.527 153.418 447.843 151.394 448.147C133.157 450.883 116.934 450.494 102.541 447.59C84.3253 443.911 69.0396 436.204 56.3003 425.7L121.401 368.239L232.627 270.061L254.142 251.071L326.69 187.038L329.231 188.509L329.316 188.559L331.327 189.726V189.723Z" fill="#F8FBFF"/>
<path d="M373.857 262.794C373.857 262.794 366.083 263.901 358.244 270.265C354.038 273.682 348.613 277.182 347.265 275.605C346.615 274.846 346.168 269.871 351.74 266.218C357.085 262.713 355.836 255.31 361.057 254.409C364.623 253.794 364.522 257.344 373.045 254.127L373.855 262.794H373.857Z" fill="#233862"/>
<path d="M428.732 241.858C427.23 254.992 368.589 265.817 368.589 265.817C368.589 265.817 366.9 258.041 371.63 254.199C371.63 254.199 385.043 244.478 391.252 240.739C398.646 236.29 404.05 235.546 404.05 235.546C403.957 235.031 401.831 234.269 398.638 233.268H398.632C388.732 230.169 368.615 224.822 367.278 217.737C367.156 217.093 367.116 216.399 367.145 215.674C367.52 205.874 380.619 189.663 380.619 189.663L393.388 185.295C393.388 185.295 395.282 199.189 399.623 202.542C403.965 205.893 430.232 228.727 428.73 241.858H428.732Z" fill="#F99746"/>
<path d="M398.638 233.265H398.632C388.732 230.166 368.615 224.819 367.278 217.734C367.156 217.09 367.116 216.396 367.145 215.671C368.359 212.92 370.677 210.3 373.657 209.403C379.594 207.616 378.715 220.703 385.304 224.65C391.894 228.6 398.64 233.265 398.64 233.265H398.638Z" fill="#ED7D2B"/>
<path d="M407.358 123.661C407.358 123.661 441.736 114.09 446.756 111.917C451.774 109.743 468.051 88.7466 468.051 88.7466L472.781 91.4743C472.781 91.4743 467.683 111.086 452.976 121.193C447.233 125.138 414.925 137.646 414.925 137.646L407.364 123.663L407.358 123.661Z" fill="#FFB27D"/>
<path d="M292.834 291.173C292.834 291.173 287.79 296.437 285.744 301.417C283.699 306.396 280.702 312.065 278.75 311.329C277.81 310.974 274.981 306.833 278.068 300.975C281.03 295.357 276.31 289.47 280.439 286.193C283.259 283.954 284.911 287.11 290.797 280.23L292.834 291.176V291.173Z" fill="#233862"/>
<path d="M395.325 190.212C395.325 190.212 358.497 236.339 342.37 250.603C333.807 258.177 293.178 291.685 293.178 291.685C293.178 291.685 290.39 288.963 289.535 286.6C287.854 281.952 289.266 279.108 289.266 279.108C289.266 279.108 306.594 245.742 323.033 236.14C334.425 229.486 341.366 188.02 365.819 173.835C390.272 159.65 395.327 190.212 395.327 190.212H395.325Z" fill="#F99746"/>
<path d="M414.864 161.053C403.36 184.294 400.348 195.276 396.289 197.662C392.23 200.045 353.12 194.372 349.846 188.556C348.981 187.016 349.26 185.269 350.251 183.358H350.254C353 178.053 361.203 171.509 365.454 164.755C368.213 160.369 370.235 156.551 371.711 153.222C378.929 136.934 373.053 132.377 376.561 130.233C382.703 126.48 411.359 118.221 420.391 121.264C424.815 122.756 419.158 131.744 419.568 139.152C420.079 148.452 418.478 153.747 414.864 161.05V161.053Z" fill="#739AF0"/>
<path d="M374.84 131.426C374.84 131.426 348.717 149.106 343.012 158.351C337.309 167.599 328.967 189.184 328.967 189.184C328.967 189.184 329.266 190.572 334.214 189.749C334.214 189.749 350.555 165.539 353.13 163.105C355.703 160.672 378.468 148.339 378.468 148.339L374.843 131.423L374.84 131.426Z" fill="#FFB27D"/>
<path d="M428.045 129.815C426.855 133.171 424.324 137.128 419.647 141.165L407.193 121.5C407.193 121.5 420.249 119.406 427.48 117.937C427.48 117.937 430.53 122.812 428.045 129.815Z" fill="#739AF0"/>
<path d="M394.922 123.797C394.922 123.797 382.489 125.555 373.007 130.866C369.076 133.069 358.944 141.84 358.944 141.84C358.944 141.84 361.773 150.964 373.399 153.711C385.028 156.457 382.545 134.44 382.545 134.44L394.922 123.8V123.797Z" fill="#739AF0"/>
<path d="M467.894 88.9515C467.894 88.9515 469.761 77.9984 472.12 78.1351C474.48 78.2717 476.262 81.9324 476.579 84.0005C476.896 86.0687 472.624 91.6792 472.624 91.6792L467.894 88.9515Z" fill="#FFB27D"/>
<path d="M334.8 190.695C334.8 190.695 335.703 195.717 334.901 197.741C334.1 199.764 331.79 201.364 330.198 201.238C328.605 201.112 331.3 197.423 330.275 195.339C329.249 193.255 327.441 188.832 330.429 187.773C333.42 186.714 334.8 190.693 334.8 190.693V190.695Z" fill="#FFB27D"/>
<path d="M334.219 189.006C334.219 189.006 335.389 192.23 336.06 193.326C336.728 194.422 334.147 192.793 333.511 191.763C332.874 190.732 334.219 189.008 334.219 189.008V189.006Z" fill="#FFB27D"/>
<path d="M375.058 157.526C374.803 162.971 369.106 173.472 362.665 175.506C356.324 177.506 350.437 183.177 350.251 183.356C352.997 178.053 361.2 171.512 365.451 164.755C368.211 160.369 370.232 156.551 371.708 153.222C373.234 153.053 375.234 153.771 375.058 157.523V157.526Z" fill="#6385DB"/>
<path d="M385.609 144.193C382.202 154.341 372.781 158.367 368.85 159.639C368.048 159.897 367.476 160.041 367.228 160.099L367.113 160.125L366.069 155.485C366.104 155.479 367.393 155.18 369.218 154.415H369.22C372.901 152.87 378.777 149.438 381.038 142.695C384.162 133.379 376.169 126.862 375.149 126.078C377.096 125.542 379.046 125.14 380.854 124.849C384.62 128.959 388.365 135.983 385.611 144.19L385.609 144.193Z" fill="#D86036"/>
<path d="M403.486 123.626C403.486 123.626 416.696 125.314 419.645 141.162C419.645 141.162 422.556 140.132 423.15 137.704C423.15 137.704 419.53 123.634 405.651 121.143C404.847 120.999 401.555 120.145 401.555 120.145L401.427 120.883C401.427 120.883 401.491 122.762 401.589 122.985C401.685 123.211 403.486 123.626 403.486 123.626Z" fill="#D86036"/>
<path d="M388.826 124.877C389.888 122.194 390.789 118.213 390.919 113.194L391.654 113.359L404.002 116.148C404.002 116.148 403.605 119.995 403.488 123.629C403.488 123.661 403.488 123.69 403.485 123.719C403.091 134.895 387.944 127.106 388.828 124.877H388.826Z" fill="#FFB27D"/>
<path d="M404.002 116.148L403.68 119.987C396.736 119.59 393.058 116.87 391.657 113.359L404.005 116.148H404.002Z" fill="#E8945B"/>
<path d="M406.948 116.058C406.948 116.058 390.996 120.037 388.639 110.198C386.282 100.359 382.636 94.2465 392.72 91.2901C402.804 88.3338 405.691 91.6265 407.286 94.7195C408.882 97.8152 411.036 114.77 406.948 116.058Z" fill="#FFB27D"/>
<path d="M399.954 89.3534C399.954 89.3534 398.324 101.917 392.001 105.186C385.68 108.456 382.335 107.354 382.335 107.354C382.335 107.354 386.533 102.112 385.92 94.801C385.92 94.801 395.335 84.6258 399.954 89.3534Z" fill="#163560"/>
<path d="M399.091 90.5439C399.091 90.5439 402.628 90.988 404.524 93.0168C406.378 95.0008 408.216 97.7733 408.844 101.55C408.844 101.55 410.277 92.9353 405.504 89.3561C400.447 85.5614 399.091 90.5413 399.091 90.5413V90.5439Z" fill="#163560"/>
<path d="M402.425 110.942C402.425 110.942 402.979 112.037 405.861 111.178C405.861 111.178 408.28 110.458 407.901 109.202C407.901 109.202 405.304 108.847 402.425 110.942Z" fill="white"/>
<path d="M157.365 216.924L156.833 219.166L154.457 229.162L147.468 258.558L134.633 312.561L121.401 368.238L102.538 447.592C84.3225 443.913 69.0369 436.206 56.2976 425.702C31.032 404.86 15.7943 373.018 7.62012 339.775L147.551 211.808L147.585 211.823L151.969 214.112L152.507 214.393L156.612 216.533L156.681 216.569L157.363 216.927L157.365 216.924Z" fill="#F8FBFF"/>
<path d="M214.694 317.504C214.694 317.504 205.164 320.158 196.438 329.395C191.756 334.352 185.566 339.615 183.617 337.865C182.676 337.022 181.283 330.878 187.633 325.401C193.724 320.145 190.92 311.098 197.293 309.119C201.648 307.765 202.117 312.222 212.227 306.806L214.694 317.507V317.504Z" fill="#233862"/>
<path d="M264.895 275.75C264.343 290.844 211.338 323.346 211.338 323.346C211.338 323.346 205.606 320.129 205.795 307.889C205.795 307.889 223.028 283.883 233.663 275.673C235.362 274.365 235.359 271.826 230.837 268.61H230.834C229.532 267.685 227.856 266.702 225.739 265.677C225.739 265.677 205.582 256.009 193.199 247.912C190.853 246.378 188.786 244.898 187.191 243.553C186.613 243.069 210.12 216.323 210.12 216.323L224.658 211.351C224.658 211.351 230.078 220.385 234.267 226.39C237.826 231.491 265.481 259.622 264.892 275.747L264.895 275.75Z" fill="#2A4E96"/>
<path d="M230.834 268.609C229.532 267.684 227.857 266.702 225.739 265.677C225.739 265.677 205.582 256.009 193.2 247.912C194.891 244.17 197.973 239.148 202.676 237.934C210.392 235.945 209.998 249.386 214.233 254.54C218.436 259.654 230.645 268.468 230.834 268.609Z" fill="#233862"/>
<path d="M147.915 207.611L147.535 210.998C147.428 211.942 147.894 212.859 148.725 213.34L154.004 216.398C155.016 216.985 156.217 217.174 157.365 216.927L162.389 215.841L147.915 207.616V207.611Z" fill="#163560"/>
<path d="M195.842 224.584L179.438 215.26C177.933 214.406 177.411 212.493 178.279 211.008L210.544 155.744C213.751 150.254 224.157 142.815 229.721 145.979L231.332 146.896C236.912 150.068 235.615 162.697 232.403 168.203L200.154 223.441C199.288 224.926 197.349 225.438 195.844 224.584H195.842Z" fill="#D86036"/>
<path d="M196.268 137.233L232.355 138.253L184.631 216.68L163.478 210.701L196.268 137.233Z" fill="#D86036"/>
<path d="M162.389 215.836L145.984 206.512C144.48 205.658 143.958 203.745 144.826 202.26L177.091 146.996C180.298 141.506 190.704 134.067 196.268 137.231L197.879 138.148C203.459 141.32 202.162 153.949 198.95 159.455L166.701 214.693C165.835 216.178 163.896 216.69 162.391 215.836H162.389Z" fill="#F77D48"/>
<path d="M240.562 141.186C240.562 141.186 279.698 130.291 285.414 127.815C291.127 125.34 309.654 101.437 309.654 101.437L315.04 104.543C315.04 104.543 309.236 126.869 292.491 138.374C285.955 142.865 249.17 157.103 249.17 157.103L240.562 141.183V141.186Z" fill="#FFB27D"/>
<path d="M111.149 331.477C111.149 331.477 104.789 338.112 102.21 344.39C99.6321 350.668 95.8553 357.813 93.3943 356.886C92.2091 356.439 88.6427 351.217 92.534 343.836C96.2682 336.753 90.3153 329.332 95.5224 325.199C99.0781 322.374 101.158 326.355 108.579 317.68L111.149 331.477Z" fill="#233862"/>
<path d="M226.861 216.953C226.861 216.953 184.935 269.469 166.573 285.707C156.822 294.329 110.571 332.475 110.571 332.475C110.571 332.475 107.396 329.377 106.421 326.686C104.506 321.393 106.115 318.158 106.115 318.158C106.115 318.158 129.056 277.368 144.386 262.148C156.942 249.683 165.428 214.457 193.266 198.308C221.105 182.16 226.861 216.953 226.861 216.953Z" fill="#2A4E96"/>
<path d="M248.12 190.882C237.935 218.559 234.571 226.949 229.25 227.727C187.516 233.837 174.947 225.601 171.218 218.982C170.232 217.226 172.643 212.578 175.543 209.151H175.546C178.673 203.109 188.011 195.662 192.851 187.973C195.993 182.98 198.295 178.63 199.975 174.841C208.192 156.299 201.504 151.111 205.497 148.67C212.491 144.397 245.113 134.997 255.397 138.461C260.431 140.158 253.993 150.394 254.462 158.824C255.045 169.412 251.87 180.701 248.123 190.879L248.12 190.882Z" fill="#F99746"/>
<path d="M203.542 150.028C203.542 150.028 173.802 170.156 167.308 180.683C160.815 191.21 151.317 215.784 151.317 215.784C151.317 215.784 151.658 217.363 157.291 216.427C157.291 216.427 175.895 188.863 178.825 186.094C181.755 183.324 207.67 169.283 207.67 169.283L203.542 150.026V150.028Z" fill="#FFB27D"/>
<path d="M264.112 148.192C262.756 152.013 259.877 156.517 254.55 161.113L240.37 138.726C240.37 138.726 255.234 136.34 263.467 134.668C263.467 134.668 266.938 140.219 264.112 148.192Z" fill="#F99746"/>
<path d="M226.405 141.341C226.405 141.341 212.251 143.343 201.454 149.387C196.979 151.894 185.441 161.88 185.441 161.88C185.441 161.88 188.661 172.268 201.898 175.396C215.136 178.52 212.313 153.455 212.313 153.455L226.405 141.341Z" fill="#F99746"/>
<path d="M309.479 101.67C309.479 101.67 311.604 89.2009 314.291 89.3559C316.979 89.511 319.006 93.6788 319.365 96.0334C319.725 98.388 314.864 104.774 314.864 104.774L309.479 101.668V101.67Z" fill="#FFB27D"/>
<path d="M157.957 217.503C157.957 217.503 158.985 223.221 158.071 225.526C157.158 227.83 154.529 229.651 152.715 229.507C150.901 229.362 153.972 225.163 152.803 222.793C151.634 220.42 149.575 215.385 152.979 214.178C156.383 212.972 157.954 217.503 157.954 217.503H157.957Z" fill="#FFB27D"/>
<path d="M157.296 215.579C157.296 215.579 158.628 219.247 159.39 220.495C160.151 221.744 157.214 219.888 156.489 218.714C155.765 217.542 157.296 215.579 157.296 215.579Z" fill="#FFB27D"/>
<path d="M203.79 179.742C203.497 185.942 197.014 197.896 189.679 200.211C182.461 202.489 175.757 208.946 175.546 209.149C178.673 203.112 188.011 195.665 192.851 187.973C195.994 182.98 198.295 178.631 199.976 174.841C201.715 174.652 203.99 175.464 203.79 179.74V179.742Z" fill="#ED7D2B"/>
<path d="M215.799 164.561C211.921 176.116 201.195 180.699 196.721 182.147C195.807 182.438 195.155 182.604 194.875 182.67L194.745 182.701L193.557 177.419C193.597 177.414 195.061 177.072 197.142 176.2H197.144C201.334 174.442 208.022 170.534 210.597 162.858C214.156 152.252 205.055 144.833 203.891 143.942C206.107 143.333 208.328 142.876 210.384 142.544C214.673 147.222 218.937 155.219 215.799 164.564V164.561Z" fill="#D86036"/>
<path d="M236.153 141.149C236.153 141.149 251.194 143.067 254.55 161.113C254.55 161.113 257.863 159.941 258.54 157.176C258.54 157.176 254.419 141.157 238.617 138.324C237.701 138.161 233.953 137.186 233.953 137.186L233.807 138.027C233.807 138.027 233.881 140.166 233.99 140.421C234.1 140.679 236.15 141.152 236.15 141.152L236.153 141.149Z" fill="#D86036"/>
<path d="M219.462 142.571C220.671 139.517 221.696 134.984 221.845 129.269L222.682 129.458L236.74 132.632C236.74 132.632 236.287 137.013 236.154 141.149V141.252C235.701 153.976 218.458 145.107 219.462 142.571Z" fill="#FFB27D"/>
<path d="M236.74 132.632L236.372 137.005C228.467 136.556 224.28 133.457 222.685 129.46L236.742 132.635L236.74 132.632Z" fill="#E8945B"/>
<path d="M242.743 131.455C242.743 131.455 225.662 138.792 221.209 128.401C216.755 118.01 211.554 111.961 222.271 106.836C232.989 101.712 236.819 104.8 239.176 107.909C241.531 111.017 247.071 129.279 242.743 131.455Z" fill="#FFB27D"/>
<path d="M209.252 108.718C209.045 108.576 208.632 108.521 207.79 108.684C207.79 108.684 208.349 108.108 209.231 107.864C209.111 106.681 209.207 104.511 211.069 103.523C211.069 103.523 210.145 104.351 210.318 105.599C212.02 102.69 216.516 99.757 230.445 97.4024C248.805 94.2989 245.798 107.155 243.816 109.091C241.834 111.031 235.013 108.781 230.76 110.208C226.506 111.635 227.271 118.031 226.016 119.251C224.762 120.47 224.953 118.822 222.732 118.431C220.511 118.042 221.158 121.345 222.279 123.321C223.401 125.295 221.379 128.774 221.379 128.774L217.855 126.527C214.332 124.28 208.522 112.479 209.098 109.509C209.148 109.246 209.196 108.981 209.25 108.715L209.252 108.718Z" fill="#2C3A64"/>
<path d="M497.743 361.072C465.001 419.992 449.079 472.55 296.467 430.953C235.818 414.424 223.062 436.188 157.323 447.209C155.392 447.53 153.418 447.845 151.394 448.15C133.157 450.886 116.934 450.497 102.541 447.593C84.3251 443.914 69.0395 436.206 56.3001 425.703C31.0345 404.861 15.7968 373.019 7.62265 339.776C4.62093 327.58 2.57273 315.195 1.33155 303.096C0.625734 296.224 0.212897 289.746 0.0664062 283.628C0.0664062 283.628 30.5524 289.793 35.312 314.456C35.312 314.456 42.3089 311.731 49.0315 317.686C55.7568 323.638 50.1529 335.54 40.6256 337.329C40.6256 337.329 65.2813 340.223 61.92 366.762C61.92 366.762 76.1696 361.509 82.4953 375.331C82.4953 375.331 103.39 355.428 131.969 368.144C160.548 380.86 159.147 403.804 159.147 403.804C159.147 403.804 172.63 393.301 187.183 402.146C201.736 410.992 202.016 419.84 202.016 419.84C202.016 419.84 209.021 412.098 218.827 416.523C218.827 416.523 234.518 388.326 272.904 400.212C272.904 400.212 282.21 392.904 292.837 399.537C303.467 406.172 303.467 414.051 303.467 414.051C303.467 414.051 327.843 399.537 349.694 421.514C349.694 421.514 363.984 414.878 375.751 421.514C375.751 421.514 376.052 399.537 397.964 393.317C397.964 393.317 395.5 371.342 423.24 368.438C450.975 365.537 460.222 382.119 460.222 382.119C460.222 382.119 472.805 361.154 497.743 361.075V361.072Z" fill="#F8FBFF"/>
</g>
<defs>
<clipPath id="clip0_47_132">
<rect width="601" height="450" fill="white"/>
</clipPath>
</defs>
</svg>
