<svg width="54" height="54" viewBox="0 0 54 54" fill="none" xmlns="http://www.w3.org/2000/svg">
<path id="Vector" d="M12.0988 16.4301C5.94965 17.8214 2.87505 18.5171 2.14355 20.8694C1.41206 23.2215 3.50813 25.6728 7.70025 30.5748L8.7848 31.843C9.97607 33.236 10.5717 33.9325 10.8396 34.7943C11.1076 35.656 11.0176 36.5853 10.8374 38.4441L10.6735 40.1361C10.0397 46.6766 9.7228 49.9468 11.6379 51.4006C13.5529 52.8543 16.4317 51.5288 22.1892 48.8781L23.6787 48.1921C25.3147 47.4388 26.1327 47.0621 27 47.0621C27.8672 47.0621 28.6852 47.4388 30.3212 48.1921L31.8107 48.8781C37.5682 51.5288 40.447 52.8543 42.3622 51.4006C44.2772 49.9468 43.9602 46.6766 43.3265 40.1361M46.2997 30.5748C50.4919 25.6728 52.5879 23.2215 51.8564 20.8694C51.1249 18.5171 48.0502 17.8214 41.9012 16.4301L40.3102 16.0701C38.5627 15.6748 37.6892 15.4771 36.9877 14.9445C36.286 14.412 35.8362 13.6048 34.9362 11.9906L34.117 10.5209C30.9505 4.8403 29.3672 2 27 2C24.6327 2 23.0495 4.84033 19.8829 10.521" stroke="#00BFFF" stroke-width="4" stroke-linecap="round"/>
</svg>
