<svg width="899" height="101" viewBox="0 0 899 101" fill="none" xmlns="http://www.w3.org/2000/svg">
<path d="M183.823 0C212.251 0 235.294 22.3848 235.294 50C235.294 77.6152 212.251 100 183.823 100C155.396 100 132.353 77.6152 132.353 50C132.353 22.3848 155.396 0 183.823 0ZM201.578 70.3804C202.525 67.5587 206.961 39.437 207.509 33.8957C207.674 32.2174 207.128 31.1022 206.059 30.6043C204.765 30 202.85 30.3022 200.627 31.0804C197.579 32.1478 158.614 48.2196 156.363 49.15C154.228 50.0304 152.209 50.9913 152.209 52.3826C152.209 53.3609 152.807 53.9109 154.454 54.4826C156.168 55.0761 160.485 56.3478 163.034 57.0304C165.489 57.6891 168.284 57.1174 169.85 56.1717C171.511 55.1696 190.673 42.713 192.05 41.6217C193.424 40.5304 194.52 41.9283 193.397 43.0217C192.274 44.113 179.119 56.5152 177.385 58.2326C175.279 60.3174 176.774 62.4783 178.186 63.3435C179.8 64.3304 191.403 71.8913 193.151 73.1043C194.899 74.3174 196.671 74.8674 198.293 74.8674C199.916 74.8674 200.771 72.7913 201.578 70.3804Z" fill="#00BFFF"/>
<path d="M51.4706 100C79.897 100 102.941 77.6142 102.941 50C102.941 22.3858 79.897 0 51.4706 0C23.0442 0 0 22.3858 0 50C0 77.6142 23.0442 100 51.4706 100Z" fill="#1976D2"/>
<path d="M316.177 100C344.603 100 367.647 77.6142 367.647 50C367.647 22.3858 344.603 0 316.177 0C287.75 0 264.706 22.3858 264.706 50C264.706 77.6142 287.75 100 316.177 100Z" fill="#19D22C"/>
<path d="M448.529 100C476.956 100 500 77.6142 500 50C500 22.3858 476.956 0 448.529 0C420.103 0 397.059 22.3858 397.059 50C397.059 77.6142 420.103 100 448.529 100Z" fill="black"/>
<path d="M82.1928 35.0986C82.3112 34.7211 82.3678 34.3711 82.3524 34.0586C82.3138 33.1536 81.673 32.4961 80.1649 32.4961H73.4274C71.7263 32.4961 70.9414 33.4961 70.4833 34.4986C70.4833 34.4986 66.2833 42.8961 61.4425 48.4336C59.8726 50.0361 59.0748 49.9961 58.2255 49.9961C57.77 49.9961 56.6197 49.4611 56.6197 47.9936V35.0311C56.6197 33.2961 56.1744 32.4961 54.7358 32.4961H42.7715C41.7241 32.4961 41.1785 33.2961 41.1785 34.0986C41.1785 35.7661 43.4895 36.1661 43.752 40.8386V49.8961C43.752 52.0961 43.3583 52.4961 42.509 52.4961C40.2186 52.4961 35.7097 44.9961 32.691 35.1661C32.0373 33.2311 31.3836 32.4961 29.6825 32.4961H22.8807C20.9171 32.4961 20.5902 33.4311 20.5902 34.4311C20.5902 36.2336 22.1344 45.9786 30.5627 57.1836C36.6748 65.3086 44.7274 69.9961 51.8561 69.9961C56.1744 69.9961 56.6171 68.9286 56.6171 67.2611V59.8311C56.6197 57.8286 57.0906 57.4961 58.4649 57.4961C59.4454 57.4961 61.445 58.1211 65.3053 62.4961C69.7575 67.5411 70.5656 69.9961 73.1186 69.9961H79.8561C81.4208 69.9961 82.3189 69.3586 82.3549 68.1211C82.3627 67.8061 82.3164 67.4536 82.2108 67.0611C81.7116 65.6211 79.4211 62.1011 76.5645 58.7461C74.9818 56.8886 73.4197 55.0486 72.7016 54.0486C72.2204 53.3961 72.0377 52.9361 72.0608 52.4961C72.084 52.0336 72.3311 51.5936 72.7016 50.9786C72.6347 50.9786 81.3436 39.1011 82.1928 35.0986Z" fill="white"/>
<path fill-rule="evenodd" clip-rule="evenodd" d="M302.748 28.4189C301.767 26.3006 300.734 26.2582 299.801 26.2209C299.038 26.1894 298.164 26.1914 297.292 26.1914C296.418 26.1914 295 26.5098 293.8 27.7827C292.6 29.0556 289.217 32.1327 289.217 38.3907C289.217 44.6494 293.91 50.6967 294.563 51.5462C295.218 52.3942 303.622 65.6476 316.93 70.7458C327.992 74.983 330.243 74.1402 332.643 73.9279C335.044 73.7162 340.391 70.8519 341.481 67.8816C342.573 64.9117 342.573 62.3659 342.246 61.8342C341.918 61.3041 341.045 60.9858 339.736 60.3501C338.426 59.7139 331.988 56.6364 330.788 56.2119C329.588 55.7879 328.715 55.5761 327.841 56.8496C326.969 58.1215 324.461 60.9858 323.697 61.8343C322.933 62.6843 322.169 62.7904 320.859 62.1542C319.55 61.5159 315.332 60.174 310.329 55.8412C306.437 52.4697 303.809 48.3061 303.045 47.0325C302.281 45.7606 302.963 45.0716 303.62 44.4374C304.208 43.8674 304.93 42.9522 305.584 42.2099C306.238 41.467 306.456 40.9369 306.892 40.0884C307.329 39.2395 307.111 38.4966 306.783 37.8603C306.456 37.2241 303.912 30.9342 302.748 28.4189Z" fill="white"/>
<path d="M462.972 42.1278C467.191 45.1025 472.359 46.8529 477.941 46.8529V36.2574C476.885 36.2576 475.831 36.149 474.798 35.933V44.2731C469.216 44.2731 464.048 42.5228 459.828 39.5482V61.1705C459.828 71.987 450.939 80.7549 439.974 80.7549C435.883 80.7549 432.08 79.5349 428.922 77.4424C432.527 81.0787 437.555 83.3344 443.117 83.3344C454.083 83.3344 462.973 74.5665 462.973 63.7495L462.972 42.1278ZM466.85 31.4382C464.694 29.1148 463.278 26.1121 462.972 22.7925V21.4297H459.993C460.743 25.6489 463.301 29.2535 466.85 31.4382ZM435.857 69.1421C434.652 67.5841 434.001 65.6782 434.004 63.7186C434.004 58.7715 438.07 54.7603 443.086 54.7603C444.021 54.7601 444.95 54.9013 445.841 55.1801V44.3479C444.8 44.2071 443.749 44.1474 442.699 44.1693V52.6006C441.807 52.3218 440.878 52.1801 439.943 52.181C434.926 52.181 430.861 56.1917 430.861 61.1395C430.861 64.6379 432.893 67.6667 435.857 69.1421Z" fill="#FF004F"/>
<path d="M460.539 39.6086C464.754 42.5931 469.915 44.3493 475.49 44.3493V35.9812C472.378 35.3244 469.623 33.713 467.552 31.4717C464.007 29.2794 461.453 25.6628 460.704 21.4297H452.888V63.8906C452.871 68.8407 448.817 72.8488 443.818 72.8488C440.872 72.8488 438.254 71.4573 436.597 69.3016C433.637 67.8213 431.607 64.7821 431.607 61.2725C431.607 56.3086 435.668 52.2841 440.678 52.2841C441.638 52.2841 442.563 52.4322 443.431 52.7051V44.2456C432.672 44.4658 424.019 53.1771 424.019 63.8908C424.019 69.239 426.174 74.0874 429.671 77.6299C432.826 79.7291 436.624 80.9535 440.71 80.9535C451.662 80.9535 460.54 72.1558 460.54 61.3033L460.539 39.6086Z" fill="black"/>
<path d="M473.039 34.0221V31.7311C470.268 31.7354 467.552 30.9469 465.201 29.4558C467.282 31.7709 470.022 33.3671 473.039 34.0221ZM458.439 19.2883C458.369 18.8787 458.315 18.4664 458.277 18.0524V16.668H447.622V59.661C447.605 64.6724 443.602 68.7307 438.666 68.7307C437.216 68.7307 435.848 68.3811 434.636 67.7599C436.273 69.9423 438.857 71.3511 441.766 71.3511C446.702 71.3511 450.705 67.2932 450.722 62.2811V19.2883H458.439ZM441.384 42.3899V39.951C440.494 39.8273 439.597 39.7652 438.698 39.7657C427.884 39.7655 419.117 48.6733 419.117 59.661C419.117 66.5497 422.563 72.6206 427.798 76.1918C424.345 72.6051 422.217 67.6958 422.217 62.2809C422.217 51.4333 430.761 42.6129 441.384 42.3899Z" fill="#00F2EA"/>
<path d="M632.94 51C632.94 78.6142 609.896 101 581.47 101C553.044 101 530 78.6142 530 51C530 23.3858 553.044 1 581.47 1C609.896 1 632.94 23.3858 632.94 51Z" fill="#50C800"/>
<path d="M765.94 51C765.94 78.6142 742.896 101 714.47 101C686.044 101 663 78.6142 663 51C663 23.3858 686.044 1 714.47 1C742.896 1 765.94 23.3858 765.94 51Z" fill="#50C800"/>
<path d="M898.94 51C898.94 78.6142 875.896 101 847.47 101C819.044 101 796 78.6142 796 51C796 23.3858 819.044 1 847.47 1C875.896 1 898.94 23.3858 898.94 51Z" fill="#CACACA"/>
<path fill-rule="evenodd" clip-rule="evenodd" d="M617.002 61.8657V41.3284C616.198 39.3662 615.012 37.5981 613.543 36.1144C613.674 33.9095 613.182 31.6769 612.038 29.6869C611.289 28.3834 609.479 28.1962 608.467 29.3194L606.172 31.8641C606.158 31.8571 606.144 31.8571 606.131 31.8502C606.429 29.5274 606.033 27.1284 604.896 24.9859C604.189 23.6547 602.657 23.419 601.603 24.5006L590.578 35.6706C590.454 35.7885 590.322 35.9133 590.197 36.0381C590.19 36.045 590.176 36.052 590.169 36.0589C585.378 40.3993 577.911 40.5796 573.349 36.5928C573.064 36.2808 572.766 35.9826 572.454 35.6914L561.409 24.5075C560.355 23.4259 558.823 23.6616 558.115 24.9929C556.985 27.1284 556.583 29.5136 556.874 31.8225C556.853 31.8294 556.833 31.8294 556.812 31.8363L554.545 29.3194C553.532 28.1962 551.723 28.3834 550.967 29.6869C549.844 31.6353 549.351 33.8193 549.455 35.9826C548.006 37.4109 546.827 39.1166 545.995 41.0095V62.1915C548.485 67.8703 554.156 71.8432 560.75 71.8432H561.457C567.996 71.8432 573.626 67.9396 576.143 62.3372C578.563 62.3232 580.317 62.3164 581.405 62.3164C583.763 62.3096 585.6 62.3096 586.918 62.3096C589.428 67.9257 595.072 71.8432 601.617 71.8432H602.116C608.835 71.8432 614.59 67.7175 617.002 61.8657Z" fill="#8EE000"/>
<path fill-rule="evenodd" clip-rule="evenodd" d="M561.749 37.078C567.933 37.078 572.953 42.091 572.953 48.2828V54.9182C572.953 61.1029 567.94 66.1229 561.749 66.1229C555.564 66.1229 550.544 61.11 550.544 54.9182V48.2828C550.544 42.091 555.564 37.078 561.749 37.078Z" fill="white"/>
<path fill-rule="evenodd" clip-rule="evenodd" d="M601.111 37.078C607.295 37.078 612.315 42.091 612.315 48.2828V54.9182C612.315 61.1029 607.302 66.1229 601.111 66.1229C594.926 66.1229 589.906 61.11 589.906 54.9182V48.2828C589.906 42.091 594.919 37.078 601.111 37.078Z" fill="white"/>
<path fill-rule="evenodd" clip-rule="evenodd" d="M563.475 43.5126C566.408 43.5126 568.793 45.8908 568.793 48.8307V54.5093C568.793 57.4422 566.415 59.8272 563.475 59.8272C560.542 59.8272 558.157 57.449 558.157 54.5093V48.8307C558.157 45.8908 560.542 43.5126 563.475 43.5126Z" fill="#4B4B4B"/>
<path fill-rule="evenodd" clip-rule="evenodd" d="M581.503 56.4036C584.865 56.4036 587.59 59.1286 587.59 62.4911V64.6061C587.59 67.9689 584.865 70.6936 581.503 70.6936C578.14 70.6936 575.415 67.9689 575.415 64.6061V62.4911C575.415 59.1286 578.14 56.4036 581.503 56.4036Z" fill="#F48000"/>
<path d="M573.099 63.0736C573.827 59.191 577.426 56.3896 581.732 56.3896C585.649 56.3896 589.192 59.2603 589.906 63.0736V63.3857C589.906 63.6285 589.823 63.7254 589.601 63.6978L581.739 65.0982C581.524 65.0982 581.496 65.0982 581.274 65.0982L573.404 63.6907C573.182 63.7186 573.099 63.6214 573.099 63.3789V63.0736Z" fill="#FFC200"/>
<path fill-rule="evenodd" clip-rule="evenodd" d="M580.213 57.7347C580.622 57.6378 581.045 57.5822 581.468 57.5822C581.919 57.5822 582.376 57.6378 582.827 57.7557C583.742 57.9914 584.38 58.8164 584.38 59.7593C584.38 60.5221 583.763 61.1322 583.007 61.1322H579.998C579.235 61.1322 578.625 60.515 578.625 59.7593C578.618 58.8025 579.277 57.9636 580.213 57.7347Z" fill="#FFE747"/>
<path fill-rule="evenodd" clip-rule="evenodd" d="M599.384 43.5126C602.317 43.5126 604.702 45.8908 604.702 48.8307V54.5093C604.702 57.4422 602.324 59.8272 599.384 59.8272C596.451 59.8272 594.066 57.449 594.066 54.5093V48.8307C594.073 45.8908 596.451 43.5126 599.384 43.5126Z" fill="#4B4B4B"/>
<path d="M558.982 49.9607C560.878 49.9607 562.414 48.4302 562.414 46.5424C562.414 44.6547 560.878 43.1242 558.982 43.1242C557.087 43.1242 555.55 44.6547 555.55 46.5424C555.55 48.4302 557.087 49.9607 558.982 49.9607Z" fill="white"/>
<path d="M594.371 49.9607C596.267 49.9607 597.803 48.4302 597.803 46.5424C597.803 44.6547 596.267 43.1242 594.371 43.1242C592.475 43.1242 590.939 44.6547 590.939 46.5424C590.939 48.4302 592.475 49.9607 594.371 49.9607Z" fill="white"/>
<path d="M749.933 44.1691C730.815 44.2687 715.338 60.3216 715.338 80.1228V80.962H713.851V80.1228C713.851 60.3216 698.346 44.2687 679.192 44.1691C679.063 45.4263 678.999 46.6892 679 47.953C679 63.4369 688.481 76.6376 701.76 81.7017C705.855 83.229 710.192 84.0072 714.562 83.9991C718.932 83.9956 723.267 83.2178 727.365 81.7017C740.637 76.6376 750.125 63.4369 750.125 47.953C750.126 46.6892 750.061 45.4263 749.933 44.1691Z" fill="white"/>
<path d="M722.61 43.1406C727.055 38.6964 727.055 31.491 722.61 27.0469C718.166 22.6027 710.961 22.6027 706.517 27.0469C702.073 31.491 702.073 38.6964 706.517 43.1406C710.961 47.5848 718.166 47.5848 722.61 43.1406Z" fill="white"/>
<path fill-rule="evenodd" clip-rule="evenodd" d="M839.726 81.5848L818 22.8354C818 22.8354 822.738 19.6696 824.581 19.065C826.42 18.4635 858.703 22.2339 858.703 22.2339L877.575 75.5107C877.575 75.5107 857.578 75.4096 848.603 75.4096C847.294 75.4096 841.57 79.4708 841.414 80.0775C841.256 80.6779 870.177 82.0372 870.641 82.0372C871.093 82.0372 871.558 81.4326 872.013 81.2794C872.473 81.1334 873.243 84 872.632 84C872.013 84 839.726 81.5921 839.726 81.5921" fill="#F15B2B"/>
</svg>
