<svg width="116" height="100" viewBox="0 0 116 100" fill="none" xmlns="http://www.w3.org/2000/svg">
<g id="a" clip-path="url(#clip0_106_406)">
<g id="Group">
<path id="Vector" d="M81.1931 50.0045C94.0819 57.5442 94.1519 69.7749 81.3422 77.3193C68.5372 84.859 47.7006 84.859 34.8117 77.3193C21.9181 69.7749 21.8529 57.5442 34.6579 50.0045C47.4675 42.4601 68.2995 42.4601 81.1931 50.0045Z" fill="#221C36"/>
<path id="Vector_2" d="M90.9027 41.6055H25.0972V63.6623H90.9027V41.6055Z" fill="#221C36"/>
<g id="Group_2">
<path id="Vector_3" d="M116 34.0469L115.995 36.2436L58.1841 70.2903L58.1887 68.0936L116 34.0469Z" fill="#302A45"/>
<path id="Vector_4" d="M58.1888 68.0936L58.1841 70.2903L0 36.2436L0.00466144 34.0469L58.1888 68.0936Z" fill="#362D52"/>
<path id="Vector_5" d="M116 34.0467L58.1885 68.0933L0.00439453 34.0467L57.8156 0L116 34.0467Z" fill="#453D5E"/>
</g>
</g>
<path id="Vector_6" d="M59.4383 33.7819C60.2354 34.2496 60.2401 35.0055 59.4476 35.4731C58.6552 35.9408 57.3639 35.9408 56.5622 35.4731C55.7651 35.0055 55.7604 34.2496 56.5529 33.7819C57.3453 33.3142 58.6365 33.3142 59.4383 33.7819Z" fill="#F99A1E"/>
<g id="Group_3">
<path id="Vector_7" d="M90.1242 94.9878C92.082 96.131 92.0914 97.9971 90.1475 99.1403C88.2037 100.284 85.0293 100.284 83.0715 99.1403C81.1137 97.9971 81.1043 96.131 83.0482 94.9878C84.992 93.8446 88.1664 93.8446 90.1242 94.9878Z" fill="#F99A1E"/>
<path id="Vector_8" d="M86.5955 86.4844L81.6963 96.5373H91.5133L86.5955 86.4844Z" fill="#F99A1E"/>
</g>
<path id="Vector_9" d="M84.647 86.6117C84.647 85.5205 85.5187 84.6323 86.6001 84.6323C87.6816 84.6323 88.5533 85.5205 88.5533 86.6117C88.5533 87.703 87.6816 88.5911 86.6001 88.5911C85.5187 88.5911 84.647 87.703 84.647 86.6117Z" fill="#F26D13"/>
<path id="Vector_10" d="M85.0386 86.5646C85.0386 86.2528 85.2857 86.0024 85.5934 86.0024C85.9011 86.0024 86.1482 86.2528 86.1482 86.5646C86.1482 86.8764 85.9011 87.1268 85.5934 87.1268C85.2857 87.1268 85.0386 86.8764 85.0386 86.5646Z" fill="#F99A1E"/>
<path id="Vector_11" d="M57.9976 34.6323L86.5955 51.3604V84.8307" stroke="#F99A1E" stroke-width="3.42" stroke-linecap="round" stroke-linejoin="round"/>
</g>
<defs>
<clipPath id="clip0_106_406">
<rect width="116" height="100" fill="white"/>
</clipPath>
</defs>
</svg>
