<svg width="240" height="210" viewBox="0 0 240 210" fill="none" xmlns="http://www.w3.org/2000/svg">
<path d="M155.299 128.271C155.299 128.271 174.741 157.623 149.011 196.643C146.614 200.278 141.165 199.911 139.256 195.997L127.102 171.067C125.153 167.07 124.983 162.436 126.632 158.307L135.1 137.106L155.299 128.271Z" fill="url(#paint0_linear_259_31)"/>
<path d="M109.407 79.8751C109.407 79.8751 81.1278 58.9035 40.7981 82.5264C37.041 84.7269 37.1186 90.1881 40.9257 92.3007L65.1752 105.761C69.0634 107.919 73.6807 108.335 77.8921 106.907L99.5118 99.5762L109.406 79.8742L109.407 79.8751Z" fill="url(#paint1_linear_259_31)"/>
<path d="M158.001 125.706C158.001 125.706 177.443 155.058 151.713 194.078C149.316 197.712 143.867 197.345 141.958 193.431L129.804 168.502C127.855 164.505 127.685 159.871 129.335 155.742L137.802 134.541L158.001 125.706Z" fill="url(#paint2_linear_259_31)"/>
<path d="M112.108 77.3107C112.108 77.3107 83.8294 56.3391 43.4998 79.9619C39.7427 82.1624 39.8202 87.6236 43.6274 89.7362L67.8769 103.196C71.765 105.354 76.3824 105.771 80.5937 104.342L102.213 97.0117L112.108 77.3098L112.108 77.3107Z" fill="url(#paint3_linear_259_31)"/>
<path d="M145.681 15.2259C182.889 -12.954 235.048 6.60054 235.067 6.67035C235.136 6.69363 251.893 59.8194 221.78 95.4765C194.467 127.82 141.338 146.555 131.165 149.925C130.07 150.287 128.313 150.746 127.844 149.693C118.727 129.213 104.602 115.075 86.4965 106.113C85.494 105.617 86.0733 103.919 86.4801 102.878C90.3269 93.033 111.872 40.8312 145.681 15.2259Z" fill="url(#paint4_linear_259_31)"/>
<path d="M159.529 67.867C180.328 52.248 196.323 62.1593 216.165 48.7951C223.411 43.9148 231.773 35.5248 238.041 19.8576C241.017 37.902 242.574 70.8538 221.78 95.4765C194.467 127.82 141.338 146.555 131.165 149.925C130.07 150.287 128.313 150.746 127.844 149.693C123.238 139.347 117.352 130.621 110.322 123.361C117.745 120.277 123.307 116.436 127.559 112.613C144.707 97.1958 140.577 82.0974 159.528 67.8661L159.529 67.867Z" fill="url(#paint5_linear_259_31)"/>
<path d="M209.726 30.6883C198.621 18.9773 184.485 7.79033 171.094 2.99715C198.727 -4.33096 226.598 3.80047 233.457 6.10009C234.473 6.44055 235.252 7.26197 235.538 8.29456C237.47 15.2667 244.11 43.5302 235.327 70.7344C232.023 58.5984 220.831 42.3985 209.726 30.6883Z" fill="url(#paint6_linear_259_31)"/>
<path d="M238.028 19.8584C238.042 19.9429 238.056 20.0273 238.07 20.1118C238.093 20.2557 238.116 20.4006 238.14 20.5462C238.163 20.691 238.185 20.8384 238.209 20.9849C238.23 21.1246 238.252 21.2642 238.273 21.4056C238.297 21.5616 238.321 21.7193 238.344 21.877C238.364 22.0124 238.384 22.1477 238.404 22.2847C238.428 22.4519 238.453 22.62 238.477 22.789C238.496 22.92 238.514 23.0518 238.533 23.1846C238.558 23.3621 238.582 23.5406 238.606 23.7198C238.623 23.8474 238.64 23.9741 238.657 24.1025C238.682 24.2904 238.706 24.4792 238.73 24.6697C238.746 24.7921 238.761 24.9153 238.777 25.0386C238.802 25.236 238.826 25.4351 238.849 25.635C238.864 25.7557 238.877 25.8764 238.892 25.9971C238.916 26.2022 238.94 26.4091 238.963 26.6168C238.976 26.734 238.989 26.8521 239.002 26.9702C239.025 27.1848 239.048 27.402 239.071 27.6192C239.083 27.733 239.095 27.8467 239.107 27.9605C239.129 28.1846 239.152 28.4096 239.174 28.6354C239.184 28.7457 239.195 28.8569 239.206 28.9681C239.227 29.2008 239.249 29.4344 239.27 29.6697C239.279 29.7766 239.289 29.8835 239.298 29.9912C239.319 30.2317 239.339 30.4739 239.358 30.7178C239.367 30.8221 239.375 30.9273 239.383 31.0324C239.402 31.2807 239.421 31.5306 239.439 31.7815C239.447 31.8832 239.454 31.9857 239.461 32.0883C239.479 32.3434 239.496 32.6003 239.513 32.858C239.519 32.958 239.526 33.058 239.532 33.1588C239.548 33.4217 239.564 33.6863 239.577 33.9518C239.582 34.0483 239.588 34.1457 239.593 34.2423C239.607 34.5129 239.62 34.7844 239.633 35.0576C239.638 35.1516 239.642 35.2455 239.645 35.3395C239.657 35.617 239.669 35.8954 239.679 36.1756C239.682 36.2669 239.686 36.3583 239.689 36.4497C239.698 36.735 239.707 37.0211 239.715 37.309C239.718 37.396 239.72 37.4831 239.722 37.5693C239.73 37.8624 239.736 38.1571 239.742 38.4528C239.744 38.5364 239.745 38.62 239.746 38.7045C239.751 39.0044 239.755 39.3052 239.757 39.6078C239.757 39.6896 239.758 39.7715 239.759 39.8525C239.761 40.1577 239.763 40.4645 239.762 40.7714C239.762 40.8515 239.762 40.9317 239.762 41.0118C239.761 41.323 239.759 41.6359 239.756 41.9496C239.755 42.0255 239.754 42.1022 239.752 42.1789C239.748 42.4969 239.743 42.8159 239.736 43.1356C239.734 43.2089 239.732 43.283 239.731 43.3571C239.723 43.6812 239.714 44.0062 239.704 44.3328C239.701 44.4027 239.699 44.4725 239.697 44.5423C239.686 44.8733 239.674 45.2051 239.659 45.5378C239.657 45.6051 239.653 45.6723 239.65 45.7395C239.635 46.0765 239.619 46.4135 239.601 46.7523C239.597 46.8152 239.594 46.8781 239.59 46.941C239.571 47.2841 239.551 47.628 239.528 47.9736C239.525 48.0331 239.52 48.0934 239.516 48.1529C239.493 48.502 239.469 48.8519 239.442 49.2036C239.438 49.2596 239.433 49.3157 239.429 49.3708C239.401 49.7259 239.372 50.0819 239.341 50.4388C239.337 50.4922 239.332 50.5456 239.327 50.5991C239.295 50.9594 239.26 51.3205 239.224 51.6825C239.219 51.7308 239.214 51.779 239.209 51.8273C239.172 52.1945 239.133 52.5634 239.091 52.9323C239.086 52.9754 239.081 53.0194 239.077 53.0625C239.034 53.4365 238.99 53.8106 238.943 54.1864C238.938 54.2252 238.933 54.264 238.928 54.3036C238.88 54.6837 238.83 55.0656 238.777 55.4474C238.773 55.4802 238.768 55.5121 238.764 55.5448C238.709 55.9335 238.653 56.3223 238.595 56.7119C238.59 56.7377 238.587 56.7636 238.583 56.7894C238.522 57.1859 238.459 57.5824 238.394 57.9798C238.39 57.9987 238.388 58.0177 238.384 58.0366C238.317 58.4418 238.248 58.8469 238.175 59.252C238.173 59.2614 238.172 59.2709 238.17 59.2804C237.489 63.0781 236.561 66.9162 235.328 70.7337C233.216 62.9781 227.88 53.5624 221.406 44.719C227.214 39.5647 233.234 31.8418 238.028 19.8584Z" fill="url(#paint7_linear_259_31)" style="mix-blend-mode:multiply"/>
<path d="M198.931 92.7977C212.513 79.9178 211.93 57.2507 197.628 42.1692C183.326 27.0878 160.722 25.303 147.14 38.1829C133.558 51.0627 134.141 73.7299 148.443 88.8113C162.745 103.893 185.349 105.678 198.931 92.7977Z" fill="url(#paint8_linear_259_31)"/>
<path d="M159.529 67.8686C176.502 55.1224 190.276 59.376 205.552 54.1113C211.393 67.5781 209.252 83.0144 198.932 92.8007C185.35 105.68 162.746 103.895 148.444 88.8134C147.275 87.58 146.198 86.2949 145.213 84.9692C148.22 79.1581 152.1 73.4461 159.529 67.8686Z" fill="url(#paint9_linear_259_31)" style="mix-blend-mode:multiply"/>
<path d="M196.771 90.5182C209.221 78.7124 208.686 57.9355 195.577 44.1116C182.468 30.2878 161.748 28.6519 149.299 40.4577C136.849 52.2635 137.384 73.0404 150.493 86.8642C163.603 100.688 184.322 102.324 196.771 90.5182Z" fill="url(#paint10_linear_259_31)"/>
<path d="M193.713 87.2927C204.558 77.0084 204.092 58.9092 192.672 46.867C181.253 34.8249 163.204 33.3998 152.359 43.6841C141.514 53.9684 141.979 72.0676 153.399 84.1098C164.819 96.152 182.868 97.577 193.713 87.2927Z" fill="url(#paint11_linear_259_31)"/>
<path d="M128.57 150.617C132.276 147.103 125.638 134.086 113.744 121.544C101.849 109.001 89.2029 101.682 85.4969 105.196C81.791 108.711 88.4289 121.727 100.323 134.27C112.217 146.813 124.864 154.132 128.57 150.617Z" fill="url(#paint12_linear_259_31)"/>
<path d="M105.781 120.011L115.024 129.758C119.942 134.944 121.225 142.594 118.268 149.101L115.461 155.275C114.429 157.548 111.423 158.051 109.706 156.24L79.0542 123.916C77.3364 122.105 77.9992 119.131 80.323 118.22L86.6375 115.745C93.2915 113.138 100.863 114.824 105.781 120.011Z" fill="url(#paint13_linear_259_31)"/>
<path d="M113.445 157.584C116.942 154.268 111.82 143.188 102.003 132.836C92.1871 122.485 81.3946 116.782 77.8976 120.098C74.4007 123.414 79.5234 134.494 89.3396 144.845C99.1559 155.197 109.948 160.9 113.445 157.584Z" fill="url(#paint14_linear_259_31)"/>
<path d="M109.179 153.086C111.837 150.566 107.943 142.146 100.483 134.278C93.0224 126.411 84.8201 122.077 82.1625 124.597C79.5049 127.117 83.3984 135.538 90.8588 143.405C98.3192 151.272 106.522 155.607 109.179 153.086Z" fill="url(#paint15_linear_259_31)"/>
<path d="M159.529 67.8686C173.965 57.0281 186.086 58.4835 198.785 55.9228C203.712 66.7874 202.077 79.3655 193.714 87.2969C182.869 97.5806 164.82 96.1558 153.4 84.1138C151.732 82.3538 150.298 80.4636 149.098 78.488C151.624 74.9015 154.882 71.3594 159.529 67.8686Z" fill="url(#paint16_linear_259_31)"/>
<path d="M91.647 135.931C93.3666 139.403 74.1076 153.162 56.988 162.114C54.0032 163.674 46.0881 167.698 35.0244 171.528C16.8032 177.836 5.90586 182.276 1.74619 177.783C-0.972329 174.847 -0.230208 168.839 2.01339 164.975C6.58333 157.106 15.7189 160.998 25.4716 152.669C33.3574 145.935 31.125 140.196 38.0075 136.917C44.5952 133.78 49.0359 137.895 60.9331 139.115C79.3947 141.008 90.3533 133.319 91.647 135.931Z" fill="url(#paint17_linear_259_31)"/>
<path d="M100.156 144.582C84.4132 149.998 75.7215 157.645 70.6767 163.699C64.6889 170.885 64.17 175.43 56.6479 180.608C49.2336 185.712 43.6794 185.468 38.8026 191.929C37.7148 193.37 32.9466 199.687 34.9472 204.146C38.3345 211.694 60.4559 212.432 76.2223 203.478C79.3201 201.718 91.313 194.907 93.2471 183.427C94.1935 177.813 91.9861 175.516 91.8249 168.725C91.6577 161.665 93.7936 153.587 100.157 144.583L100.156 144.582Z" fill="url(#paint18_linear_259_31)"/>
<defs>
<linearGradient id="paint0_linear_259_31" x1="259.278" y1="157.302" x2="180.681" y2="-24.8407" gradientUnits="userSpaceOnUse">
<stop stop-color="#444B8C"/>
<stop offset="1" stop-color="#26264F"/>
</linearGradient>
<linearGradient id="paint1_linear_259_31" x1="185.78" y1="196.738" x2="-1.71447" y2="81.4638" gradientUnits="userSpaceOnUse">
<stop stop-color="#444B8C"/>
<stop offset="1" stop-color="#26264F"/>
</linearGradient>
<linearGradient id="paint2_linear_259_31" x1="259.272" y1="157.305" x2="180.675" y2="-24.8379" gradientUnits="userSpaceOnUse">
<stop stop-color="#AA80F9"/>
<stop offset="1" stop-color="#6165D7"/>
</linearGradient>
<linearGradient id="paint3_linear_259_31" x1="62.9062" y1="126.202" x2="415.439" y2="80.2172" gradientUnits="userSpaceOnUse">
<stop stop-color="#AA80F9"/>
<stop offset="1" stop-color="#6165D7"/>
</linearGradient>
<linearGradient id="paint4_linear_259_31" x1="116.181" y1="167.541" x2="126.887" y2="-61.6008" gradientUnits="userSpaceOnUse">
<stop stop-color="#FFC444"/>
<stop offset="1" stop-color="#F36F56"/>
</linearGradient>
<linearGradient id="paint5_linear_259_31" x1="116.309" y1="162.139" x2="128.27" y2="-101.908" gradientUnits="userSpaceOnUse">
<stop stop-color="#FFC444"/>
<stop offset="1" stop-color="#F36F56"/>
</linearGradient>
<linearGradient id="paint6_linear_259_31" x1="279.395" y1="165.583" x2="92.7595" y2="-65.8903" gradientUnits="userSpaceOnUse">
<stop stop-color="#AA80F9"/>
<stop offset="1" stop-color="#6165D7"/>
</linearGradient>
<linearGradient id="paint7_linear_259_31" x1="110.201" y1="159.282" x2="114.388" y2="-94.8996" gradientUnits="userSpaceOnUse">
<stop stop-color="#AA80F9"/>
<stop offset="1" stop-color="#6165D7"/>
</linearGradient>
<linearGradient id="paint8_linear_259_31" x1="119.874" y1="210.008" x2="119.874" y2="0.00720979" gradientUnits="userSpaceOnUse">
<stop stop-color="#EBEFF2"/>
<stop offset="1" stop-color="white"/>
</linearGradient>
<linearGradient id="paint9_linear_259_31" x1="199.36" y1="175.577" x2="-29.5699" y2="-29.5986" gradientUnits="userSpaceOnUse">
<stop stop-color="#EBEFF2"/>
<stop offset="1" stop-color="white"/>
</linearGradient>
<linearGradient id="paint10_linear_259_31" x1="212.704" y1="69.4055" x2="81.1587" y2="150.502" gradientUnits="userSpaceOnUse">
<stop stop-color="#EBEFF2"/>
<stop offset="1" stop-color="white"/>
</linearGradient>
<linearGradient id="paint11_linear_259_31" x1="-92.0712" y1="219.563" x2="211.339" y2="-44.044" gradientUnits="userSpaceOnUse">
<stop stop-color="#444B8C"/>
<stop offset="1" stop-color="#26264F"/>
</linearGradient>
<linearGradient id="paint12_linear_259_31" x1="-245.074" y1="112.238" x2="119.024" y2="4.4179" gradientUnits="userSpaceOnUse">
<stop stop-color="#FFC444"/>
<stop offset="1" stop-color="#F36F56"/>
</linearGradient>
<linearGradient id="paint13_linear_259_31" x1="241.495" y1="179.894" x2="70.8779" y2="-30.7021" gradientUnits="userSpaceOnUse">
<stop stop-color="#AA80F9"/>
<stop offset="1" stop-color="#6165D7"/>
</linearGradient>
<linearGradient id="paint14_linear_259_31" x1="261.259" y1="91.0939" x2="3.80002" y2="380.272" gradientUnits="userSpaceOnUse">
<stop stop-color="#AA80F9"/>
<stop offset="1" stop-color="#6165D7"/>
</linearGradient>
<linearGradient id="paint15_linear_259_31" x1="261.234" y1="91.0961" x2="3.77223" y2="380.28" gradientUnits="userSpaceOnUse">
<stop stop-color="#444B8C"/>
<stop offset="1" stop-color="#26264F"/>
</linearGradient>
<linearGradient id="paint16_linear_259_31" x1="72.7463" y1="368.803" x2="207.19" y2="-153.324" gradientUnits="userSpaceOnUse">
<stop stop-color="#444B8C"/>
<stop offset="1" stop-color="#26264F"/>
</linearGradient>
<linearGradient id="paint17_linear_259_31" x1="177.219" y1="-37.3125" x2="-172.99" y2="179.729" gradientUnits="userSpaceOnUse">
<stop stop-color="#FFC444"/>
<stop offset="1" stop-color="#F36F56"/>
</linearGradient>
<linearGradient id="paint18_linear_259_31" x1="101.456" y1="164.478" x2="-2.90885" y2="229.879" gradientUnits="userSpaceOnUse">
<stop stop-color="#FFC444"/>
<stop offset="1" stop-color="#F36F56"/>
</linearGradient>
</defs>
</svg>
