<svg width="104" height="25" viewBox="0 0 104 25" fill="none" xmlns="http://www.w3.org/2000/svg">
<g clip-path="url(#clip0_202_75)">
<mask id="mask0_202_75" style="mask-type:luminance" maskUnits="userSpaceOnUse" x="0" y="0" width="104" height="25">
<path d="M103.571 0.714355H0V25.0001H103.571V0.714355Z" fill="white"/>
</mask>
<g mask="url(#mask0_202_75)">
<path d="M13.1854 0.859863C13.2821 2.09209 12.8818 3.3125 12.0696 4.26184C11.6809 4.73291 11.1876 5.11194 10.6267 5.37037C10.0659 5.6288 9.45216 5.75989 8.83176 5.75378C8.79213 5.16124 8.87279 4.5669 9.06913 4.00474C9.26548 3.44259 9.57365 2.92364 9.97604 2.47758C10.7989 1.56444 11.9448 0.986829 13.1854 0.859863ZM15.4499 9.828C15.0374 10.5354 14.8153 11.3331 14.8043 12.1466C14.8054 13.0615 15.083 13.9558 15.6024 14.7181C16.1218 15.4804 16.86 16.0769 17.7251 16.4333C17.385 17.5098 16.8723 18.5271 16.2059 19.4476C15.3119 20.7513 14.3733 22.0255 12.8844 22.0489C12.1756 22.0645 11.6983 21.8668 11.1996 21.6595C10.6804 21.4443 10.1381 21.2197 9.29125 21.2197C8.39185 21.2197 7.82728 21.4513 7.28141 21.6751C6.80945 21.8685 6.35352 22.0559 5.70969 22.081C4.29203 22.1331 3.20741 20.6897 2.28129 19.3981C0.427287 16.7603 -1.0162 11.9644 0.918839 8.70124C1.36548 7.9194 2.01241 7.26357 2.7966 6.79765C3.58079 6.33174 4.4755 6.07162 5.39356 6.04263C6.19857 6.02615 6.96974 6.32888 7.64651 6.59344C8.16389 6.79554 8.62605 6.97596 9.00451 6.97596C9.33667 6.97596 9.78547 6.80248 10.3091 6.60037C11.1328 6.28204 12.1417 5.8917 13.1693 5.99666C13.957 6.0208 14.728 6.22349 15.4211 6.58863C16.1142 6.95377 16.7104 7.4713 17.1623 8.10013C16.451 8.52619 15.862 9.12058 15.4499 9.828ZM64.7387 20.6984C63.1037 20.6984 61.9069 19.9099 61.7689 18.7103H59.8659C59.9861 20.8987 61.8463 22.284 64.6015 22.284C67.5464 22.284 69.3977 20.8658 69.3977 18.6018C69.3977 16.8315 68.338 15.8339 65.7894 15.2467L64.4208 14.9197C62.8197 14.5337 62.1642 14.0306 62.1642 13.1753C62.1642 12.1015 63.1892 11.3633 64.6879 11.3633C66.1857 11.3633 67.2098 12.0919 67.3229 13.3002H69.2C69.1386 11.2124 67.3389 9.77856 64.7137 9.77856C62.061 9.77856 60.1927 11.2124 60.1927 13.3002C60.1927 14.9874 61.2524 16.0265 63.5338 16.5634L65.1438 16.9408C66.7538 17.3259 67.4342 17.8888 67.4342 18.8282C67.4342 19.9108 66.3059 20.6984 64.7387 20.6984Z" fill="black"/>
<path fill-rule="evenodd" clip-rule="evenodd" d="M27.6088 18.8135H32.3444L33.4807 22.0845H35.5208L31.0354 9.98242H28.9516L24.4653 22.0845H26.4716L27.6088 18.8144V18.8135ZM31.8529 17.3042H28.0994L29.9508 11.9957H30.0024L31.8529 17.3042ZM41.4301 22.1739C43.7035 22.1739 45.2102 20.413 45.2102 17.6703C45.2102 14.9362 43.6946 13.1658 41.3954 13.1658C40.8148 13.1477 40.2401 13.2833 39.7324 13.5581C39.2247 13.8329 38.8029 14.2366 38.512 14.7263H38.4772V13.2586H36.6775V25.0007H38.5369V20.6307H38.5796C38.8578 21.1229 39.2726 21.5287 39.7766 21.8018C40.2805 22.0749 40.8533 22.2041 41.4292 22.1747L41.4301 22.1739ZM40.9047 14.7098C42.3509 14.7098 43.2993 15.8843 43.2993 17.6703C43.2993 19.4727 42.3518 20.6385 40.9056 20.6385C39.4844 20.6385 38.5289 19.4485 38.5289 17.6703C38.5289 15.9094 39.4835 14.7098 40.9047 14.7098ZM55.1784 17.6703C55.1784 20.4121 53.6717 22.1739 51.3983 22.1739C50.8224 22.2031 50.2497 22.0738 49.7457 21.8008C49.2417 21.5277 48.8269 21.1219 48.5487 20.6299H48.5051V25.0016H46.6457V13.2586H48.4454V14.7254H48.4801C48.7712 14.2357 49.1931 13.832 49.701 13.5574C50.209 13.2827 50.7838 13.1474 51.3644 13.1658C53.6628 13.1658 55.1784 14.9353 55.1784 17.6703ZM53.2674 17.6703C53.2674 15.8834 52.3199 14.7098 50.8738 14.7098C49.4526 14.7098 48.4971 15.9086 48.4971 17.6703C48.4971 19.4485 49.4526 20.6385 50.8738 20.6385C52.3199 20.6385 53.2674 19.4727 53.2674 17.6703Z" fill="black"/>
<path d="M73.4119 11.1719V13.2606H75.135V14.6944H73.4119V19.5589C73.4119 20.3144 73.7574 20.6665 74.5143 20.6665C74.7191 20.6631 74.923 20.6492 75.1261 20.6249V22.0509C74.7855 22.1127 74.4394 22.1406 74.0931 22.1342C72.2587 22.1342 71.5445 21.4637 71.5445 19.7523V14.6953H70.2266V13.2606H71.5445V11.1719H73.4119Z" fill="black"/>
<path fill-rule="evenodd" clip-rule="evenodd" d="M80.431 13.1494C77.8129 13.1494 76.1353 14.8946 76.1353 17.6703C76.1353 20.4547 77.7969 22.1913 80.431 22.1913C83.0668 22.1913 84.7285 20.4539 84.7285 17.6703C84.7285 14.8946 83.0571 13.1494 80.431 13.1494ZM80.431 14.6414C81.9377 14.6414 82.8335 15.7664 82.8335 17.6703C82.8335 19.583 81.9377 20.6976 80.431 20.6976C78.9243 20.6976 78.0293 19.583 78.0293 17.6703C78.0293 15.7751 78.9243 14.6414 80.431 14.6414Z" fill="black"/>
<path d="M86.2563 13.2576H88.0302V14.7599H88.073C88.1929 14.2908 88.475 13.8762 88.8718 13.5858C89.2687 13.2955 89.756 13.1471 90.252 13.1656C90.4657 13.1656 90.6794 13.1873 90.8887 13.2333V14.9273C90.6182 14.8468 90.3361 14.8099 90.0534 14.818C89.7833 14.8072 89.5139 14.8535 89.264 14.9539C89.014 15.0542 88.7893 15.2061 88.6055 15.3992C88.4213 15.5919 88.2822 15.8211 88.1976 16.0712C88.1131 16.3213 88.0851 16.5862 88.1157 16.8478V22.0817H86.2563V13.2567V13.2576Z" fill="black"/>
<path fill-rule="evenodd" clip-rule="evenodd" d="M95.5623 22.1913C97.6113 22.1913 99.2124 21.0923 99.4627 19.4902H97.6977C97.532 19.8885 97.239 20.2242 96.8621 20.4476C96.4851 20.671 96.0444 20.7702 95.6051 20.7306C95.2708 20.7422 94.9378 20.6847 94.6281 20.5618C94.3183 20.4389 94.0388 20.2534 93.808 20.0176C93.5775 19.781 93.4013 19.4995 93.2911 19.1916C93.1809 18.8836 93.1391 18.5564 93.1687 18.2316V18.1223H99.5669V17.5021C99.5669 14.827 97.9907 13.1494 95.4839 13.1494C92.9362 13.1494 91.2915 14.945 91.2915 17.712C91.2915 20.4712 92.9273 22.1913 95.5623 22.1913ZM97.7057 16.8567H93.1776C93.1764 16.5617 93.2353 16.2694 93.3509 15.9967C93.4664 15.724 93.6364 15.4763 93.8509 15.268C94.0654 15.0597 94.3202 14.8949 94.6005 14.7832C94.8808 14.6715 95.1811 14.615 95.4839 14.6171C95.784 14.611 96.0822 14.6654 96.3597 14.7768C96.6372 14.8882 96.8881 15.0542 97.0967 15.2645C97.3053 15.4748 97.467 15.7247 97.5718 15.9987C97.6766 16.2727 97.7222 16.5648 97.7057 16.8567Z" fill="black"/>
<path d="M27.576 3.32954H26.7773V4.11888H27.601C28.4327 4.11888 28.9082 4.47365 28.9082 5.04961C28.9082 5.61776 28.4033 6.02111 27.6295 6.02111C26.8556 6.02111 26.3311 5.662 26.2777 5.10599H25.3872C25.4139 5.36419 25.4938 5.61449 25.622 5.84198C25.7501 6.06947 25.9241 6.26948 26.1333 6.43009C26.3426 6.59069 26.5829 6.7086 26.8399 6.77678C27.097 6.84496 27.3655 6.86202 27.6295 6.82693C27.8929 6.85877 28.1601 6.83908 28.4156 6.76903C28.6711 6.69897 28.9096 6.57996 29.1173 6.41896C29.325 6.25797 29.4975 6.05822 29.625 5.83142C29.7524 5.60463 29.832 5.35535 29.8593 5.09819C29.8737 4.74045 29.7422 4.39168 29.4934 4.12818C29.2446 3.86468 28.8987 3.70789 28.5315 3.69212V3.62272C28.8412 3.55544 29.1179 3.38671 29.3153 3.1447C29.5127 2.9027 29.6189 2.60206 29.6162 2.29298C29.6162 1.37006 28.788 0.729914 27.6125 0.729914C27.3579 0.697827 27.0993 0.717104 26.8526 0.786545C26.606 0.855986 26.3767 0.974106 26.1789 1.13356C25.9811 1.29302 25.8191 1.4904 25.703 1.71344C25.5869 1.93647 25.5191 2.1804 25.5039 2.43004H26.3801C26.3958 2.29233 26.4396 2.15909 26.5091 2.03821C26.5786 1.91733 26.6723 1.81128 26.7847 1.72634C26.8971 1.6414 27.0258 1.5793 27.1633 1.54373C27.3007 1.50816 27.4441 1.49983 27.5849 1.51926C28.2867 1.51926 28.7016 1.86622 28.7016 2.40228C28.6955 2.53702 28.6609 2.66907 28.5999 2.79014C28.5389 2.9112 28.4528 3.01866 28.3471 3.10575C28.2414 3.19285 28.1183 3.25769 27.9856 3.2962C27.8529 3.33471 27.7135 3.34606 27.576 3.32954Z" fill="black"/>
<path fill-rule="evenodd" clip-rule="evenodd" d="M32.5509 4.13236C31.4796 4.19741 30.875 4.6528 30.875 5.44301C30.8759 5.62816 30.9165 5.81108 30.9943 5.98C31.0721 6.14893 31.1854 6.3001 31.3268 6.42381C31.4683 6.54751 31.6347 6.64101 31.8155 6.69826C31.9962 6.75552 32.1873 6.77528 32.3764 6.75627C32.6444 6.76835 32.9108 6.71097 33.1486 6.58997C33.3864 6.46898 33.587 6.28871 33.7299 6.06755H33.8003V6.68341H34.6569V3.68651C34.6569 2.75925 34.0202 2.21191 32.8911 2.21191C31.8688 2.21191 31.1395 2.69506 31.0486 3.44884H31.9098C32.0095 3.13917 32.3523 2.96136 32.8483 2.96136C33.4574 2.96136 33.7709 3.22331 33.7709 3.68651V4.06557L32.5509 4.13409V4.13236ZM33.7709 4.70138V5.06829C33.761 5.20662 33.7227 5.34161 33.6582 5.46526C33.5938 5.58891 33.5046 5.69872 33.3958 5.78817C33.287 5.87763 33.1609 5.94491 33.025 5.98605C32.889 6.02718 32.746 6.04133 32.6043 6.02765C32.1208 6.02765 31.7691 5.79778 31.7691 5.40311C31.7691 5.01538 32.0504 4.8098 32.6702 4.7699L33.7709 4.70051V4.70138Z" fill="black"/>
<path d="M37.0122 3.02637V6.68596H36.1226V2.29688H39.0897V3.02637H37.0122Z" fill="black"/>
<path fill-rule="evenodd" clip-rule="evenodd" d="M42.6191 6.75853C43.7571 6.75853 44.4811 5.88418 44.4811 4.49026C44.4811 3.09546 43.7571 2.22458 42.6111 2.22458C42.3226 2.21766 42.0378 2.28853 41.7881 2.42935C41.5384 2.57018 41.3335 2.77548 41.1961 3.0226H41.1302V2.29745H40.2744V8.14465H41.1631V6.0221H41.2335C41.3685 6.26085 41.5707 6.45707 41.8164 6.58768C42.062 6.7183 42.3408 6.77787 42.62 6.7594L42.6191 6.75853ZM42.3626 3.00265C43.116 3.00265 43.5666 3.563 43.5666 4.49026C43.5666 5.42099 43.116 5.98046 42.3591 5.98046C41.6146 5.98046 41.1462 5.40797 41.1462 4.49373C41.1462 3.57427 41.6146 3.00265 42.3626 3.00265Z" fill="black"/>
<path d="M45.667 8.25839V7.51242C45.7632 7.52456 45.8594 7.52977 45.9564 7.5289C46.146 7.54288 46.3342 7.48806 46.4848 7.37501C46.6354 7.26195 46.7377 7.09865 46.7721 6.91651L46.838 6.70313L45.2075 2.29842H46.1755L47.3055 5.78367H47.3759L48.5015 2.29842H49.4445L47.7641 6.86793C47.3794 7.93571 46.9538 8.27834 46.0348 8.27834C45.9609 8.27834 45.7498 8.26967 45.667 8.25839ZM51.0224 5.44191H50.1373C50.2192 6.3284 51.0189 6.76731 52.002 6.76731C53.1151 6.76731 53.8444 6.21564 53.8444 5.38119C53.8469 5.14009 53.7585 4.90646 53.5961 4.72455C53.4336 4.54264 53.2083 4.42506 52.9628 4.39408V4.32556C53.1691 4.27775 53.3523 4.16243 53.4818 3.99887C53.6113 3.83531 53.6793 3.63342 53.6743 3.42692C53.6743 2.68529 53.0617 2.21428 51.9913 2.21428C51.5814 2.15893 51.1656 2.26253 50.8334 2.50278C50.5011 2.74303 50.279 3.10074 50.2148 3.49892H51.0714C51.1293 3.15195 51.4926 2.94638 51.9895 2.94638C52.5363 2.94638 52.7999 3.19272 52.7999 3.51453C52.7999 3.88144 52.5274 4.08268 51.9895 4.08268H51.327V4.75579H52.0011C52.6307 4.75579 52.9575 4.9579 52.9575 5.38033C52.9575 5.77587 52.5933 6.03002 52.0011 6.03002C51.481 6.03002 51.1088 5.82791 51.0215 5.44018L51.0224 5.44191ZM55.1196 6.68665V2.29756H56.0012V5.31614H56.0715L58.1473 2.29756H59.0289V6.68665H58.1473V3.65245H58.0814L56.0012 6.68665H55.1196ZM62.4671 3.02705H63.8856V2.29842H60.158V3.02705H61.5766V6.68665H62.4671V3.02705Z" fill="black"/>
<path fill-rule="evenodd" clip-rule="evenodd" d="M68.6729 5.49884C68.5518 5.8999 68.2899 6.24677 67.9329 6.47888C67.576 6.71098 67.1467 6.81357 66.72 6.76873C66.4231 6.77637 66.1281 6.72098 65.8554 6.6064C65.5828 6.49182 65.339 6.32081 65.1409 6.10523C64.9429 5.88965 64.7955 5.63468 64.7088 5.35801C64.6221 5.08134 64.5982 4.7896 64.6389 4.50306C64.5998 4.2158 64.6244 3.92371 64.7111 3.64649C64.7977 3.36928 64.9444 3.1134 65.1412 2.89611C65.3381 2.67882 65.5804 2.50519 65.852 2.38691C66.1236 2.26864 66.4181 2.20848 66.7156 2.2105C67.9694 2.2105 68.7263 3.04495 68.7263 4.42239V4.72512H65.5454V4.77369C65.5317 4.9347 65.5526 5.09674 65.6067 5.24944C65.6609 5.40214 65.7472 5.54215 65.8601 5.66052C65.973 5.77889 66.11 5.87302 66.2624 5.93689C66.4147 6.00075 66.5791 6.03296 66.7449 6.03143C66.9576 6.05622 67.173 6.01881 67.3638 5.92397C67.5546 5.82912 67.712 5.68114 67.8162 5.49884H68.6729ZM65.5454 4.08497H67.8198C67.8311 3.93774 67.8107 3.78982 67.7598 3.65073C67.709 3.51164 67.6288 3.38446 67.5245 3.27735C67.4201 3.17025 67.294 3.0856 67.154 3.02884C67.0141 2.97208 66.8635 2.94448 66.712 2.9478C66.5582 2.94581 66.4056 2.97385 66.2632 3.03025C66.1207 3.08666 65.9913 3.17028 65.8826 3.27619C65.7739 3.38211 65.688 3.50816 65.6301 3.64692C65.5722 3.78568 65.5434 3.9352 65.5454 4.08497ZM74.4762 2.29811H72.445V6.68633H74.4967C75.4851 6.68633 76.0764 6.1867 76.0764 5.42078C76.0794 5.16404 75.9812 4.91597 75.8019 4.72776C75.6226 4.53956 75.376 4.42559 75.1129 4.40938V4.33999C75.3295 4.29389 75.5234 4.17672 75.662 4.0081C75.8006 3.83947 75.8755 3.6296 75.8743 3.41359C75.8743 2.73268 75.3578 2.29811 74.4762 2.29811ZM73.3266 4.09885V2.96254H74.3061C74.7781 2.96254 75.0016 3.1846 75.0016 3.52636C75.0016 3.89761 74.7451 4.09885 74.2073 4.09885H73.3266ZM73.3266 6.02189V4.73553H74.2696C74.8689 4.73553 75.1868 4.9411 75.1868 5.38088C75.1868 5.7955 74.9063 6.02189 74.3809 6.02189H73.3266Z" fill="black"/>
</g>
</g>
<defs>
<clipPath id="clip0_202_75">
<rect width="103.571" height="25" fill="white"/>
</clipPath>
</defs>
</svg>
