<svg width="108" height="24" viewBox="0 0 108 24" fill="none" xmlns="http://www.w3.org/2000/svg">
<path d="M51.1502 12.3103C50.3355 12.3131 49.5399 12.5523 48.8638 12.9979C48.1878 13.4435 47.6616 14.0754 47.3518 14.8138C47.042 15.5522 46.9624 16.3641 47.123 17.1468C47.2837 17.9296 47.6774 18.6481 48.2545 19.2117C48.8315 19.7753 49.5661 20.1587 50.3653 20.3134C51.1646 20.4682 51.9927 20.3874 52.7451 20.0812C53.4975 19.775 54.1405 19.2572 54.5928 18.5932C55.0452 17.9291 55.2866 17.1486 55.2866 16.3502C55.2951 15.8163 55.1938 15.2862 54.9888 14.7914C54.7838 14.2967 54.4793 13.8475 54.0934 13.4705C53.7075 13.0935 53.2481 12.7965 52.7426 12.5972C52.2371 12.3979 51.6949 12.3003 51.1502 12.3103ZM51.1502 18.7956C49.9039 18.7956 48.825 17.7863 48.825 16.3502C48.825 14.9131 49.9115 13.902 51.1511 13.902C52.3888 13.902 53.4763 14.8937 53.4763 16.3502C53.4763 17.8058 52.3983 18.7956 51.1502 18.7956ZM42.129 12.3103C41.3146 12.3134 40.5194 12.5529 39.8438 12.9986C39.1682 13.4442 38.6425 14.0761 38.333 14.8143C38.0235 15.5525 37.9441 16.3641 38.1048 17.1465C38.2656 17.9289 38.6593 18.6471 39.2362 19.2104C39.8131 19.7738 40.5474 20.1569 41.3463 20.3116C42.1453 20.4663 42.9731 20.3855 43.7253 20.0795C44.4774 19.7735 45.1202 19.256 45.5725 18.5922C46.0247 17.9285 46.2662 17.1483 46.2664 16.3502C46.2747 15.8161 46.1733 15.2858 45.968 14.7909C45.7628 14.2961 45.458 13.8467 45.0719 13.4698C44.6857 13.0928 44.226 12.7958 43.7203 12.5966C43.2145 12.3974 42.674 12.3001 42.129 12.3103ZM42.129 18.7956C40.8818 18.7956 39.8047 17.7863 39.8047 16.3502C39.8047 14.9131 40.8818 13.902 42.129 13.902C43.3762 13.902 44.4542 14.8937 44.4542 16.3502C44.4542 17.8058 43.3771 18.7956 42.129 18.7956ZM31.4006 13.5511V15.2706H35.5823C35.4567 16.2335 35.1307 16.9373 34.6309 17.4252C34.0234 18.0206 33.0701 18.6789 31.3921 18.6789C30.2001 18.6189 29.0773 18.1126 28.2553 17.2646C27.4333 16.4165 26.975 15.2916 26.975 14.1219C26.975 12.9523 27.4333 11.8273 28.2553 10.9793C29.0773 10.1313 30.2001 9.62497 31.3921 9.56492C32.5682 9.54548 33.7043 9.98288 34.5525 10.7816L35.7864 9.57511C35.2097 9.01516 34.5247 8.57372 33.7715 8.27671C33.0184 7.97969 32.2123 7.83307 31.4006 7.84545C27.8735 7.84545 24.9087 10.6603 24.9087 14.1159C24.9087 17.5715 27.8735 20.3873 31.3996 20.3873C33.3053 20.3873 34.7405 19.7743 35.8535 18.628C37.0071 17.4965 37.3681 15.9076 37.3681 14.6224C37.3728 14.2631 37.3408 13.9042 37.2726 13.5511H31.4006ZM75.2941 14.8743C74.9502 13.9715 73.9052 12.2946 71.7681 12.2946C69.6299 12.2946 67.8811 13.9317 67.8811 16.3345C67.8696 16.8652 67.9673 17.3928 68.1684 17.8857C68.3694 18.3786 68.6697 18.8268 69.0513 19.2036C69.4329 19.5803 69.888 19.8779 70.3895 20.0786C70.891 20.2793 71.4286 20.3789 71.9702 20.3716C72.65 20.377 73.3204 20.2166 73.9211 19.9048C74.5219 19.593 75.0339 19.1396 75.4113 18.5854L74.0063 17.6669C73.5386 18.3419 72.899 18.7836 71.9825 18.7836C71.5629 18.7993 71.148 18.6912 70.7918 18.4733C70.4355 18.2554 70.1542 17.9377 69.9842 17.5613L75.4925 15.328L75.2941 14.8743ZM69.6772 16.2187C69.6604 15.9265 69.7028 15.6339 69.8021 15.3579C69.9014 15.0818 70.0555 14.8278 70.2555 14.6105C70.4556 14.3932 70.6976 14.2169 70.9676 14.0918C71.2376 13.9667 71.5302 13.8953 71.8285 13.8816C72.5494 13.8816 73.1569 14.2335 73.3591 14.7391L69.6772 16.2187ZM65.1968 20.1354H67.0071V8.27416H65.1968V20.1354ZM62.2329 13.2057H62.1715C61.8959 12.9131 61.5599 12.6813 61.1859 12.5256C60.8119 12.37 60.4084 12.2941 60.0022 12.3029C57.9415 12.3029 56.0547 14.0881 56.0547 16.3585C56.0547 18.6271 57.9415 20.379 60.0022 20.379C60.4101 20.3894 60.8155 20.3127 61.1902 20.1541C61.5648 19.9954 61.8997 19.7587 62.1715 19.4604H62.2329V20.0419C62.2329 21.5873 61.3901 22.4123 60.0343 22.4123C58.9251 22.4123 58.2392 21.6327 57.9576 20.9762L56.3826 21.6188C56.6798 22.3254 57.1851 22.9293 57.834 23.3533C58.4828 23.7773 59.2459 24.0022 60.0258 23.9994C62.1479 23.9994 63.943 22.7753 63.943 19.7938V12.5566H62.2235L62.232 13.2048L62.2329 13.2057ZM60.1581 18.7882C58.909 18.7882 57.8641 17.7641 57.8641 16.3576C57.8641 14.9511 58.909 13.8946 60.1581 13.8946C61.4071 13.8946 62.3576 14.9354 62.3576 16.3576C62.3576 17.7799 61.3901 18.7882 60.1581 18.7882ZM83.7748 8.27416H79.4447V20.141H81.2503V15.6456H83.7748C85.7779 15.6456 87.7459 14.2252 87.7459 11.9603C87.7459 9.69455 85.7788 8.27509 83.7748 8.27509M83.8221 13.9955H81.2503V9.92604H83.8211C84.3718 9.92604 84.8999 10.1404 85.2893 10.522C85.6786 10.9036 85.8974 11.4211 85.8974 11.9608C85.8974 12.5004 85.6786 13.018 85.2893 13.3996C84.8999 13.7812 84.3727 13.9955 83.8221 13.9955ZM94.9908 12.2946C93.6832 12.2946 92.3274 12.8603 91.7661 14.1094L93.3714 14.7668C93.7134 14.1094 94.3512 13.8983 95.0239 13.8983C95.9564 13.8983 96.9079 14.4474 96.922 15.4233V15.5465C96.3423 15.2436 95.695 15.0861 95.0381 15.0882C93.309 15.0882 91.5479 16.0206 91.5479 17.7604C91.5479 19.3475 92.9651 20.3716 94.5543 20.3716C95.7684 20.3716 96.4402 19.8373 96.8616 19.2104H96.922V20.1271H98.6671V15.5715C98.6671 13.465 97.0638 12.2909 94.9908 12.2909M94.7745 18.7938C94.1811 18.7938 93.3572 18.5039 93.3572 17.7863C93.3572 16.8697 94.3861 16.5206 95.2743 16.5206C95.8505 16.5046 96.4205 16.6415 96.9239 16.9169C96.8581 17.4314 96.6043 17.905 96.2094 18.2501C95.8145 18.5952 95.3054 18.7884 94.7763 18.7938M105.026 12.5492L102.953 17.6947H102.89L100.746 12.5492H98.7984L102.023 19.7401L100.179 23.742H102.064L107.034 12.5492H105.026ZM88.7465 20.1429H90.5539V8.27601H88.7465V20.1429Z" fill="black"/>
<path d="M8.61822 9.72266L0.0795898 18.5912C0.171637 18.9274 0.341696 19.2382 0.5765 19.4994C0.811304 19.7606 1.10451 19.9651 1.43323 20.0969C1.76196 20.2287 2.11732 20.2844 2.4716 20.2595C2.82588 20.2346 3.1695 20.1298 3.47565 19.9533L3.50302 19.9387L13.1179 14.5133L8.61666 9.72266H8.61822Z" fill="#CF5A4C"/>
<path d="M17.2545 8.20146H17.2467L13.0974 5.83984L8.42725 9.91538L13.1185 14.5144L17.2404 12.185C17.606 11.9918 17.9116 11.7056 18.1251 11.3565C18.3386 11.0073 18.4521 10.6082 18.4535 10.2012C18.455 9.79414 18.3444 9.39426 18.1333 9.04367C17.9223 8.69309 17.6187 8.40478 17.2545 8.20913" fill="#E9B545"/>
<path d="M0.0782236 1.73828C0.0257311 1.92791 -0.000574767 2.12358 9.52284e-06 2.32006V18.0113C9.52284e-06 18.2075 0.0258202 18.403 0.0782236 18.5923L8.91016 9.93994L0.0782236 1.73828Z" fill="#6B80BE"/>
<path d="M8.67923 10.1671L13.0983 5.83866L3.49911 0.384935C3.19269 0.204421 2.84768 0.0961114 2.49126 0.0685402C2.13485 0.0409691 1.77677 0.09489 1.44525 0.226054C1.11372 0.357218 0.817807 0.562041 0.58082 0.824384C0.343833 1.08673 0.172249 1.39942 0.0795898 1.73783L8.67923 10.1671Z" fill="#6DA963"/>
</svg>
