<svg width="150" height="150" viewBox="0 0 150 150" fill="none" xmlns="http://www.w3.org/2000/svg">
<g clip-path="url(#clip0_166_121)">
<path d="M49.138 0C49.8239 0 50.4817 0.272475 50.9667 0.757482C51.4517 1.24249 51.7242 1.9003 51.7242 2.58621C51.7242 3.27211 51.4517 3.92992 50.9667 4.41493C50.4817 4.89994 49.8239 5.17241 49.138 5.17241C48.452 5.17241 47.7942 4.89994 47.3092 4.41493C46.8242 3.92992 46.5517 3.27211 46.5517 2.58621C46.5517 1.9003 46.8242 1.24249 47.3092 0.757482C47.7942 0.272475 48.452 0 49.138 0ZM59.4828 0H62.069V5.17241H59.4828C58.7969 5.17241 58.1391 4.89994 57.654 4.41493C57.169 3.92992 56.8966 3.27211 56.8966 2.58621C56.8966 1.9003 57.169 1.24249 57.654 0.757482C58.1391 0.272475 58.7969 0 59.4828 0ZM62.069 0V5.17241H67.2414C67.2414 3.8006 66.6964 2.48498 65.7264 1.51496C64.7564 0.544949 63.4408 0 62.069 0ZM75 0C75.6859 0 76.3437 0.272475 76.8287 0.757482C77.3138 1.24249 77.5862 1.9003 77.5862 2.58621C77.5862 3.27211 77.3138 3.92992 76.8287 4.41493C76.3437 4.89994 75.6859 5.17241 75 5.17241C74.3141 5.17241 73.6563 4.89994 73.1713 4.41493C72.6863 3.92992 72.4138 3.27211 72.4138 2.58621C72.4138 1.9003 72.6863 1.24249 73.1713 0.757482C73.6563 0.272475 74.3141 0 75 0ZM103.448 2.58621V5.17241H98.2759V2.58621C98.2759 1.9003 98.5484 1.24249 99.0334 0.757482C99.5184 0.272475 100.176 0 100.862 0C101.548 0 102.206 0.272475 102.691 0.757482C103.176 1.24249 103.448 1.9003 103.448 2.58621ZM43.9655 5.17241C44.6514 5.17241 45.3092 5.44489 45.7943 5.9299C46.2793 6.4149 46.5517 7.07272 46.5517 7.75862C46.5517 8.44453 46.2793 9.10234 45.7943 9.58735C45.3092 10.0724 44.6514 10.3448 43.9655 10.3448C43.2796 10.3448 42.6218 10.0724 42.1368 9.58735C41.6518 9.10234 41.3793 8.44453 41.3793 7.75862C41.3793 7.07272 41.6518 6.4149 42.1368 5.9299C42.6218 5.44489 43.2796 5.17241 43.9655 5.17241ZM54.3104 5.17241C54.9963 5.17241 55.6541 5.44489 56.1391 5.9299C56.6241 6.4149 56.8966 7.07272 56.8966 7.75862C56.8966 8.44453 56.6241 9.10234 56.1391 9.58735C55.6541 10.0724 54.9963 10.3448 54.3104 10.3448C53.6245 10.3448 52.9666 10.0724 52.4816 9.58735C51.9966 9.10234 51.7242 8.44453 51.7242 7.75862C51.7242 7.07272 51.9966 6.4149 52.4816 5.9299C52.9666 5.44489 53.6245 5.17241 54.3104 5.17241ZM67.2414 10.3448V5.17241H62.069C62.069 6.54422 62.6139 7.85985 63.584 8.82986C64.554 9.79988 65.8696 10.3448 67.2414 10.3448ZM69.8276 10.3448H67.2414V5.17241H69.8276C70.5135 5.17241 71.1713 5.44489 71.6563 5.9299C72.1413 6.4149 72.4138 7.07272 72.4138 7.75862C72.4138 8.44453 72.1413 9.10234 71.6563 9.58735C71.1713 10.0724 70.5135 10.3448 69.8276 10.3448ZM103.448 5.17241H98.2759V10.3448H103.448V5.17241ZM106.035 10.3448H103.448V5.17241H106.035C106.72 5.17241 107.378 5.44489 107.863 5.9299C108.348 6.4149 108.621 7.07272 108.621 7.75862C108.621 8.44453 108.348 9.10234 107.863 9.58735C107.378 10.0724 106.72 10.3448 106.035 10.3448ZM62.069 12.931V15.5172H56.8966V12.931C56.8966 12.2451 57.169 11.5873 57.654 11.1023C58.1391 10.6173 58.7969 10.3448 59.4828 10.3448C60.1687 10.3448 60.8265 10.6173 61.3115 11.1023C61.7965 11.5873 62.069 12.2451 62.069 12.931ZM80.1724 10.3448C80.8583 10.3448 81.5162 10.6173 82.0012 11.1023C82.4862 11.5873 82.7586 12.2451 82.7586 12.931C82.7586 13.6169 82.4862 14.2748 82.0012 14.7598C81.5162 15.2448 80.8583 15.5172 80.1724 15.5172C79.4865 15.5172 78.8287 15.2448 78.3437 14.7598C77.8587 14.2748 77.5862 13.6169 77.5862 12.931C77.5862 12.2451 77.8587 11.5873 78.3437 11.1023C78.8287 10.6173 79.4865 10.3448 80.1724 10.3448ZM93.1035 15.5172H98.2759V10.3448C96.9041 10.3448 95.5884 10.8898 94.6184 11.8598C93.6484 12.8298 93.1035 14.1454 93.1035 15.5172ZM103.448 10.3448H98.2759V15.5172C99.6477 15.5172 100.963 14.9723 101.933 14.0023C102.903 13.0323 103.448 11.7166 103.448 10.3448ZM62.069 15.5172H56.8966V20.6897H62.069V15.5172ZM72.4138 18.1034V20.6897H67.2414V18.1034C67.2414 17.4175 67.5139 16.7597 67.9989 16.2747C68.4839 15.7897 69.1417 15.5172 69.8276 15.5172C70.5135 15.5172 71.1713 15.7897 71.6563 16.2747C72.1413 16.7597 72.4138 17.4175 72.4138 18.1034ZM87.9311 18.1034V20.6897H82.7586V18.1034C82.7586 17.4175 83.0311 16.7597 83.5161 16.2747C84.0011 15.7897 84.6589 15.5172 85.3448 15.5172C86.0308 15.5172 86.6886 15.7897 87.1736 16.2747C87.6586 16.7597 87.9311 17.4175 87.9311 18.1034ZM98.2759 15.5172H93.1035V20.6897H98.2759V15.5172ZM43.9655 20.6897C44.6514 20.6897 45.3092 20.9621 45.7943 21.4471C46.2793 21.9321 46.5517 22.59 46.5517 23.2759C46.5517 23.9618 46.2793 24.6196 45.7943 25.1046C45.3092 25.5896 44.6514 25.8621 43.9655 25.8621C43.2796 25.8621 42.6218 25.5896 42.1368 25.1046C41.6518 24.6196 41.3793 23.9618 41.3793 23.2759C41.3793 22.59 41.6518 21.9321 42.1368 21.4471C42.6218 20.9621 43.2796 20.6897 43.9655 20.6897ZM54.3104 20.6897H56.8966V25.8621H54.3104C53.6245 25.8621 52.9666 25.5896 52.4816 25.1046C51.9966 24.6196 51.7242 23.9618 51.7242 23.2759C51.7242 22.59 51.9966 21.9321 52.4816 21.4471C52.9666 20.9621 53.6245 20.6897 54.3104 20.6897ZM62.069 20.6897H56.8966V25.8621C58.2684 25.8621 59.584 25.3171 60.554 24.3471C61.524 23.3771 62.069 22.0615 62.069 20.6897ZM67.2414 23.2759V20.6897H72.4138V23.2759C72.4138 23.9618 72.1413 24.6196 71.6563 25.1046C71.1713 25.5896 70.5135 25.8621 69.8276 25.8621C69.1417 25.8621 68.4839 25.5896 67.9989 25.1046C67.5139 24.6196 67.2414 23.9618 67.2414 23.2759ZM87.9311 20.6897H82.7586V25.8621H87.9311V20.6897ZM93.1035 20.6897H87.9311V25.8621H93.1035V20.6897ZM98.2759 20.6897H93.1035V25.8621H98.2759V20.6897ZM103.448 20.6897H98.2759V25.8621H103.448V20.6897ZM103.448 20.6897V25.8621H108.621C108.621 24.4903 108.076 23.1746 107.106 22.2046C106.136 21.2346 104.82 20.6897 103.448 20.6897ZM49.138 25.8621C49.8239 25.8621 50.4817 26.1345 50.9667 26.6196C51.4517 27.1046 51.7242 27.7624 51.7242 28.4483C51.7242 29.1342 51.4517 29.792 50.9667 30.277C50.4817 30.762 49.8239 31.0345 49.138 31.0345C48.452 31.0345 47.7942 30.762 47.3092 30.277C46.8242 29.792 46.5517 29.1342 46.5517 28.4483C46.5517 27.7624 46.8242 27.1046 47.3092 26.6196C47.7942 26.1345 48.452 25.8621 49.138 25.8621ZM72.4138 31.0345H77.5862V25.8621C76.2144 25.8621 74.8988 26.407 73.9288 27.377C72.9588 28.347 72.4138 29.6627 72.4138 31.0345ZM82.7586 25.8621H77.5862V31.0345H82.7586V25.8621ZM87.9311 25.8621H82.7586V31.0345H87.9311V25.8621ZM103.448 31.0345V25.8621H98.2759C98.2759 27.2339 98.8208 28.5495 99.7908 29.5195C100.761 30.4895 102.076 31.0345 103.448 31.0345ZM108.621 25.8621H103.448V31.0345H108.621V25.8621ZM43.9655 31.0345C44.6514 31.0345 45.3092 31.307 45.7943 31.792C46.2793 32.277 46.5517 32.9348 46.5517 33.6207C46.5517 34.3066 46.2793 34.9644 45.7943 35.4494C45.3092 35.9344 44.6514 36.2069 43.9655 36.2069C43.2796 36.2069 42.6218 35.9344 42.1368 35.4494C41.6518 34.9644 41.3793 34.3066 41.3793 33.6207C41.3793 32.9348 41.6518 32.277 42.1368 31.792C42.6218 31.307 43.2796 31.0345 43.9655 31.0345ZM54.3104 31.0345C54.9963 31.0345 55.6541 31.307 56.1391 31.792C56.6241 32.277 56.8966 32.9348 56.8966 33.6207C56.8966 34.3066 56.6241 34.9644 56.1391 35.4494C55.6541 35.9344 54.9963 36.2069 54.3104 36.2069C53.6245 36.2069 52.9666 35.9344 52.4816 35.4494C51.9966 34.9644 51.7242 34.3066 51.7242 33.6207C51.7242 32.9348 51.9966 32.277 52.4816 31.792C52.9666 31.307 53.6245 31.0345 54.3104 31.0345ZM64.6552 31.0345C65.3411 31.0345 65.9989 31.307 66.4839 31.792C66.9689 32.277 67.2414 32.9348 67.2414 33.6207C67.2414 34.3066 66.9689 34.9644 66.4839 35.4494C65.9989 35.9344 65.3411 36.2069 64.6552 36.2069C63.9693 36.2069 63.3115 35.9344 62.8265 35.4494C62.3415 34.9644 62.069 34.3066 62.069 33.6207C62.069 32.9348 62.3415 32.277 62.8265 31.792C63.3115 31.307 63.9693 31.0345 64.6552 31.0345ZM72.4138 33.6207V31.0345H77.5862V33.6207C77.5862 34.3066 77.3138 34.9644 76.8287 35.4494C76.3437 35.9344 75.6859 36.2069 75 36.2069C74.3141 36.2069 73.6563 35.9344 73.1713 35.4494C72.6863 34.9644 72.4138 34.3066 72.4138 33.6207ZM82.7586 33.6207V31.0345H87.9311V33.6207C87.9311 34.3066 87.6586 34.9644 87.1736 35.4494C86.6886 35.9344 86.0308 36.2069 85.3448 36.2069C84.6589 36.2069 84.0011 35.9344 83.5161 35.4494C83.0311 34.9644 82.7586 34.3066 82.7586 33.6207ZM98.2759 33.6207V36.2069H93.1035V33.6207C93.1035 32.9348 93.3759 32.277 93.8609 31.792C94.346 31.307 95.0038 31.0345 95.6897 31.0345C96.3756 31.0345 97.0334 31.307 97.5184 31.792C98.0034 32.277 98.2759 32.9348 98.2759 33.6207ZM108.621 31.0345H103.448V36.2069H108.621V31.0345ZM59.4828 36.2069C60.1687 36.2069 60.8265 36.4794 61.3115 36.9644C61.7965 37.4494 62.069 38.1072 62.069 38.7931C62.069 39.479 61.7965 40.1368 61.3115 40.6218C60.8265 41.1068 60.1687 41.3793 59.4828 41.3793C58.7969 41.3793 58.1391 41.1068 57.654 40.6218C57.169 40.1368 56.8966 39.479 56.8966 38.7931C56.8966 38.1072 57.169 37.4494 57.654 36.9644C58.1391 36.4794 58.7969 36.2069 59.4828 36.2069ZM80.1724 36.2069C80.8583 36.2069 81.5162 36.4794 82.0012 36.9644C82.4862 37.4494 82.7586 38.1072 82.7586 38.7931C82.7586 39.479 82.4862 40.1368 82.0012 40.6218C81.5162 41.1068 80.8583 41.3793 80.1724 41.3793C79.4865 41.3793 78.8287 41.1068 78.3437 40.6218C77.8587 40.1368 77.5862 39.479 77.5862 38.7931C77.5862 38.1072 77.8587 37.4494 78.3437 36.9644C78.8287 36.4794 79.4865 36.2069 80.1724 36.2069ZM90.5173 36.2069H93.1035V41.3793H90.5173C89.8314 41.3793 89.1735 41.1068 88.6885 40.6218C88.2035 40.1368 87.9311 39.479 87.9311 38.7931C87.9311 38.1072 88.2035 37.4494 88.6885 36.9644C89.1735 36.4794 89.8314 36.2069 90.5173 36.2069ZM98.2759 36.2069H93.1035V41.3793H98.2759V36.2069ZM103.448 36.2069H98.2759V41.3793H103.448V36.2069ZM108.621 36.2069H103.448V41.3793H108.621V36.2069ZM5.17243 43.9655V46.5517H1.7071e-05V43.9655C1.7071e-05 43.2796 0.272492 42.6218 0.7575 42.1368C1.24251 41.6518 1.90032 41.3793 2.58622 41.3793C3.27213 41.3793 3.92994 41.6518 4.41495 42.1368C4.89996 42.6218 5.17243 43.2796 5.17243 43.9655ZM12.9311 41.3793C13.617 41.3793 14.2748 41.6518 14.7598 42.1368C15.2448 42.6218 15.5173 43.2796 15.5173 43.9655C15.5173 44.6514 15.2448 45.3092 14.7598 45.7942C14.2748 46.2793 13.617 46.5517 12.9311 46.5517C12.2451 46.5517 11.5873 46.2793 11.1023 45.7942C10.6173 45.3092 10.3448 44.6514 10.3448 43.9655C10.3448 43.2796 10.6173 42.6218 11.1023 42.1368C11.5873 41.6518 12.2451 41.3793 12.9311 41.3793ZM25.8621 43.9655V46.5517H20.6897V43.9655C20.6897 43.2796 20.9621 42.6218 21.4472 42.1368C21.9322 41.6518 22.59 41.3793 23.2759 41.3793C23.9618 41.3793 24.6196 41.6518 25.1046 42.1368C25.5896 42.6218 25.8621 43.2796 25.8621 43.9655ZM33.6207 41.3793C34.3066 41.3793 34.9644 41.6518 35.4494 42.1368C35.9344 42.6218 36.2069 43.2796 36.2069 43.9655C36.2069 44.6514 35.9344 45.3092 35.4494 45.7942C34.9644 46.2793 34.3066 46.5517 33.6207 46.5517C32.9348 46.5517 32.277 46.2793 31.792 45.7942C31.307 45.3092 31.0345 44.6514 31.0345 43.9655C31.0345 43.2796 31.307 42.6218 31.792 42.1368C32.277 41.6518 32.9348 41.3793 33.6207 41.3793ZM46.5517 46.5517H51.7242V41.3793C50.3523 41.3793 49.0367 41.9243 48.0667 42.8943C47.0967 43.8643 46.5517 45.1799 46.5517 46.5517ZM54.3104 46.5517H51.7242V41.3793H54.3104C54.9963 41.3793 55.6541 41.6518 56.1391 42.1368C56.6241 42.6218 56.8966 43.2796 56.8966 43.9655C56.8966 44.6514 56.6241 45.3092 56.1391 45.7942C55.6541 46.2793 54.9963 46.5517 54.3104 46.5517ZM87.9311 43.9655V46.5517H82.7586V43.9655C82.7586 43.2796 83.0311 42.6218 83.5161 42.1368C84.0011 41.6518 84.6589 41.3793 85.3448 41.3793C86.0308 41.3793 86.6886 41.6518 87.1736 42.1368C87.6586 42.6218 87.9311 43.2796 87.9311 43.9655ZM108.621 41.3793H103.448V46.5517H108.621V41.3793ZM126.724 41.3793C127.41 41.3793 128.068 41.6518 128.553 42.1368C129.038 42.6218 129.31 43.2796 129.31 43.9655C129.31 44.6514 129.038 45.3092 128.553 45.7942C128.068 46.2793 127.41 46.5517 126.724 46.5517C126.038 46.5517 125.38 46.2793 124.895 45.7942C124.41 45.3092 124.138 44.6514 124.138 43.9655C124.138 43.2796 124.41 42.6218 124.895 42.1368C125.38 41.6518 126.038 41.3793 126.724 41.3793ZM142.241 41.3793C142.927 41.3793 143.585 41.6518 144.07 42.1368C144.555 42.6218 144.828 43.2796 144.828 43.9655C144.828 44.6514 144.555 45.3092 144.07 45.7942C143.585 46.2793 142.927 46.5517 142.241 46.5517C141.555 46.5517 140.898 46.2793 140.413 45.7942C139.928 45.3092 139.655 44.6514 139.655 43.9655C139.655 43.2796 139.928 42.6218 140.413 42.1368C140.898 41.6518 141.555 41.3793 142.241 41.3793ZM5.17243 46.5517H1.7071e-05V51.7241H5.17243V46.5517ZM25.8621 51.7241V46.5517H20.6897C20.6897 47.9235 21.2346 49.2392 22.2046 50.2092C23.1747 51.1792 24.4903 51.7241 25.8621 51.7241ZM28.4483 51.7241H25.8621V46.5517H28.4483C29.1342 46.5517 29.792 46.8242 30.277 47.3092C30.762 47.7942 31.0345 48.452 31.0345 49.1379C31.0345 49.8238 30.762 50.4817 30.277 50.9667C29.792 51.4517 29.1342 51.7241 28.4483 51.7241ZM51.7242 46.5517H46.5517V51.7241H51.7242V46.5517ZM62.069 51.7241H67.2414V46.5517C65.8696 46.5517 64.554 47.0967 63.584 48.0667C62.6139 49.0367 62.069 50.3523 62.069 51.7241ZM69.8276 51.7241H67.2414V46.5517H69.8276C70.5135 46.5517 71.1713 46.8242 71.6563 47.3092C72.1413 47.7942 72.4138 48.452 72.4138 49.1379C72.4138 49.8238 72.1413 50.4817 71.6563 50.9667C71.1713 51.4517 70.5135 51.7241 69.8276 51.7241ZM77.5862 51.7241H82.7586V46.5517C81.3868 46.5517 80.0712 47.0967 79.1012 48.0667C78.1312 49.0367 77.5862 50.3523 77.5862 51.7241ZM87.9311 46.5517H82.7586V51.7241H87.9311V46.5517ZM108.621 51.7241V46.5517H103.448C103.448 47.9235 103.993 49.2392 104.963 50.2092C105.933 51.1792 107.249 51.7241 108.621 51.7241ZM113.793 46.5517H108.621V51.7241H113.793V46.5517ZM116.379 51.7241H113.793V46.5517H116.379C117.065 46.5517 117.723 46.8242 118.208 47.3092C118.693 47.7942 118.966 48.452 118.966 49.1379C118.966 49.8238 118.693 50.4817 118.208 50.9667C117.723 51.4517 117.065 51.7241 116.379 51.7241ZM131.897 46.5517C132.582 46.5517 133.24 46.8242 133.725 47.3092C134.21 47.7942 134.483 48.452 134.483 49.1379C134.483 49.8238 134.21 50.4817 133.725 50.9667C133.24 51.4517 132.582 51.7241 131.897 51.7241C131.211 51.7241 130.553 51.4517 130.068 50.9667C129.583 50.4817 129.31 49.8238 129.31 49.1379C129.31 48.452 129.583 47.7942 130.068 47.3092C130.553 46.8242 131.211 46.5517 131.897 46.5517ZM150 49.1379V51.7241H144.828V49.1379C144.828 48.452 145.1 47.7942 145.585 47.3092C146.07 46.8242 146.728 46.5517 147.414 46.5517C148.1 46.5517 148.758 46.8242 149.243 47.3092C149.728 47.7942 150 48.452 150 49.1379ZM5.17243 56.8966V51.7241H1.7071e-05C1.7071e-05 53.0959 0.544966 54.4116 1.51498 55.3816C2.485 56.3516 3.80062 56.8966 5.17243 56.8966ZM10.3448 51.7241H5.17243V56.8966H10.3448V51.7241ZM15.5173 51.7241H10.3448V56.8966H15.5173V51.7241ZM18.1035 56.8966H15.5173V51.7241H18.1035C18.7894 51.7241 19.4472 51.9966 19.9322 52.4816C20.4172 52.9666 20.6897 53.6244 20.6897 54.3103C20.6897 54.9963 20.4172 55.6541 19.9322 56.1391C19.4472 56.6241 18.7894 56.8966 18.1035 56.8966ZM33.6207 51.7241C34.3066 51.7241 34.9644 51.9966 35.4494 52.4816C35.9344 52.9666 36.2069 53.6244 36.2069 54.3103C36.2069 54.9963 35.9344 55.6541 35.4494 56.1391C34.9644 56.6241 34.3066 56.8966 33.6207 56.8966C32.9348 56.8966 32.277 56.6241 31.792 56.1391C31.307 55.6541 31.0345 54.9963 31.0345 54.3103C31.0345 53.6244 31.307 52.9666 31.792 52.4816C32.277 51.9966 32.9348 51.7241 33.6207 51.7241ZM43.9655 51.7241H46.5517V56.8966H43.9655C43.2796 56.8966 42.6218 56.6241 42.1368 56.1391C41.6518 55.6541 41.3793 54.9963 41.3793 54.3103C41.3793 53.6244 41.6518 52.9666 42.1368 52.4816C42.6218 51.9966 43.2796 51.7241 43.9655 51.7241ZM51.7242 51.7241H46.5517V56.8966H51.7242V51.7241ZM54.3104 56.8966H51.7242V51.7241H54.3104C54.9963 51.7241 55.6541 51.9966 56.1391 52.4816C56.6241 52.9666 56.8966 53.6244 56.8966 54.3103C56.8966 54.9963 56.6241 55.6541 56.1391 56.1391C55.6541 56.6241 54.9963 56.8966 54.3104 56.8966ZM67.2414 51.7241H62.069V56.8966H67.2414V51.7241ZM72.4138 56.8966H77.5862V51.7241C76.2144 51.7241 74.8988 52.2691 73.9288 53.2391C72.9588 54.2091 72.4138 55.5247 72.4138 56.8966ZM82.7586 51.7241H77.5862V56.8966H82.7586V51.7241ZM87.9311 51.7241H82.7586V56.8966H87.9311V51.7241ZM87.9311 51.7241V56.8966H93.1035C93.1035 55.5247 92.5585 54.2091 91.5885 53.2391C90.6185 52.2691 89.3029 51.7241 87.9311 51.7241ZM113.793 51.7241H108.621V56.8966H113.793V51.7241ZM121.552 51.7241C122.238 51.7241 122.895 51.9966 123.38 52.4816C123.865 52.9666 124.138 53.6244 124.138 54.3103C124.138 54.9963 123.865 55.6541 123.38 56.1391C122.895 56.6241 122.238 56.8966 121.552 56.8966C120.866 56.8966 120.208 56.6241 119.723 56.1391C119.238 55.6541 118.966 54.9963 118.966 54.3103C118.966 53.6244 119.238 52.9666 119.723 52.4816C120.208 51.9966 120.866 51.7241 121.552 51.7241ZM137.069 51.7241H139.655V56.8966H137.069C136.383 56.8966 135.725 56.6241 135.24 56.1391C134.755 55.6541 134.483 54.9963 134.483 54.3103C134.483 53.6244 134.755 52.9666 135.24 52.4816C135.725 51.9966 136.383 51.7241 137.069 51.7241ZM144.828 51.7241H139.655V56.8966H144.828V51.7241ZM150 51.7241H144.828V56.8966C146.199 56.8966 147.515 56.3516 148.485 55.3816C149.455 54.4116 150 53.0959 150 51.7241ZM10.3448 56.8966H5.17243V62.069H10.3448V56.8966ZM31.0345 59.4828V62.069H25.8621V59.4828C25.8621 58.7969 26.1346 58.139 26.6196 57.654C27.1046 57.169 27.7624 56.8966 28.4483 56.8966C29.1342 56.8966 29.792 57.169 30.277 57.654C30.762 58.139 31.0345 58.7969 31.0345 59.4828ZM41.3793 59.4828V62.069H36.2069V59.4828C36.2069 58.7969 36.4794 58.139 36.9644 57.654C37.4494 57.169 38.1072 56.8966 38.7931 56.8966C39.479 56.8966 40.1368 57.169 40.6218 57.654C41.1069 58.139 41.3793 58.7969 41.3793 59.4828ZM56.8966 62.069H62.069V56.8966C60.6972 56.8966 59.3816 57.4415 58.4115 58.4115C57.4415 59.3815 56.8966 60.6972 56.8966 62.069ZM67.2414 56.8966H62.069V62.069H67.2414V56.8966ZM72.4138 56.8966H67.2414V62.069H72.4138V56.8966ZM77.5862 56.8966H72.4138V62.069H77.5862V56.8966ZM87.9311 62.069V56.8966H82.7586C82.7586 58.2684 83.3036 59.584 84.2736 60.554C85.2436 61.524 86.5592 62.069 87.9311 62.069ZM93.1035 56.8966H87.9311V62.069H93.1035V56.8966ZM98.2759 56.8966H93.1035V62.069H98.2759V56.8966ZM103.448 56.8966H98.2759V62.069H103.448V56.8966ZM108.621 56.8966H103.448V62.069H108.621V56.8966ZM113.793 56.8966H108.621V62.069H113.793V56.8966ZM113.793 56.8966V62.069H118.966C118.966 60.6972 118.421 59.3815 117.451 58.4115C116.481 57.4415 115.165 56.8966 113.793 56.8966ZM126.724 56.8966C127.41 56.8966 128.068 57.169 128.553 57.654C129.038 58.139 129.31 58.7969 129.31 59.4828C129.31 60.1687 129.038 60.8265 128.553 61.3115C128.068 61.7965 127.41 62.069 126.724 62.069C126.038 62.069 125.38 61.7965 124.895 61.3115C124.41 60.8265 124.138 60.1687 124.138 59.4828C124.138 58.7969 124.41 58.139 124.895 57.654C125.38 57.169 126.038 56.8966 126.724 56.8966ZM144.828 56.8966H139.655V62.069H144.828V56.8966ZM5.17243 64.6552V62.069H10.3448V64.6552C10.3448 65.3411 10.0724 65.9989 9.58736 66.4839C9.10235 66.9689 8.44454 67.2414 7.75864 67.2414C7.07273 67.2414 6.41492 66.9689 5.92991 66.4839C5.44491 65.9989 5.17243 65.3411 5.17243 64.6552ZM31.0345 67.2414V62.069H25.8621C25.8621 63.4408 26.407 64.7564 27.3771 65.7264C28.3471 66.6964 29.6627 67.2414 31.0345 67.2414ZM36.2069 62.069H31.0345V67.2414H36.2069V62.069ZM41.3793 62.069H36.2069V67.2414H41.3793V62.069ZM41.3793 62.069V67.2414H46.5517C46.5517 65.8696 46.0068 64.5539 45.0368 63.5839C44.0668 62.6139 42.7511 62.069 41.3793 62.069ZM54.3104 62.069H56.8966V67.2414H54.3104C53.6245 67.2414 52.9666 66.9689 52.4816 66.4839C51.9966 65.9989 51.7242 65.3411 51.7242 64.6552C51.7242 63.9693 51.9966 63.3115 52.4816 62.8264C52.9666 62.3414 53.6245 62.069 54.3104 62.069ZM62.069 62.069H56.8966V67.2414H62.069V62.069ZM67.2414 62.069H62.069V67.2414H67.2414V62.069ZM77.5862 62.069H72.4138V67.2414H77.5862V62.069ZM77.5862 62.069V67.2414H82.7586C82.7586 65.8696 82.2137 64.5539 81.2437 63.5839C80.2737 62.6139 78.958 62.069 77.5862 62.069ZM103.448 67.2414V62.069H98.2759C98.2759 63.4408 98.8208 64.7564 99.7908 65.7264C100.761 66.6964 102.076 67.2414 103.448 67.2414ZM108.621 62.069H103.448V67.2414H108.621V62.069ZM113.793 62.069H108.621V67.2414H113.793V62.069ZM118.966 62.069H113.793V67.2414H118.966V62.069ZM134.483 64.6552V67.2414H129.31V64.6552C129.31 63.9693 129.583 63.3115 130.068 62.8264C130.553 62.3414 131.211 62.069 131.897 62.069C132.582 62.069 133.24 62.3414 133.725 62.8264C134.21 63.3115 134.483 63.9693 134.483 64.6552ZM144.828 67.2414V62.069H139.655C139.655 63.4408 140.2 64.7564 141.17 65.7264C142.14 66.6964 143.456 67.2414 144.828 67.2414ZM144.828 62.069V67.2414H150C150 65.8696 149.455 64.5539 148.485 63.5839C147.515 62.6139 146.199 62.069 144.828 62.069ZM2.58622 67.2414C3.27213 67.2414 3.92994 67.5139 4.41495 67.9989C4.89996 68.4839 5.17243 69.1417 5.17243 69.8276C5.17243 70.5135 4.89996 71.1713 4.41495 71.6563C3.92994 72.1413 3.27213 72.4138 2.58622 72.4138C1.90032 72.4138 1.24251 72.1413 0.7575 71.6563C0.272492 71.1713 1.7071e-05 70.5135 1.7071e-05 69.8276C1.7071e-05 69.1417 0.272492 68.4839 0.7575 67.9989C1.24251 67.5139 1.90032 67.2414 2.58622 67.2414ZM46.5517 67.2414H41.3793V72.4138H46.5517V67.2414ZM67.2414 67.2414H62.069V72.4138H67.2414V67.2414ZM77.5862 72.4138V67.2414H72.4138C72.4138 68.6132 72.9588 69.9288 73.9288 70.8988C74.8988 71.8688 76.2144 72.4138 77.5862 72.4138ZM82.7586 67.2414H77.5862V72.4138C78.958 72.4138 80.2737 71.8688 81.2437 70.8988C82.2137 69.9288 82.7586 68.6132 82.7586 67.2414ZM108.621 67.2414H103.448V72.4138H108.621V67.2414ZM113.793 67.2414H108.621V72.4138H113.793V67.2414ZM118.966 67.2414H113.793V72.4138H118.966V67.2414ZM134.483 67.2414H129.31V72.4138H134.483V67.2414ZM150 67.2414H144.828V72.4138H150V67.2414ZM10.3448 75V77.5862H5.17243V75C5.17243 74.3141 5.44491 73.6563 5.92991 73.1713C6.41492 72.6863 7.07273 72.4138 7.75864 72.4138C8.44454 72.4138 9.10235 72.6863 9.58736 73.1713C10.0724 73.6563 10.3448 74.3141 10.3448 75ZM18.1035 72.4138C18.7894 72.4138 19.4472 72.6863 19.9322 73.1713C20.4172 73.6563 20.6897 74.3141 20.6897 75C20.6897 75.6859 20.4172 76.3437 19.9322 76.8287C19.4472 77.3137 18.7894 77.5862 18.1035 77.5862C17.4176 77.5862 16.7597 77.3137 16.2747 76.8287C15.7897 76.3437 15.5173 75.6859 15.5173 75C15.5173 74.3141 15.7897 73.6563 16.2747 73.1713C16.7597 72.6863 17.4176 72.4138 18.1035 72.4138ZM28.4483 72.4138H31.0345V77.5862H28.4483C27.7624 77.5862 27.1046 77.3137 26.6196 76.8287C26.1346 76.3437 25.8621 75.6859 25.8621 75C25.8621 74.3141 26.1346 73.6563 26.6196 73.1713C27.1046 72.6863 27.7624 72.4138 28.4483 72.4138ZM36.2069 72.4138H31.0345V77.5862H36.2069V72.4138ZM41.3793 72.4138H36.2069V77.5862H41.3793V72.4138ZM46.5517 72.4138H41.3793V77.5862H46.5517V72.4138ZM51.7242 72.4138H46.5517V77.5862H51.7242V72.4138ZM56.8966 72.4138H51.7242V77.5862H56.8966V72.4138ZM62.069 72.4138H56.8966V77.5862H62.069V72.4138ZM67.2414 72.4138H62.069V77.5862H67.2414V72.4138ZM69.8276 77.5862H67.2414V72.4138H69.8276C70.5135 72.4138 71.1713 72.6863 71.6563 73.1713C72.1413 73.6563 72.4138 74.3141 72.4138 75C72.4138 75.6859 72.1413 76.3437 71.6563 76.8287C71.1713 77.3137 70.5135 77.5862 69.8276 77.5862ZM93.1035 75V77.5862H87.9311V75C87.9311 74.3141 88.2035 73.6563 88.6885 73.1713C89.1735 72.6863 89.8314 72.4138 90.5173 72.4138C91.2032 72.4138 91.861 72.6863 92.346 73.1713C92.831 73.6563 93.1035 74.3141 93.1035 75ZM108.621 72.4138H103.448V77.5862H108.621V72.4138ZM113.793 72.4138H108.621V77.5862H113.793V72.4138ZM118.966 72.4138H113.793V77.5862C115.165 77.5862 116.481 77.0413 117.451 76.0712C118.421 75.1012 118.966 73.7856 118.966 72.4138ZM134.483 72.4138H129.31V77.5862H134.483V72.4138ZM139.655 77.5862H144.828V72.4138C143.456 72.4138 142.14 72.9587 141.17 73.9288C140.2 74.8988 139.655 76.2144 139.655 77.5862ZM150 72.4138H144.828V77.5862C146.199 77.5862 147.515 77.0413 148.485 76.0712C149.455 75.1012 150 73.7856 150 72.4138ZM1.7071e-05 82.7586H5.17243V77.5862C3.80062 77.5862 2.485 78.1312 1.51498 79.1012C0.544966 80.0712 1.7071e-05 81.3868 1.7071e-05 82.7586ZM10.3448 77.5862H5.17243V82.7586H10.3448V77.5862ZM41.3793 77.5862H36.2069V82.7586H41.3793V77.5862ZM46.5517 77.5862H41.3793V82.7586H46.5517V77.5862ZM51.7242 77.5862H46.5517V82.7586C47.9236 82.7586 49.2392 82.2137 50.2092 81.2437C51.1792 80.2736 51.7242 78.958 51.7242 77.5862ZM62.069 82.7586V77.5862H56.8966C56.8966 78.958 57.4415 80.2736 58.4115 81.2437C59.3816 82.2137 60.6972 82.7586 62.069 82.7586ZM67.2414 77.5862H62.069V82.7586C63.4408 82.7586 64.7564 82.2137 65.7264 81.2437C66.6964 80.2736 67.2414 78.958 67.2414 77.5862ZM80.1724 77.5862C80.8583 77.5862 81.5162 77.8587 82.0012 78.3437C82.4862 78.8287 82.7586 79.4865 82.7586 80.1724C82.7586 80.8583 82.4862 81.5161 82.0012 82.0011C81.5162 82.4862 80.8583 82.7586 80.1724 82.7586C79.4865 82.7586 78.8287 82.4862 78.3437 82.0011C77.8587 81.5161 77.5862 80.8583 77.5862 80.1724C77.5862 79.4865 77.8587 78.8287 78.3437 78.3437C78.8287 77.8587 79.4865 77.5862 80.1724 77.5862ZM93.1035 77.5862H87.9311V82.7586H93.1035V77.5862ZM108.621 77.5862H103.448V82.7586H108.621V77.5862ZM126.724 77.5862H129.31V82.7586H126.724C126.038 82.7586 125.38 82.4862 124.895 82.0011C124.41 81.5161 124.138 80.8583 124.138 80.1724C124.138 79.4865 124.41 78.8287 124.895 78.3437C125.38 77.8587 126.038 77.5862 126.724 77.5862ZM134.483 77.5862H129.31V82.7586H134.483V77.5862ZM144.828 77.5862H139.655V82.7586H144.828V77.5862ZM5.17243 87.931V82.7586H1.7071e-05C1.7071e-05 84.1304 0.544966 85.4461 1.51498 86.4161C2.485 87.3861 3.80062 87.931 5.17243 87.931ZM10.3448 82.7586H5.17243V87.931C6.54424 87.931 7.85986 87.3861 8.82988 86.4161C9.7999 85.4461 10.3448 84.1304 10.3448 82.7586ZM28.4483 82.7586H31.0345V87.931H28.4483C27.7624 87.931 27.1046 87.6586 26.6196 87.1736C26.1346 86.6885 25.8621 86.0307 25.8621 85.3448C25.8621 84.6589 26.1346 84.0011 26.6196 83.5161C27.1046 83.0311 27.7624 82.7586 28.4483 82.7586ZM36.2069 82.7586H31.0345V87.931H36.2069V82.7586ZM41.3793 82.7586H36.2069V87.931H41.3793V82.7586ZM46.5517 82.7586H41.3793V87.931C42.7511 87.931 44.0668 87.3861 45.0368 86.4161C46.0068 85.4461 46.5517 84.1304 46.5517 82.7586ZM82.7586 87.931H87.9311V82.7586C86.5592 82.7586 85.2436 83.3036 84.2736 84.2736C83.3036 85.2436 82.7586 86.5592 82.7586 87.931ZM93.1035 82.7586H87.9311V87.931H93.1035V82.7586ZM98.2759 82.7586H93.1035V87.931H98.2759V82.7586ZM103.448 82.7586H98.2759V87.931H103.448V82.7586ZM108.621 82.7586H103.448V87.931H108.621V82.7586ZM113.793 82.7586H108.621V87.931H113.793V82.7586ZM113.793 82.7586V87.931H118.966C118.966 86.5592 118.421 85.2436 117.451 84.2736C116.481 83.3036 115.165 82.7586 113.793 82.7586ZM134.483 82.7586H129.31V87.931H134.483V82.7586ZM144.828 87.931V82.7586H139.655C139.655 84.1304 140.2 85.4461 141.17 86.4161C142.14 87.3861 143.456 87.931 144.828 87.931ZM144.828 82.7586V87.931H150C150 86.5592 149.455 85.2436 148.485 84.2736C147.515 83.3036 146.199 82.7586 144.828 82.7586ZM15.5173 93.1035H20.6897V87.931C19.3179 87.931 18.0022 88.476 17.0322 89.446C16.0622 90.416 15.5173 91.7316 15.5173 93.1035ZM23.2759 93.1035H20.6897V87.931H23.2759C23.9618 87.931 24.6196 88.2035 25.1046 88.6885C25.5896 89.1735 25.8621 89.8313 25.8621 90.5172C25.8621 91.2031 25.5896 91.861 25.1046 92.346C24.6196 92.831 23.9618 93.1035 23.2759 93.1035ZM36.2069 90.5172V87.931H41.3793V90.5172C41.3793 91.2031 41.1069 91.861 40.6218 92.346C40.1368 92.831 39.479 93.1035 38.7931 93.1035C38.1072 93.1035 37.4494 92.831 36.9644 92.346C36.4794 91.861 36.2069 91.2031 36.2069 90.5172ZM54.3104 87.931C54.9963 87.931 55.6541 88.2035 56.1391 88.6885C56.6241 89.1735 56.8966 89.8313 56.8966 90.5172C56.8966 91.2031 56.6241 91.861 56.1391 92.346C55.6541 92.831 54.9963 93.1035 54.3104 93.1035C53.6245 93.1035 52.9666 92.831 52.4816 92.346C51.9966 91.861 51.7242 91.2031 51.7242 90.5172C51.7242 89.8313 51.9966 89.1735 52.4816 88.6885C52.9666 88.2035 53.6245 87.931 54.3104 87.931ZM62.069 93.1035H67.2414V87.931C65.8696 87.931 64.554 88.476 63.584 89.446C62.6139 90.416 62.069 91.7316 62.069 93.1035ZM69.8276 93.1035H67.2414V87.931H69.8276C70.5135 87.931 71.1713 88.2035 71.6563 88.6885C72.1413 89.1735 72.4138 89.8313 72.4138 90.5172C72.4138 91.2031 72.1413 91.861 71.6563 92.346C71.1713 92.831 70.5135 93.1035 69.8276 93.1035ZM77.5862 93.1035H82.7586V87.931C81.3868 87.931 80.0712 88.476 79.1012 89.446C78.1312 90.416 77.5862 91.7316 77.5862 93.1035ZM87.9311 87.931H82.7586V93.1035H87.9311V87.931ZM113.793 87.931H108.621V93.1035H113.793V87.931ZM118.966 87.931H113.793V93.1035H118.966V87.931ZM118.966 87.931V93.1035H124.138C124.138 91.7316 123.593 90.416 122.623 89.446C121.653 88.476 120.337 87.931 118.966 87.931ZM134.483 93.1035V87.931H129.31C129.31 89.3028 129.855 90.6185 130.825 91.5885C131.795 92.5585 133.111 93.1035 134.483 93.1035ZM137.069 93.1035H134.483V87.931H137.069C137.755 87.931 138.413 88.2035 138.898 88.6885C139.383 89.1735 139.655 89.8313 139.655 90.5172C139.655 91.2031 139.383 91.861 138.898 92.346C138.413 92.831 137.755 93.1035 137.069 93.1035ZM150 87.931H144.828V93.1035H150V87.931ZM2.58622 93.1035C3.27213 93.1035 3.92994 93.3759 4.41495 93.8609C4.89996 94.3459 5.17243 95.0038 5.17243 95.6897C5.17243 96.3756 4.89996 97.0334 4.41495 97.5184C3.92994 98.0034 3.27213 98.2759 2.58622 98.2759C1.90032 98.2759 1.24251 98.0034 0.7575 97.5184C0.272492 97.0334 1.7071e-05 96.3756 1.7071e-05 95.6897C1.7071e-05 95.0038 0.272492 94.3459 0.7575 93.8609C1.24251 93.3759 1.90032 93.1035 2.58622 93.1035ZM12.9311 93.1035H15.5173V98.2759H12.9311C12.2451 98.2759 11.5873 98.0034 11.1023 97.5184C10.6173 97.0334 10.3448 96.3756 10.3448 95.6897C10.3448 95.0038 10.6173 94.3459 11.1023 93.8609C11.5873 93.3759 12.2451 93.1035 12.9311 93.1035ZM20.6897 93.1035H15.5173V98.2759C16.8891 98.2759 18.2047 97.7309 19.1747 96.7609C20.1447 95.7909 20.6897 94.4753 20.6897 93.1035ZM25.8621 98.2759H31.0345V93.1035C29.6627 93.1035 28.3471 93.6484 27.3771 94.6184C26.407 95.5884 25.8621 96.9041 25.8621 98.2759ZM33.6207 98.2759H31.0345V93.1035H33.6207C34.3066 93.1035 34.9644 93.3759 35.4494 93.8609C35.9344 94.3459 36.2069 95.0038 36.2069 95.6897C36.2069 96.3756 35.9344 97.0334 35.4494 97.5184C34.9644 98.0034 34.3066 98.2759 33.6207 98.2759ZM43.9655 93.1035H46.5517V98.2759H43.9655C43.2796 98.2759 42.6218 98.0034 42.1368 97.5184C41.6518 97.0334 41.3793 96.3756 41.3793 95.6897C41.3793 95.0038 41.6518 94.3459 42.1368 93.8609C42.6218 93.3759 43.2796 93.1035 43.9655 93.1035ZM46.5517 93.1035V98.2759H51.7242C51.7242 96.9041 51.1792 95.5884 50.2092 94.6184C49.2392 93.6484 47.9236 93.1035 46.5517 93.1035ZM67.2414 93.1035H62.069V98.2759H67.2414V93.1035ZM72.4138 98.2759H77.5862V93.1035C76.2144 93.1035 74.8988 93.6484 73.9288 94.6184C72.9588 95.5884 72.4138 96.9041 72.4138 98.2759ZM82.7586 93.1035H77.5862V98.2759H82.7586V93.1035ZM87.9311 93.1035H82.7586V98.2759H87.9311V93.1035ZM87.9311 93.1035V98.2759H93.1035C93.1035 96.9041 92.5585 95.5884 91.5885 94.6184C90.6185 93.6484 89.3029 93.1035 87.9311 93.1035ZM113.793 93.1035H108.621V98.2759H113.793V93.1035ZM118.966 95.6897V93.1035H124.138V95.6897C124.138 96.3756 123.865 97.0334 123.38 97.5184C122.895 98.0034 122.238 98.2759 121.552 98.2759C120.866 98.2759 120.208 98.0034 119.723 97.5184C119.238 97.0334 118.966 96.3756 118.966 95.6897ZM139.655 98.2759H144.828V93.1035C143.456 93.1035 142.14 93.6484 141.17 94.6184C140.2 95.5884 139.655 96.9041 139.655 98.2759ZM150 93.1035H144.828V98.2759C146.199 98.2759 147.515 97.7309 148.485 96.7609C149.455 95.7909 150 94.4753 150 93.1035ZM7.75864 98.2759C8.44454 98.2759 9.10235 98.5483 9.58736 99.0333C10.0724 99.5184 10.3448 100.176 10.3448 100.862C10.3448 101.548 10.0724 102.206 9.58736 102.691C9.10235 103.176 8.44454 103.448 7.75864 103.448C7.07273 103.448 6.41492 103.176 5.92991 102.691C5.44491 102.206 5.17243 101.548 5.17243 100.862C5.17243 100.176 5.44491 99.5184 5.92991 99.0333C6.41492 98.5483 7.07273 98.2759 7.75864 98.2759ZM20.6897 103.448H25.8621V98.2759C24.4903 98.2759 23.1747 98.8208 22.2046 99.7908C21.2346 100.761 20.6897 102.076 20.6897 103.448ZM31.0345 98.2759H25.8621V103.448H31.0345V98.2759ZM41.3793 100.862V103.448H36.2069V100.862C36.2069 100.176 36.4794 99.5184 36.9644 99.0333C37.4494 98.5483 38.1072 98.2759 38.7931 98.2759C39.479 98.2759 40.1368 98.5483 40.6218 99.0333C41.1069 99.5184 41.3793 100.176 41.3793 100.862ZM46.5517 100.862V98.2759H51.7242V100.862C51.7242 101.548 51.4517 102.206 50.9667 102.691C50.4817 103.176 49.8239 103.448 49.138 103.448C48.452 103.448 47.7942 103.176 47.3092 102.691C46.8242 102.206 46.5517 101.548 46.5517 100.862ZM67.2414 98.2759H62.069V103.448H67.2414V98.2759ZM72.4138 98.2759H67.2414V103.448H72.4138V98.2759ZM77.5862 98.2759H72.4138V103.448H77.5862V98.2759ZM87.9311 98.2759H82.7586V103.448H87.9311V98.2759ZM93.1035 98.2759H87.9311V103.448H93.1035V98.2759ZM95.6897 103.448H93.1035V98.2759H95.6897C96.3756 98.2759 97.0334 98.5483 97.5184 99.0333C98.0034 99.5184 98.2759 100.176 98.2759 100.862C98.2759 101.548 98.0034 102.206 97.5184 102.691C97.0334 103.176 96.3756 103.448 95.6897 103.448ZM113.793 98.2759H108.621V103.448H113.793V98.2759ZM124.138 103.448H129.31V98.2759C127.939 98.2759 126.623 98.8208 125.653 99.7908C124.683 100.761 124.138 102.076 124.138 103.448ZM131.897 103.448H129.31V98.2759H131.897C132.582 98.2759 133.24 98.5483 133.725 99.0333C134.21 99.5184 134.483 100.176 134.483 100.862C134.483 101.548 134.21 102.206 133.725 102.691C133.24 103.176 132.582 103.448 131.897 103.448ZM139.655 100.862V98.2759H144.828V100.862C144.828 101.548 144.555 102.206 144.07 102.691C143.585 103.176 142.927 103.448 142.241 103.448C141.555 103.448 140.898 103.176 140.413 102.691C139.928 102.206 139.655 101.548 139.655 100.862ZM2.58622 103.448C3.27213 103.448 3.92994 103.721 4.41495 104.206C4.89996 104.691 5.17243 105.349 5.17243 106.034C5.17243 106.72 4.89996 107.378 4.41495 107.863C3.92994 108.348 3.27213 108.621 2.58622 108.621C1.90032 108.621 1.24251 108.348 0.7575 107.863C0.272492 107.378 1.7071e-05 106.72 1.7071e-05 106.034C1.7071e-05 105.349 0.272492 104.691 0.7575 104.206C1.24251 103.721 1.90032 103.448 2.58622 103.448ZM18.1035 103.448H20.6897V108.621H18.1035C17.4176 108.621 16.7597 108.348 16.2747 107.863C15.7897 107.378 15.5173 106.72 15.5173 106.034C15.5173 105.349 15.7897 104.691 16.2747 104.206C16.7597 103.721 17.4176 103.448 18.1035 103.448ZM25.8621 103.448H20.6897V108.621H25.8621V103.448ZM31.0345 103.448H25.8621V108.621H31.0345V103.448ZM36.2069 103.448H31.0345V108.621H36.2069V103.448ZM41.3793 103.448H36.2069V108.621C37.5787 108.621 38.8943 108.076 39.8644 107.106C40.8344 106.136 41.3793 104.82 41.3793 103.448ZM56.8966 106.034V108.621H51.7242V106.034C51.7242 105.349 51.9966 104.691 52.4816 104.206C52.9666 103.721 53.6245 103.448 54.3104 103.448C54.9963 103.448 55.6541 103.721 56.1391 104.206C56.6241 104.691 56.8966 105.349 56.8966 106.034ZM62.069 106.034V103.448H67.2414V106.034C67.2414 106.72 66.9689 107.378 66.4839 107.863C65.9989 108.348 65.3411 108.621 64.6552 108.621C63.9693 108.621 63.3115 108.348 62.8265 107.863C62.3415 107.378 62.069 106.72 62.069 106.034ZM77.5862 103.448H72.4138V108.621H77.5862V103.448ZM82.7586 103.448H77.5862V108.621H82.7586V103.448ZM87.9311 103.448H82.7586V108.621H87.9311V103.448ZM93.1035 103.448H87.9311V108.621H93.1035V103.448ZM98.2759 108.621H103.448V103.448C102.076 103.448 100.761 103.993 99.7908 104.963C98.8208 105.933 98.2759 107.249 98.2759 108.621ZM108.621 103.448H103.448V108.621H108.621V103.448ZM113.793 103.448H108.621V108.621H113.793V103.448ZM118.966 103.448H113.793V108.621H118.966V103.448ZM124.138 103.448H118.966V108.621H124.138V103.448ZM129.31 103.448H124.138V108.621H129.31V103.448ZM43.9655 108.621H46.5517V113.793H43.9655C43.2796 113.793 42.6218 113.521 42.1368 113.036C41.6518 112.551 41.3793 111.893 41.3793 111.207C41.3793 110.521 41.6518 109.863 42.1368 109.378C42.6218 108.893 43.2796 108.621 43.9655 108.621ZM51.7242 108.621H46.5517V113.793H51.7242V108.621ZM56.8966 108.621H51.7242V113.793H56.8966V108.621ZM77.5862 113.793V108.621H72.4138C72.4138 109.993 72.9588 111.308 73.9288 112.278C74.8988 113.248 76.2144 113.793 77.5862 113.793ZM82.7586 108.621H77.5862V113.793C78.958 113.793 80.2737 113.248 81.2437 112.278C82.2137 111.308 82.7586 109.993 82.7586 108.621ZM93.1035 108.621H87.9311V113.793H93.1035V108.621ZM103.448 108.621H98.2759V113.793H103.448V108.621ZM108.621 108.621H103.448V113.793H108.621V108.621ZM129.31 108.621H124.138V113.793H129.31V108.621ZM137.069 108.621H139.655V113.793H137.069C136.383 113.793 135.725 113.521 135.24 113.036C134.755 112.551 134.483 111.893 134.483 111.207C134.483 110.521 134.755 109.863 135.24 109.378C135.725 108.893 136.383 108.621 137.069 108.621ZM144.828 108.621H139.655V113.793H144.828V108.621ZM144.828 108.621V113.793H150C150 112.421 149.455 111.106 148.485 110.136C147.515 109.166 146.199 108.621 144.828 108.621ZM56.8966 113.793H51.7242V118.966H56.8966V113.793ZM62.069 113.793H56.8966V118.966H62.069V113.793ZM67.2414 113.793H62.069V118.966H67.2414V113.793ZM69.8276 118.966H67.2414V113.793H69.8276C70.5135 113.793 71.1713 114.066 71.6563 114.551C72.1413 115.036 72.4138 115.693 72.4138 116.379C72.4138 117.065 72.1413 117.723 71.6563 118.208C71.1713 118.693 70.5135 118.966 69.8276 118.966ZM85.3448 113.793H87.9311V118.966H85.3448C84.6589 118.966 84.0011 118.693 83.5161 118.208C83.0311 117.723 82.7586 117.065 82.7586 116.379C82.7586 115.693 83.0311 115.036 83.5161 114.551C84.0011 114.066 84.6589 113.793 85.3448 113.793ZM93.1035 113.793H87.9311V118.966H93.1035V113.793ZM103.448 118.966V113.793H98.2759C98.2759 115.165 98.8208 116.481 99.7908 117.451C100.761 118.421 102.076 118.966 103.448 118.966ZM108.621 113.793H103.448V118.966H108.621V113.793ZM116.379 113.793C117.065 113.793 117.723 114.066 118.208 114.551C118.693 115.036 118.966 115.693 118.966 116.379C118.966 117.065 118.693 117.723 118.208 118.208C117.723 118.693 117.065 118.966 116.379 118.966C115.693 118.966 115.036 118.693 114.551 118.208C114.066 117.723 113.793 117.065 113.793 116.379C113.793 115.693 114.066 115.036 114.551 114.551C115.036 114.066 115.693 113.793 116.379 113.793ZM129.31 113.793H124.138V118.966H129.31V113.793ZM129.31 113.793V118.966H134.483C134.483 117.594 133.938 116.278 132.968 115.308C131.998 114.338 130.682 113.793 129.31 113.793ZM144.828 118.966V113.793H139.655C139.655 115.165 140.2 116.481 141.17 117.451C142.14 118.421 143.456 118.966 144.828 118.966ZM150 113.793H144.828V118.966H150V113.793ZM46.5517 124.138H51.7242V118.966C50.3523 118.966 49.0367 119.51 48.0667 120.48C47.0967 121.451 46.5517 122.766 46.5517 124.138ZM56.8966 118.966H51.7242V124.138H56.8966V118.966ZM67.2414 118.966H62.069V124.138H67.2414V118.966ZM93.1035 118.966H87.9311V124.138H93.1035V118.966ZM95.6897 124.138H93.1035V118.966H95.6897C96.3756 118.966 97.0334 119.238 97.5184 119.723C98.0034 120.208 98.2759 120.866 98.2759 121.552C98.2759 122.238 98.0034 122.895 97.5184 123.38C97.0334 123.865 96.3756 124.138 95.6897 124.138ZM108.621 118.966H103.448V124.138H108.621V118.966ZM129.31 118.966H124.138V124.138H129.31V118.966ZM134.483 118.966H129.31V124.138C130.682 124.138 131.998 123.593 132.968 122.623C133.938 121.653 134.483 120.337 134.483 118.966ZM144.828 121.552V118.966H150V121.552C150 122.238 149.728 122.895 149.243 123.38C148.758 123.865 148.1 124.138 147.414 124.138C146.728 124.138 146.07 123.865 145.585 123.38C145.1 122.895 144.828 122.238 144.828 121.552ZM43.9655 124.138H46.5517V129.31H43.9655C43.2796 129.31 42.6218 129.038 42.1368 128.553C41.6518 128.068 41.3793 127.41 41.3793 126.724C41.3793 126.038 41.6518 125.38 42.1368 124.895C42.6218 124.41 43.2796 124.138 43.9655 124.138ZM51.7242 124.138H46.5517V129.31H51.7242V124.138ZM56.8966 124.138H51.7242V129.31H56.8966V124.138ZM62.069 124.138H56.8966V129.31H62.069V124.138ZM67.2414 124.138H62.069V129.31C63.4408 129.31 64.7564 128.765 65.7264 127.795C66.6964 126.825 67.2414 125.51 67.2414 124.138ZM93.1035 124.138H87.9311V129.31H93.1035V124.138ZM108.621 124.138H103.448V129.31H108.621V124.138ZM113.793 124.138H108.621V129.31H113.793V124.138ZM118.966 124.138H113.793V129.31H118.966V124.138ZM124.138 124.138H118.966V129.31H124.138V124.138ZM129.31 124.138H124.138V129.31H129.31V124.138ZM142.241 124.138C142.927 124.138 143.585 124.41 144.07 124.895C144.555 125.38 144.828 126.038 144.828 126.724C144.828 127.41 144.555 128.068 144.07 128.553C143.585 129.038 142.927 129.31 142.241 129.31C141.555 129.31 140.898 129.038 140.413 128.553C139.928 128.068 139.655 127.41 139.655 126.724C139.655 126.038 139.928 125.38 140.413 124.895C140.898 124.41 141.555 124.138 142.241 124.138ZM51.7242 129.31H46.5517V134.483H51.7242V129.31ZM56.8966 131.897V129.31H62.069V131.897C62.069 132.582 61.7965 133.24 61.3115 133.725C60.8265 134.21 60.1687 134.483 59.4828 134.483C58.7969 134.483 58.1391 134.21 57.654 133.725C57.169 133.24 56.8966 132.582 56.8966 131.897ZM69.8276 129.31C70.5135 129.31 71.1713 129.583 71.6563 130.068C72.1413 130.553 72.4138 131.211 72.4138 131.897C72.4138 132.582 72.1413 133.24 71.6563 133.725C71.1713 134.21 70.5135 134.483 69.8276 134.483C69.1417 134.483 68.4839 134.21 67.9989 133.725C67.5139 133.24 67.2414 132.582 67.2414 131.897C67.2414 131.211 67.5139 130.553 67.9989 130.068C68.4839 129.583 69.1417 129.31 69.8276 129.31ZM85.3448 129.31H87.9311V134.483H85.3448C84.6589 134.483 84.0011 134.21 83.5161 133.725C83.0311 133.24 82.7586 132.582 82.7586 131.897C82.7586 131.211 83.0311 130.553 83.5161 130.068C84.0011 129.583 84.6589 129.31 85.3448 129.31ZM93.1035 129.31H87.9311V134.483H93.1035V129.31ZM98.2759 129.31H93.1035V134.483H98.2759V129.31ZM103.448 129.31H98.2759V134.483H103.448V129.31ZM108.621 129.31H103.448V134.483C104.82 134.483 106.136 133.938 107.106 132.968C108.076 131.998 108.621 130.682 108.621 129.31ZM124.138 129.31H118.966V134.483H124.138V129.31ZM129.31 129.31H124.138V134.483H129.31V129.31ZM137.069 129.31C137.755 129.31 138.413 129.583 138.898 130.068C139.383 130.553 139.655 131.211 139.655 131.897C139.655 132.582 139.383 133.24 138.898 133.725C138.413 134.21 137.755 134.483 137.069 134.483C136.383 134.483 135.725 134.21 135.24 133.725C134.755 133.24 134.483 132.582 134.483 131.897C134.483 131.211 134.755 130.553 135.24 130.068C135.725 129.583 136.383 129.31 137.069 129.31ZM43.9655 134.483H46.5517V139.655H43.9655C43.2796 139.655 42.6218 139.383 42.1368 138.898C41.6518 138.413 41.3793 137.755 41.3793 137.069C41.3793 136.383 41.6518 135.725 42.1368 135.24C42.6218 134.755 43.2796 134.483 43.9655 134.483ZM51.7242 134.483H46.5517V139.655H51.7242V134.483ZM103.448 134.483H98.2759V139.655H103.448V134.483ZM124.138 139.655V134.483H118.966C118.966 135.855 119.51 137.17 120.481 138.14C121.451 139.11 122.766 139.655 124.138 139.655ZM129.31 134.483H124.138V139.655H129.31V134.483ZM131.897 139.655H129.31V134.483H131.897C132.582 134.483 133.24 134.755 133.725 135.24C134.21 135.725 134.483 136.383 134.483 137.069C134.483 137.755 134.21 138.413 133.725 138.898C133.24 139.383 132.582 139.655 131.897 139.655ZM147.414 134.483C148.1 134.483 148.758 134.755 149.243 135.24C149.728 135.725 150 136.383 150 137.069C150 137.755 149.728 138.413 149.243 138.898C148.758 139.383 148.1 139.655 147.414 139.655C146.728 139.655 146.07 139.383 145.585 138.898C145.1 138.413 144.828 137.755 144.828 137.069C144.828 136.383 145.1 135.725 145.585 135.24C146.07 134.755 146.728 134.483 147.414 134.483ZM51.7242 139.655H46.5517V144.828H51.7242V139.655ZM69.8276 139.655H72.4138V144.828H69.8276C69.1417 144.828 68.4839 144.555 67.9989 144.07C67.5139 143.585 67.2414 142.927 67.2414 142.241C67.2414 141.555 67.5139 140.898 67.9989 140.413C68.4839 139.928 69.1417 139.655 69.8276 139.655ZM77.5862 139.655H72.4138V144.828H77.5862V139.655ZM80.1724 144.828H77.5862V139.655H80.1724C80.8583 139.655 81.5162 139.928 82.0012 140.413C82.4862 140.898 82.7586 141.555 82.7586 142.241C82.7586 142.927 82.4862 143.585 82.0012 144.07C81.5162 144.555 80.8583 144.828 80.1724 144.828ZM93.1035 142.241V144.828H87.9311V142.241C87.9311 141.555 88.2035 140.898 88.6885 140.413C89.1735 139.928 89.8314 139.655 90.5173 139.655C91.2032 139.655 91.861 139.928 92.346 140.413C92.831 140.898 93.1035 141.555 93.1035 142.241ZM103.448 139.655H98.2759V144.828H103.448V139.655ZM108.621 139.655H103.448V144.828H108.621V139.655ZM113.793 139.655H108.621V144.828H113.793V139.655ZM113.793 139.655V144.828H118.966C118.966 143.456 118.421 142.14 117.451 141.17C116.481 140.2 115.165 139.655 113.793 139.655ZM129.31 139.655H124.138V144.828H129.31V139.655ZM144.828 142.241V144.828H139.655V142.241C139.655 141.555 139.928 140.898 140.413 140.413C140.898 139.928 141.555 139.655 142.241 139.655C142.927 139.655 143.585 139.928 144.07 140.413C144.555 140.898 144.828 141.555 144.828 142.241ZM43.9655 144.828H46.5517V150H43.9655C43.2796 150 42.6218 149.728 42.1368 149.243C41.6518 148.758 41.3793 148.1 41.3793 147.414C41.3793 146.728 41.6518 146.07 42.1368 145.585C42.6218 145.1 43.2796 144.828 43.9655 144.828ZM51.7242 144.828H46.5517V150H51.7242V144.828ZM56.8966 144.828H51.7242V150H56.8966V144.828ZM59.4828 150H56.8966V144.828H59.4828C60.1687 144.828 60.8265 145.1 61.3115 145.585C61.7965 146.07 62.069 146.728 62.069 147.414C62.069 148.1 61.7965 148.758 61.3115 149.243C60.8265 149.728 60.1687 150 59.4828 150ZM87.9311 147.414V144.828H93.1035V147.414C93.1035 148.1 92.831 148.758 92.346 149.243C91.861 149.728 91.2032 150 90.5173 150C89.8314 150 89.1735 149.728 88.6885 149.243C88.2035 148.758 87.9311 148.1 87.9311 147.414ZM103.448 150V144.828H98.2759C98.2759 146.199 98.8208 147.515 99.7908 148.485C100.761 149.455 102.076 150 103.448 150ZM108.621 144.828H103.448V150H108.621V144.828ZM113.793 144.828H108.621V150H113.793V144.828ZM118.966 144.828H113.793V150H118.966V144.828ZM124.138 144.828H118.966V150H124.138V144.828ZM129.31 144.828H124.138V150C125.51 150 126.825 149.455 127.795 148.485C128.765 147.515 129.31 146.199 129.31 144.828ZM144.828 150V144.828H139.655C139.655 146.199 140.2 147.515 141.17 148.485C142.14 149.455 143.456 150 144.828 150ZM147.414 150H144.828V144.828H147.414C148.1 144.828 148.758 145.1 149.243 145.585C149.728 146.07 150 146.728 150 147.414C150 148.1 149.728 148.758 149.243 149.243C148.758 149.728 148.1 150 147.414 150ZM23.8448 0.00295567H12.3621C6.76406 0.00295567 2.02243 3.70049 0.506175 8.75468C0.168575 9.87957 -0.00196448 11.048 1.7071e-05 12.2224V23.9793C1.7071e-05 30.7204 5.54706 36.2032 12.3621 36.2032L18.1035 36.2039L23.8448 36.2025C30.6599 36.2025 36.2069 30.7204 36.2069 23.9793V12.2232C36.2069 5.4835 30.6599 0.00221675 23.8448 0.00221675V0.00295567ZM30.7759 23.9793C30.7759 27.7249 27.6673 30.7722 23.8441 30.7722L18.1035 30.7729L12.3628 30.7714C8.53967 30.7714 5.43105 27.7241 5.43105 23.9793V12.2232C5.43105 11.0527 5.73401 9.95172 6.26824 8.98892C6.7858 8.06132 7.51084 7.26597 8.38672 6.66503C9.55621 5.86085 10.9428 5.43173 12.3621 5.43473H23.8448C27.6665 5.43473 30.7751 8.4798 30.7751 12.2232V23.98L30.7759 23.9793ZM137.639 0.00295567H126.154C120.558 0.00295567 115.816 3.70049 114.3 8.75468C113.962 9.87954 113.791 11.0479 113.793 12.2224V23.9793C113.793 30.7204 119.34 36.2032 126.154 36.2032L131.897 36.2039L137.639 36.2025C144.453 36.2025 150 30.7204 150 23.9793V12.2232C150 5.48424 144.453 0.00295567 137.639 0.00295567ZM144.569 23.9793C144.569 27.7249 141.46 30.7722 137.637 30.7722L131.897 30.7729L126.156 30.7714C122.333 30.7714 119.224 27.7241 119.224 23.9793V12.2232C119.224 11.0527 119.528 9.95172 120.061 8.98892C120.579 8.06124 121.304 7.26567 122.179 6.66429C123.349 5.86007 124.735 5.43095 126.154 5.43399H137.639C141.46 5.43399 144.569 8.47906 144.569 12.2224V23.9793ZM23.8448 113.796H12.3621C6.7648 113.796 2.02317 117.494 0.506914 122.548C0.169367 123.673 -0.0014154 124.841 1.7071e-05 126.016V137.772C1.7071e-05 144.514 5.54706 149.996 12.3621 149.996L18.1035 149.997L23.8448 149.996C30.6599 149.996 36.2069 144.514 36.2069 137.772V126.016C36.2069 119.278 30.6599 113.796 23.8448 113.796ZM30.7759 137.772C30.7759 141.518 27.6673 144.565 23.8441 144.565L18.1035 144.566L12.3628 144.565C8.53967 144.565 5.43105 141.517 5.43105 137.772V126.016C5.43016 124.884 5.71834 123.771 6.26824 122.782C6.78547 121.854 7.51027 121.059 8.38598 120.457C9.55547 119.653 10.9421 119.224 12.3613 119.227H23.8448C27.6665 119.227 30.7751 122.272 30.7751 126.016V137.772H30.7759Z" fill="black"/>
<path d="M14.5893 25.862C12.247 25.862 10.3428 23.9947 10.3428 21.7019V14.5026C10.3428 13.7859 10.529 13.112 10.8548 12.5223C11.1711 11.9535 11.6154 11.4661 12.1524 11.0984C12.8685 10.6061 13.7174 10.3433 14.5864 10.3447H21.6194C23.9588 10.3447 25.8637 12.2098 25.8637 14.5026V21.7019C25.8637 23.9947 23.9588 25.862 21.6194 25.862H14.5893ZM128.382 25.862C126.041 25.862 124.136 23.9947 124.136 21.7019V14.5026C124.136 13.7859 124.322 13.112 124.648 12.5223C124.964 11.9535 125.408 11.466 125.945 11.0984C126.662 10.6059 127.511 10.3431 128.38 10.3447H135.413C137.753 10.3447 139.658 12.2098 139.658 14.5026V21.7019C139.658 23.9947 137.753 25.862 135.413 25.862H128.382ZM14.5893 139.655C12.247 139.655 10.3428 137.788 10.3428 135.495V128.296C10.3428 127.579 10.529 126.905 10.8548 126.315C11.1714 125.747 11.6156 125.259 12.1524 124.892C12.8685 124.399 13.7174 124.136 14.5864 124.138H21.6194C23.9588 124.138 25.8637 126.003 25.8637 128.296V135.495C25.8637 137.788 23.9588 139.655 21.6194 139.655H14.5893Z" fill="black"/>
</g>
<defs>
<clipPath id="clip0_166_121">
<rect width="150" height="150" fill="white"/>
</clipPath>
</defs>
</svg>
